
<svg id="Layer_1" data-name="Layer 1" xmlns="http://www.w3.org/2000/svg" viewBox="0 0 955.64 173.96"><defs><style>.cls-1{fill:#fff;}</style></defs><path class="cls-1" d="M38.62,144.52c19.43-40.72,39-81.43,58.45-122.31.77-.15,1.39-.15,2.16-.31,10.49,19,21.13,37.79,31.93,57.38C97.38,97.63,66.22,118.3,38.62,144.52Z" transform="translate(-26.17 -21.9)"/><path class="cls-1" d="M132.24,171.36c-1.08.77-2,1.85-3.24,2.31-22.83,9.41-45.81,18.2-70.33,21.6a62.38,62.38,0,0,1-20.05-.47C27.51,192.64,23.35,184.32,28.13,174a79.16,79.16,0,0,1,12-18.2c18-20.2,40.1-35.32,62.93-49.51,32.7-20.36,67.4-36.86,103-51.51,2.46-.93,4.78-2.16,7.55-3.4-1.69-3.24-3.08-5.7-4.16-7.55H236l.46.92-16.66,7.4c-49.35,21.6-95.93,47.66-137.57,82.06-7.1,5.86-13.12,12.95-19.28,19.59A32.16,32.16,0,0,0,57.74,162c-4.63,9.87-.77,17.74,10,18.66A114.78,114.78,0,0,0,96,179.69c12.19-1.85,24.22-5.4,36.25-8.33Z" transform="translate(-26.17 -21.9)"/><path class="cls-1" d="M110.18,122.31c11.72-6.94,22.06-13.26,33.47-20,14.19,27,27.92,53.37,41.8,79.74-.46.46-.93.77-1.39,1.24C160,163.34,135.79,143.44,110.18,122.31Z" transform="translate(-26.17 -21.9)"/><polygon class="cls-1" points="218.44 43.47 162.79 127.17 186.61 127.17 225.48 67.45 263.72 127.17 287.76 127.17 232.47 43.47 218.44 43.47"/><polygon class="cls-1" points="296.62 127.17 382.53 127.17 382.53 109.47 317.52 109.47 317.52 91.97 379.23 91.97 379.23 74.27 317.52 74.27 317.52 61.17 382.53 61.17 382.53 43.47 296.62 43.47 296.62 127.17"/><path class="cls-1" d="M516.72,107.26a21.4,21.4,0,0,0,5.17-14.56V87.2a24,24,0,0,0-1.53-8.72,17.68,17.68,0,0,0-5.13-7.14,23.6,23.6,0,0,0-8.67-4.47,43.34,43.34,0,0,0-12.11-1.5H425.54v83.71h20.89V114.53h35.79l18.15,34.55h22.69l-18.62-35.45C509.86,112.51,514,110.38,516.72,107.26ZM446.43,83.07h48c6.55,0,6.55,2.62,6.55,4v5.72c0,1.41,0,4-6.55,4h-48Z" transform="translate(-26.17 -21.9)"/><path class="cls-1" d="M636.89,71.34a23.6,23.6,0,0,0-8.67-4.47,43.29,43.29,0,0,0-12.11-1.5H565a43.34,43.34,0,0,0-12.11,1.5,23.6,23.6,0,0,0-8.67,4.47,17.61,17.61,0,0,0-5.13,7.14,24,24,0,0,0-1.53,8.72v40a23.9,23.9,0,0,0,1.53,8.72,17.52,17.52,0,0,0,5.13,7.14,23.53,23.53,0,0,0,8.67,4.47A42.85,42.85,0,0,0,565,149.08h51.15a42.8,42.8,0,0,0,12.11-1.51,23.66,23.66,0,0,0,8.68-4.47A17.61,17.61,0,0,0,642,136a24.15,24.15,0,0,0,1.53-8.72v-40A24.23,24.23,0,0,0,642,78.48,17.77,17.77,0,0,0,636.89,71.34ZM558.41,87.09c0-1.4,0-4,6.55-4h51.15c6.55,0,6.55,2.62,6.55,4v40.26c0,1.41,0,4-6.55,4H565c-6.55,0-6.55-2.61-6.55-4Z" transform="translate(-26.17 -21.9)"/><polygon class="cls-1" points="683.65 103.19 644.88 43.47 620.73 43.47 676.37 127.17 690.41 127.17 745.7 43.47 721.99 43.47 683.65 103.19"/><polygon class="cls-1" points="754.56 127.17 840.47 127.17 840.47 109.47 775.46 109.47 775.46 91.97 837.17 91.97 837.17 74.27 775.46 74.27 775.46 61.17 840.47 61.17 840.47 43.47 754.56 43.47 754.56 127.17"/><polygon class="cls-1" points="952.83 43.47 926.87 43.47 898.56 74.92 878.2 74.92 878.2 43.47 857.3 43.47 857.3 127.17 878.2 127.17 878.2 92.63 898.81 92.63 928.07 127.17 953.02 127.17 916.22 82.82 952.83 43.47"/><path class="cls-1" d="M390.68,193.24l-3.31-6.32H372.46l-3.31,6.32h-8.44L376.07,164h7.69l15.36,29.28Zm-10.74-20.56-4.48,8.5h8.91Z" transform="translate(-26.17 -21.9)"/><path class="cls-1" d="M443.69,182.6,452.75,164h8.6l-14.3,29.28h-6.71L426,164h8.6Z" transform="translate(-26.17 -21.9)"/><path class="cls-1" d="M495.08,164H503v29.28h-7.94Z" transform="translate(-26.17 -21.9)"/><path class="cls-1" d="M566.62,193.24l-3.3-6.32H548.41l-3.31,6.32h-8.45L552,164h7.68l15.37,29.28Zm-10.73-20.56-4.48,8.5h8.9Z" transform="translate(-26.17 -21.9)"/><path class="cls-1" d="M621.17,169.62v23.62h-7.94V169.62H603.15V164h28.09v5.66Z" transform="translate(-26.17 -21.9)"/><path class="cls-1" d="M666.55,164h7.94v29.28h-7.94Z" transform="translate(-26.17 -21.9)"/><path class="cls-1" d="M742.67,189.2a22.49,22.49,0,0,1-26.56,0,13.49,13.49,0,0,1,0-21.57,22.49,22.49,0,0,1,26.56,0,13.49,13.49,0,0,1,0,21.57ZM740,178.44a8.7,8.7,0,0,0-3.05-6.68,11.55,11.55,0,0,0-15,0,8.82,8.82,0,0,0,0,13.34,11.65,11.65,0,0,0,15,0A8.65,8.65,0,0,0,740,178.44Z" transform="translate(-26.17 -21.9)"/><path class="cls-1" d="M809.17,164h7.94v29.28h-7.94L792.23,174.9v18.34h-7.94V164h7.43l17.45,18.85Z" transform="translate(-26.17 -21.9)"/><rect class="cls-1" x="811.22" y="156.68" width="144.42" height="4.65"/><rect class="cls-1" x="172.45" y="156.68" width="144.42" height="4.65"/></svg>
