<svg enable-background="new 0 0 1080 1080" viewBox="0 0 1080 1080" xmlns="http://www.w3.org/2000/svg"><circle cx="540.5" cy="539.5" fill="#fff" r="506.5" stroke="#000" stroke-miterlimit="10" stroke-width="50"/><path d="m283.66 646.63c65.34-136.9 131.2-273.81 196.54-411.23 2.59-.52 4.67-.52 7.26-1.04 35.26 63.79 71.05 127.05 107.35 192.91-113.57 61.72-218.33 131.21-311.15 219.36z"/><path d="m598.44 736.87c-3.63 2.59-6.74 6.22-10.89 7.78-76.75 31.63-154.02 61.19-236.47 72.6-22.3 3.11-45.64 2.59-67.42-1.56-37.34-7.26-51.34-35.26-35.26-70.01 10.37-21.78 24.37-43.04 40.45-61.19 60.67-67.93 134.83-118.76 211.58-166.47 109.94-68.45 226.62-123.94 346.41-173.21 8.3-3.11 16.08-7.26 25.41-11.41-5.7-10.89-10.37-19.19-14-25.41h89.2c.52 1.04 1.04 2.07 1.56 3.11-18.67 8.3-37.34 16.59-56.01 24.89-165.95 72.6-322.56 160.24-462.58 275.89-23.85 19.71-44.08 43.56-64.82 65.86-7.26 7.78-12.96 17.63-17.63 27.48-15.56 33.19-2.59 59.64 33.71 62.75 31.63 2.59 63.79 2.07 94.9-3.11 40.96-6.21 81.41-18.14 121.86-27.99z"/><path d="m524.28 571.96c39.41-23.34 74.16-44.6 112.53-67.42 47.71 90.75 93.86 179.43 140.54 268.11-1.56 1.56-3.11 2.59-4.67 4.15-80.9-66.9-162.31-133.8-248.4-204.84z"/></svg>