<svg viewBox="0 0 955.64 173.96" xmlns="http://www.w3.org/2000/svg"><g fill="#fff"><path d="m38.62 144.52c19.43-40.72 39-81.43 58.45-122.31.77-.15 1.39-.15 2.16-.31 10.49 19 21.13 37.79 31.93 57.38-33.78 18.35-64.94 39.02-92.54 65.24z" transform="translate(-26.17 -21.9)"/><path d="m132.24 171.36c-1.08.77-2 1.85-3.24 2.31-22.83 9.41-45.81 18.2-70.33 21.6a62.38 62.38 0 0 1 -20.05-.47c-11.11-2.16-15.27-10.48-10.49-20.8a79.16 79.16 0 0 1 12-18.2c18-20.2 40.1-35.32 62.93-49.51 32.7-20.36 67.4-36.86 103-51.51 2.46-.93 4.78-2.16 7.55-3.4-1.69-3.24-3.08-5.7-4.16-7.55h26.55l.46.92-16.66 7.4c-49.35 21.6-95.93 47.66-137.57 82.06-7.1 5.86-13.12 12.95-19.28 19.59a32.16 32.16 0 0 0 -5.21 8.2c-4.63 9.87-.77 17.74 10 18.66a114.78 114.78 0 0 0 28.26-.97c12.19-1.85 24.22-5.4 36.25-8.33z" transform="translate(-26.17 -21.9)"/><path d="m110.18 122.31c11.72-6.94 22.06-13.26 33.47-20 14.19 27 27.92 53.37 41.8 79.74-.46.46-.93.77-1.39 1.24-24.06-19.95-48.27-39.85-73.88-60.98z" transform="translate(-26.17 -21.9)"/><path d="m218.44 43.47-55.65 83.7h23.82l38.87-59.72 38.24 59.72h24.04l-55.29-83.7z"/><path d="m296.62 127.17h85.91v-17.7h-65.01v-17.5h61.71v-17.7h-61.71v-13.1h65.01v-17.7h-85.91z"/><path d="m516.72 107.26a21.4 21.4 0 0 0 5.17-14.56v-5.5a24 24 0 0 0 -1.53-8.72 17.68 17.68 0 0 0 -5.13-7.14 23.6 23.6 0 0 0 -8.67-4.47 43.34 43.34 0 0 0 -12.11-1.5h-68.91v83.71h20.89v-34.55h35.79l18.15 34.55h22.69l-18.62-35.45c5.42-1.12 9.56-3.25 12.28-6.37zm-70.29-24.19h48c6.55 0 6.55 2.62 6.55 4v5.72c0 1.41 0 4-6.55 4h-48z" transform="translate(-26.17 -21.9)"/><path d="m636.89 71.34a23.6 23.6 0 0 0 -8.67-4.47 43.29 43.29 0 0 0 -12.11-1.5h-51.11a43.34 43.34 0 0 0 -12.11 1.5 23.6 23.6 0 0 0 -8.67 4.47 17.61 17.61 0 0 0 -5.13 7.14 24 24 0 0 0 -1.53 8.72v40a23.9 23.9 0 0 0 1.53 8.72 17.52 17.52 0 0 0 5.13 7.14 23.53 23.53 0 0 0 8.67 4.47 42.85 42.85 0 0 0 12.11 1.55h51.15a42.8 42.8 0 0 0 12.11-1.51 23.66 23.66 0 0 0 8.68-4.47 17.61 17.61 0 0 0 5.06-7.1 24.15 24.15 0 0 0 1.53-8.72v-40a24.23 24.23 0 0 0 -1.53-8.8 17.77 17.77 0 0 0 -5.11-7.14zm-78.48 15.75c0-1.4 0-4 6.55-4h51.15c6.55 0 6.55 2.62 6.55 4v40.26c0 1.41 0 4-6.55 4h-51.11c-6.55 0-6.55-2.61-6.55-4z" transform="translate(-26.17 -21.9)"/><path d="m683.65 103.19-38.77-59.72h-24.15l55.64 83.7h14.04l55.29-83.7h-23.71z"/><path d="m754.56 127.17h85.91v-17.7h-65.01v-17.5h61.71v-17.7h-61.71v-13.1h65.01v-17.7h-85.91z"/><path d="m952.83 43.47h-25.96l-28.31 31.45h-20.36v-31.45h-20.9v83.7h20.9v-34.54h20.61l29.26 34.54h24.95l-36.8-44.35z"/><g transform="translate(-26.17 -21.9)"><path d="m390.68 193.24-3.31-6.32h-14.91l-3.31 6.32h-8.44l15.36-29.24h7.69l15.36 29.28zm-10.74-20.56-4.48 8.5h8.91z"/><path d="m443.69 182.6 9.06-18.6h8.6l-14.3 29.28h-6.71l-14.34-29.28h8.6z"/><path d="m495.08 164h7.92v29.28h-7.94z"/><path d="m566.62 193.24-3.3-6.32h-14.91l-3.31 6.32h-8.45l15.35-29.24h7.68l15.37 29.28zm-10.73-20.56-4.48 8.5h8.9z"/><path d="m621.17 169.62v23.62h-7.94v-23.62h-10.08v-5.62h28.09v5.66z"/><path d="m666.55 164h7.94v29.28h-7.94z"/><path d="m742.67 189.2a22.49 22.49 0 0 1 -26.56 0 13.49 13.49 0 0 1 0-21.57 22.49 22.49 0 0 1 26.56 0 13.49 13.49 0 0 1 0 21.57zm-2.67-10.76a8.7 8.7 0 0 0 -3.05-6.68 11.55 11.55 0 0 0 -15 0 8.82 8.82 0 0 0 0 13.34 11.65 11.65 0 0 0 15 0 8.65 8.65 0 0 0 3.05-6.66z"/><path d="m809.17 164h7.94v29.28h-7.94l-16.94-18.38v18.34h-7.94v-29.24h7.43l17.45 18.85z"/></g><path d="m811.22 156.68h144.42v4.65h-144.42z"/><path d="m172.45 156.68h144.42v4.65h-144.42z"/></g></svg>