<svg fill="none" height="41" viewBox="0 0 53 41" width="53" xmlns="http://www.w3.org/2000/svg" xmlns:xlink="http://www.w3.org/1999/xlink"><linearGradient id="a" gradientUnits="userSpaceOnUse" x1="52.8152" x2="33.4414" y1="49.2344" y2="16.0982"><stop offset="0" stop-color="#618dff"/><stop offset="1" stop-color="#6d96ff" stop-opacity="0"/></linearGradient><path d="m50.4987 13.2052h-8.8288c-.7508-.0058-1.4956.1329-2.1939.4086-4.0856 1.6628-8.2078 3.3011-12.612 3.8199-5.3602.6455-10.4998-.7231-14.6098-4.2285h-9.9319c-2.067272 0-3.100907 2.3451-1.634208 3.7178 2.088568 1.9615 4.448248 3.6126 7.006658 4.9026 1.34015.6709 2.72745 1.243 4.15085 1.7119.345.9053.7405 1.7905 1.1848 2.6515l1.7405 4.0283c.6337 1.4657 1.5548 2.7896 2.7087 3.8935l3.0518 2.9334c.5843.7068 1.1521 1.3809 1.6914 2.0019.519.6002 1.161 1.0816 1.8825 1.4116s1.5057.5008 2.2991.5008 1.5775-.1708 2.299-.5008 1.3636-.8114 1.8825-1.4116c.5434-.621 1.1112-1.2951 1.6955-2.0019l3.0519-2.9293c1.1526-1.1041 2.0723-2.428 2.7046-3.8935l1.7486-4.0406c.4429-.8504.8384-1.7247 1.1848-2.6188 4.1561-1.3687 7.9638-3.6273 11.1575-6.6185.2154-.1913.3879-.426.5062-.6886s.1797-.5473.1802-.8353c-.0042-.2983-.0678-.5927-.1869-.8662-.1192-.2734-.2916-.5204-.5073-.7265-.2156-.2062-.4701-.3673-.7486-.474-.2786-.1067-.5756-.1569-.8737-.1477zm-32.5738 17.6045c-2.5126-1.7037-4.1427-4.3878-4.2939-6.7329.749.1988 1.5048.3717 2.2675.5188l2.5534.4821c1.2665.237 2.5398.414 3.82.5311 1.72 1.72 2.7413 3.9058 2.7373 5.8096-.0995.0848-.2046.1626-.3146.2329-1.6465 1.0745-4.2694.8375-6.7697-.8416zm10.2138.8416c-.1108-.0693-.216-.1471-.3146-.2329 0-1.9038 1.0173-4.0855 2.7332-5.8096 1.2828-.1198 2.5575-.2968 3.824-.5311l2.5535-.4821c.7653-.1471 1.5198-.32 2.2633-.5188-.147 2.3451-1.7772 5.0292-4.2897 6.7329-2.5126 1.7037-5.1355 1.9161-6.782.8416z" fill="#fff"/><path d="m50.4987 13.2052h-8.8288c-.7508-.0058-1.4956.1329-2.1939.4086-4.0856 1.6628-8.2078 3.3011-12.612 3.8199-5.3602.6455-10.4998-.7231-14.6098-4.2285h-9.9319c-2.067272 0-3.100907 2.3451-1.634208 3.7178 2.088568 1.9615 4.448248 3.6126 7.006658 4.9026 1.34015.6709 2.72745 1.243 4.15085 1.7119.345.9053.7405 1.7905 1.1848 2.6515l1.7405 4.0283c.6337 1.4657 1.5548 2.7896 2.7087 3.8935l3.0518 2.9334c.5843.7068 1.1521 1.3809 1.6914 2.0019.519.6002 1.161 1.0816 1.8825 1.4116s1.5057.5008 2.2991.5008 1.5775-.1708 2.299-.5008 1.3636-.8114 1.8825-1.4116c.5434-.621 1.1112-1.2951 1.6955-2.0019l3.0519-2.9293c1.1526-1.1041 2.0723-2.428 2.7046-3.8935l1.7486-4.0406c.4429-.8504.8384-1.7247 1.1848-2.6188 4.1561-1.3687 7.9638-3.6273 11.1575-6.6185.2154-.1913.3879-.426.5062-.6886s.1797-.5473.1802-.8353c-.0042-.2983-.0678-.5927-.1869-.8662-.1192-.2734-.2916-.5204-.5073-.7265-.2156-.2062-.4701-.3673-.7486-.474-.2786-.1067-.5756-.1569-.8737-.1477zm-32.5738 17.6045c-2.5126-1.7037-4.1427-4.3878-4.2939-6.7329.749.1988 1.5048.3717 2.2675.5188l2.5534.4821c1.2665.237 2.5398.414 3.82.5311 1.72 1.72 2.7413 3.9058 2.7373 5.8096-.0995.0848-.2046.1626-.3146.2329-1.6465 1.0745-4.2694.8375-6.7697-.8416zm10.2138.8416c-.1108-.0693-.216-.1471-.3146-.2329 0-1.9038 1.0173-4.0855 2.7332-5.8096 1.2828-.1198 2.5575-.2968 3.824-.5311l2.5535-.4821c.7653-.1471 1.5198-.32 2.2633-.5188-.147 2.3451-1.7772 5.0292-4.2897 6.7329-2.5126 1.7037-5.1355 1.9161-6.782.8416z" fill="url(#a)"/><path d="m19.0321 13.2052c1.9324.7722 3.8853 1.3401 5.3111 1.3401.7195-.002 1.4383-.0443 2.1531-.1267 1.8279-.2688 3.6322-.6786 5.3969-1.2256 2.4718-.715 5.111-1.6343 7.309-2.4759.478-.1838.9356-.3595 1.3646-.5352l-.2696-2.17755-.6701-5.51136v-.04086c-.0521-.39925-.1905-.78238-.4056-1.12277-.215-.34039-.5016-.629877-.8399-.848357-.3382-.218479-.7199-.360714-1.1186-.4168252-.3987-.05611092-.8049-.0247527-1.1903.0918962l-18.9159 5.531786 7.0271-3.96295-.7395.15525c-.4687.09996-.9527.10519-1.4235.01538s-.9189-.27284-1.3179-.53832c-.4785-.31983-1.027-.519931-1.5991-.583449-.572-.063519-1.151.011408-1.6881.218466-.5371.207053-1.0165.540183-1.3979.971293s-.6535.94759-.7935 1.5059l-2.0714 6.74927c.1716.1144.3595.2288.5597.3514 1.7011 1.0167 3.4798 1.8978 5.3194 2.6351z" fill="#fff"/><path d="m19.0321 13.2052c1.9324.7722 3.8853 1.3401 5.3111 1.3401.7195-.002 1.4383-.0443 2.1531-.1267 1.8279-.2688 3.6322-.6786 5.3969-1.2256 2.4718-.715 5.111-1.6343 7.309-2.4759.478-.1838.9356-.3595 1.3646-.5352l-.2696-2.17755-.6701-5.51136v-.04086c-.0521-.39925-.1905-.78238-.4056-1.12277-.215-.34039-.5016-.629877-.8399-.848357-.3382-.218479-.7199-.360714-1.1186-.4168252-.3987-.05611092-.8049-.0247527-1.1903.0918962l-18.9159 5.531786 7.0271-3.96295-.7395.15525c-.4687.09996-.9527.10519-1.4235.01538s-.9189-.27284-1.3179-.53832c-.4785-.31983-1.027-.519931-1.5991-.583449-.572-.063519-1.151.011408-1.6881.218466-.5371.207053-1.0165.540183-1.3979.971293s-.6535.94759-.7935 1.5059l-2.0714 6.74927c.1716.1144.3595.2288.5597.3514 1.7011 1.0167 3.4798 1.8978 5.3194 2.6351z" fill="url(#a)"/></svg>