<svg clip-rule="evenodd" fill-rule="evenodd" height="320" image-rendering="optimizeQuality" shape-rendering="geometricPrecision" text-rendering="geometricPrecision" width="314" xmlns="http://www.w3.org/2000/svg"><path d="m206.5 58.5c5.846 1.3166 11.846 1.3166 18 0 2.522-.8029 4.522-2.1362 6-4 3.998-2.3406 7.664-5.1739 11-8.5 1-.6667 2-.6667 3 0 4.333 3.6667 8.667 7.3333 13 11 3.833 4.5 7.667 9 11.5 13.5-.265 3.3199-1.931 5.9865-5 8-13.081 23.168-9.247 43.001 11.5 59.5 7.695 4.131 15.862 6.631 24.5 7.5 2 12 2 24 0 36-4.409 1.031-8.909 1.698-13.5 2-6.235.08-10.901 1.08-14 3-1.523 2.481-3.19 4.981-5 7.5-1.284.684-2.451.517-3.5-.5-1.149 3.279-1.982 6.613-2.5 10-.667 1.333-1.333 2.667-2 4-.958.453-1.792 1.119-2.5 2-2.798 7.912-3.132 15.912-1 24 .522 2.781 1.689 5.115 3.5 7 2.579 5.487 5.912 10.487 10 15-7.482 9.316-15.816 17.816-25 25.5-1.408.315-2.741-.018-4-1-10.646-10.323-23.313-13.99-38-11-16.261 4.707-26.595 15.207-31 31.5-1.743 2.995-2.743 6.329-3 10-11.34 1.309-22.673 1.309-34 0-.09-3.714-1.09-7.048-3-10-7.702-24.367-24.369-34.867-50-31.5-8.3317 2.246-15.4984 6.413-21.5 12.5-9.3347-6.835-17.5014-14.835-24.5-24-.1567-1.373.01-2.707.5-4 1.8022-1.289 2.9688-2.956 3.5-5 13.2757-25.062 8.2757-45.562-15-61.5-6.8461-2.96-13.8461-4.793-21-5.5 0-12 0-24 0-36 17.7934-1.228 31.1267-9.562 40-25 1.3846-1.074 2.5513-2.407 3.5-4 .8218-7.512.6552-14.845-.5-22-2.3625-8.5481-6.6958-16.0481-13-22.5 4.8115-6.9771 10.4782-13.1438 17-18.5 3.6002-1.9302 6.6002-4.5969 9-8 3.1032 1.9233 6.1032 4.09 9 6.5 21.6654 11.5553 40.499 8.0553 56.5-10.5 5.046-8.304 7.546-17.304 7.5-27 12.667-1.3333 25.333-1.3333 38 0 .677 24.0044 12.677 38.6711 36 44z" fill="#51659f"/><path d="m59.5 45.5c-2.3998 3.4031-5.3998 6.0698-9 8 2.3998-3.4031 5.3998-6.0698 9-8z" fill="#93a0bc" opacity=".667"/><path d="m230.5 54.5c-1.478 1.8638-3.478 3.1971-6 4-6.154 1.3166-12.154 1.3166-18 0 8.382.7429 16.382-.5904 24-4z" fill="#7f8db0"/><path d="m131.5 77.5c-.929.8149-1.929 1.6482-3 2.5-3.087.2589-6.087.7589-9 1.5 1.975-1.59 4.308-2.7567 7-3.5 1.634-.4935 3.301-.6602 5-.5z" fill="#82a180"/><path d="m184.5 81.5c4.189.7205 7.855 2.3872 11 5-2.549-1.0091-5.215-1.8425-8-2.5-1.442-.3768-2.442-1.2101-3-2.5z" fill="#779385"/><path d="m46.5 94.5c1.1552 7.155 1.3218 14.488.5 22-.9487 1.593-2.1154 2.926-3.5 4 2.6358-8.438 3.6358-17.104 3-26z" fill="#7c88b3"/><path d="m3.5 145.5v36c-2.572064-12.004-2.572064-24.004 0-36z" fill="#7e8cb0" opacity=".81"/><path d="m286.5 183.5c-10.693 3.69-19.026 10.357-25 20 .518-3.387 1.351-6.721 2.5-10 1.049 1.017 2.216 1.184 3.5.5 1.81-2.519 3.477-5.019 5-7.5 3.099-1.92 7.765-2.92 14-3z" fill="#6d7dab"/><path d="m239.5 153.5c2.801 23.462-2.532 44.796-16 64-2 .667-3.333 2-4 4-22.097 25.346-50.097 35.679-84 31-6.256-1.419-12.256-3.419-18-6-.763-.768-1.763-1.268-3-1.5 1-.167 2-.333 3-.5 36.359 10.417 67.859 3.083 94.5-22 4.315-5.299 8.648-10.633 13-16 3.673-8.84 7.006-17.84 10-27 1.076-11.974 1.743-23.974 2-36 .885 3.452 1.718 6.786 2.5 10z" fill="#77a352"/><path d="m184.5 81.5c.558 1.2899 1.558 2.1232 3 2.5 2.785.6575 5.451 1.4909 8 2.5 17.9 10.7406 31.067 25.741 39.5 45 .41 4.98 1.743 9.647 4 14 .497 2.646.664 5.313.5 8-.782-3.214-1.615-6.548-2.5-10-.257 12.026-.924 24.026-2 36-2.994 9.16-6.327 18.16-10 27-4.352 5.367-8.685 10.701-13 16-26.641 25.083-58.141 32.417-94.5 22-1 .167-2 .333-3 .5 1.237.232 2.237.732 3 1.5-1.373.157-2.707-.01-4-.5-2.922-2.116-5.922-3.949-9-5.5-2.842-2.455-5.8418-4.788-9-7-5.4876-3.961-10.3209-8.627-14.5-14-9.3028-12.487-15.3028-26.487-18-42-3.968-33.171 6.532-60.671 31.5-82.5 5.788-3.1309 11.121-6.7976 16-11 2.812-1.5489 5.812-2.3822 9-2.5 2.913-.7411 5.913-1.2411 9-1.5 1.071-.8518 2.071-1.6851 3-2.5 1.109-.79 2.442-1.29 4-1.5 12.896-.9145 25.729-.4145 38.5 1.5 3.333 1.8323 6.833 3.1656 10.5 4z" fill="#8db367"/><path d="m177.5 102.5c26.573 11.588 40.573 31.922 42 61-1.408 30.677-16.075 52.177-44 64.5-18.179 6.839-35.846 6.005-53-2.5-.111-.617-.444-1.117-1-1.5 1.667-.167 3.333-.333 5-.5 12.944 2.507 25.278.84 37-5 2.586-.98 5.253-1.313 8-1-.262-1.478.071-2.811 1-4 9.039-5.874 16.539-13.207 22.5-22 .495-1.973.662-3.973.5-6h4c.477-4.564 1.643-8.898 3.5-13 .667-10 .667-20 0-30-2.976-6.864-5.81-13.864-8.5-21-6.15-6.162-11.817-12.495-17-19z" fill="#587b37"/><path d="m171.5 99.5c2.251.515 4.251 1.515 6 3 5.183 6.505 10.85 12.838 17 19 2.69 7.136 5.524 14.136 8.5 21 .667 10 .667 20 0 30-1.857 4.102-3.023 8.436-3.5 13-1.333 0-2.667 0-4 0 .162 2.027-.005 4.027-.5 6-5.961 8.793-13.461 16.126-22.5 22-.929 1.189-1.262 2.522-1 4-2.747-.313-5.414.02-8 1-11.722 5.84-24.056 7.507-37 5-1.667.167-3.333.333-5 .5.556.383.889.883 1 1.5-5.085-1.586-9.418-4.253-13-8 4.476-.607 9.143-.607 14 0 11.101-1.351 21.768-4.351 32-9 8.643-5.978 16.31-12.978 23-21 .777-3.778 2.444-7.111 5-10 3.375-7.987 5.375-16.321 6-25-.457-.798-1.124-1.131-2-1 1.412-2.596 3.079-5.096 5-7.5 3.061-7.654.728-12.487-7-14.5-2.753-11.872-8.753-21.539-18-29 1.189-.9287 2.522-1.262 4-1z" fill="#638940"/><path d="m185.5 129.5c7.728 2.013 10.061 6.846 7 14.5-1.921 2.404-3.588 4.904-5 7.5-9.498 10.158-17.831 21.158-25 33-4.441 4.698-8.774 9.531-13 14.5-3.062.741-6.062.575-9-.5-10.544-9.038-20.71-18.705-30.5-29-1.873-9.456 1.96-13.956 11.5-13.5 7.176 7.004 14.843 13.504 23 19.5 11.085-14.237 21.918-28.57 32.5-43 2.492-1.997 5.325-2.997 8.5-3z" fill="#f7f9f6"/><path d="m171.5 99.5c-1.478-.262-2.811.0713-4 1 9.247 7.461 15.247 17.128 18 29-3.175.003-6.008 1.003-8.5 3-10.582 14.43-21.415 28.763-32.5 43-8.157-5.996-15.824-12.496-23-19.5-9.54-.456-13.373 4.044-11.5 13.5 9.79 10.295 19.956 19.962 30.5 29 2.938 1.075 5.938 1.241 9 .5 4.226-4.969 8.559-9.802 13-14.5 7.169-11.842 15.502-22.842 25-33 .876-.131 1.543.202 2 1-.625 8.679-2.625 17.013-6 25-2.556 2.889-4.223 6.222-5 10-6.69 8.022-14.357 15.022-23 21-10.232 4.649-20.899 7.649-32 9-4.857-.607-9.524-.607-14 0-3.13-1.799-5.13-4.466-6-8-1.478.262-2.811-.071-4-1-17.9696-23.005-20.9696-48.005-9-75 18.648-30.933 45.648-42.2662 81-34z" fill="#74a350"/><path d="m123.5 105.5c1.788-.285 3.455.048 5 1-24.241 11.611-37.5748 30.944-40 58-1.8966-11.497.2701-22.163 6.5-32 7.117-11.62 16.617-20.62 28.5-27z" fill="#8cb465"/><path d="m223.5 217.5c-.025 2.679-1.358 4.012-4 4 .667-2 2-3.333 4-4z" fill="#6c8a85"/><path d="m259.5 207.5c-3.96 11.014-3.96 22.014 0 33-1.811-1.885-2.978-4.219-3.5-7-2.132-8.088-1.798-16.088 1-24 .708-.881 1.542-1.547 2.5-2z" fill="#7381ae" opacity=".847"/><path d="m95.5 233.5c3.1582 2.212 6.158 4.545 9 7-2.212-1.145-4.545-2.145-7-3-1.1302-1.122-1.7969-2.456-2-4z" fill="#5f7a87"/><path d="m39.5 248.5c-.5312 2.044-1.6978 3.711-3.5 5-.49 1.293-.6567 2.627-.5 4-.9778-.311-1.6445-.978-2-2 1.3037-2.967 3.3037-5.301 6-7z" fill="#8894b7" opacity=".506"/><path d="m131.5 300.5c1.91 2.952 2.91 6.286 3 10 11.327 1.309 22.66 1.309 34 0 .257-3.671 1.257-7.005 3-10-.465 3.899-1.132 7.733-2 11.5-11.998 1.949-23.998 1.949-36 0-.868-3.767-1.535-7.601-2-11.5z" fill="#717fa6"/></svg>