<svg viewBox="0 0 590 590" xmlns="http://www.w3.org/2000/svg"><circle cx="295" cy="295" fill="#1f1f1f" r="295" transform="matrix(.70710678 -.70710678 .70710678 .70710678 -122.19 295)"/><path d="m178.4 210.3 127.06-73.36a14.17 14.17 0 0 1 14.14 0l80 46.21a14.14 14.14 0 0 1 3 22.23l-27.13 27.27a14.14 14.14 0 0 1 -17.1 2.27l-38.61-22.29a14.44 14.44 0 0 0 -14.44 0l-134 78.12v-68.2a14.16 14.16 0 0 1 7.08-12.25z" fill="#fa8c16"/><path d="m399.92 406.68-80.32 46.38a14.17 14.17 0 0 1 -14.14 0l-127.06-73.36a14.16 14.16 0 0 1 -7.07-12.25v-61.86l65.47-37.95v62a14.16 14.16 0 0 0 7.07 12.25l61.59 35.56a14.17 14.17 0 0 0 14.14 0l39-22.5a14.14 14.14 0 0 1 17.07 2.25l27.21 27.21a14.15 14.15 0 0 1 -2.96 22.27z" fill="#fff"/></svg>