<svg enable-background="new 0 0 3357.2 877.5" viewBox="0 0 3357.2 877.5" xmlns="http://www.w3.org/2000/svg"><path d="m45.7 228.2 315.8-182.3c10.9-6.3 24.3-6.3 35.2 0l198.9 114.8c20 11.5 23.6 38.9 7.3 55.3l-67.4 67.8c-11.2 11.3-28.7 13.6-42.5 5.6l-96-55.4c-11.1-6.4-24.8-6.4-35.9 0l-333 194.2v-169.5c0-12.6 6.7-24.2 17.6-30.5z" fill="#fa8c16"/><g fill="#fff"><path d="m596.3 716.3-199.7 115.2c-10.9 6.3-24.3 6.3-35.1 0l-315.8-182.3c-10.9-6.3-17.6-17.9-17.6-30.4v-153.8l162.7-94.3v154.1c0 12.6 6.7 24.2 17.6 30.4l153.1 88.4c10.9 6.3 24.3 6.3 35.1 0l96.9-55.9c13.8-8 31.2-5.7 42.4 5.6l67.6 67.6c16.4 16.4 12.8 43.8-7.2 55.4z"/><path d="m1872.3 126v477.6c0 32.7-13.7 36.5-44.4 36.5h-242.1c-10.5 0-18.8-3.1-25.6-9.5-3.7-3.4-9.8-2.8-9.8-32.7v-471.9h-122.5v484.8c0 40.7 14 74.9 41.6 101.7 26.5 25.9 64.2 39 112.1 39h258.5c44 0 81-13.6 109.9-40.5 29.7-27.6 44.7-57.9 44.7-111.5v-473.6z"/><path d="m2613.6 423.8c-24.1-25.9-56.1-39-95.3-39h-222c-13.7 0-22.8-2.8-32.7-12.3-9.6-8.9-10.8-18.6-10.8-30.5v-64.1c0-12.3 2-22.4 10.1-30.7 4.6-4.6 11.7-10 37.9-10h344.5v-111.4h-388.6c-45.7 0-82.6 19.3-109.6 57.2-11.2 15.6-16.7 42.1-16.7 81.1v116.1c0 36.3 9.3 64 27.6 82.3 22.1 22.4 51.8 33.8 88.1 33.8h233.4c14.9 0 25.7 2.8 32.4 8.3 10.1 8.1 14.9 16.8 14.9 26.7v63.1c0 30.7-6 30.2-9.4 33.6-8.7 8.3-20.2 12.3-35 12.3h-352.5v111.4h376.3c43.7 0 79.6-14.2 106.6-42.1 24.2-25.1 36.5-60.2 36.5-104.3v-73.1c-.2-46.6-12.1-83-35.7-108.4z"/><path d="m2795.4 126v111.4h204.4v514h122.4v-514h206.9v-111.4z"/><path d="m1301.6 385.3c3.1-36.4 0-122.1 0-122.1 0-55.8-24.9-97.1-73.9-122.7-19.2-10.2-48.3-15.1-88.9-15.1l-230.5.4c-36.5 0-144.8-.4-144.8-.4l55.3 111.4h124.2 3.4 175.2c26.8 0 57.5 4.8 57.5 42.4v91c0 29.3-14.7 42.4-47.7 42.4h-161.8-206.1v339.4h122.5v-228.1h186.1l84.8 228.1h145.8s-86.1-230.5-88.7-236.1c-3.5-7.4 36.2-13.2 60.6-39.7 24.5-26.4 23.9-54.5 27-90.9z"/></g></svg>