<svg height="400" viewBox="0 0 400 400" width="400" xmlns="http://www.w3.org/2000/svg"><g fill-rule="evenodd"><path d="m181.87.606c-6.976.631-17.488 2.162-23.664 3.448-5.755 1.199-16.731 3.974-16.985 4.294-.105.133-1.994.82-4.198 1.528-6.487 2.082-14.062 4.955-17.748 6.731-1.89.91-6.348 3.046-9.907 4.747-3.56 1.701-6.566 3.243-6.68 3.427s-2.026 1.367-4.248 2.629c-5.03 2.855-9.257 5.427-9.509 5.785-.105.15-2.509 1.867-5.343 3.815s-5.668 4.015-6.298 4.594c-.63.578-2.948 2.492-5.153 4.254-7.307 5.84-21.621 20.221-27.223 27.353-.877 1.115-2.51 3.146-3.631 4.513s-3.332 4.405-4.914 6.751-3.177 4.609-3.544 5.029c-.683.782-5.73 9.167-7.064 11.736-.409.788-.887 1.432-1.061 1.432-.175 0-.22.157-.102.349.119.192.059.407-.133.477-.408.149-5.025 9.304-6.175 12.242-.432 1.104-1.216 2.748-1.742 3.652-1.138 1.955-4.117 9.841-7.33 19.4-11.075 32.958-12.286 73.673-3.313 111.347 1.69 7.097 8.67 27.08 10.643 30.469.526.904 1.311 2.548 1.743 3.654 1.186 3.029 5.748 12.094 6.161 12.24.199.07.265.285.146.477-.118.192-.073.349.102.349.174 0 .652.644 1.061 1.432 1.334 2.569 6.381 10.954 7.064 11.736.367.42 1.962 2.683 3.544 5.029s3.793 5.384 4.914 6.751 2.811 3.472 3.755 4.678c6.218 7.94 19.888 21.593 27.863 27.83 1.784 1.396 3.759 3.016 4.389 3.6.63.585 3.464 2.658 6.298 4.606s5.238 3.665 5.343 3.815c.252.358 4.479 2.93 9.509 5.785 2.222 1.262 4.134 2.445 4.248 2.629s3.12 1.726 6.68 3.427c3.559 1.701 8.017 3.837 9.907 4.747 3.686 1.776 11.261 4.649 17.748 6.731 2.204.708 4.093 1.394 4.198 1.525.244.305 9.513 2.688 15.386 3.956 25.36 5.473 55.061 5.897 80.988 1.155 5.865-1.073 20.867-4.679 21.179-5.091.107-.142 1.999-.837 4.203-1.545 6.356-2.04 14.049-4.939 17.367-6.544 1.679-.813 6.137-2.951 9.907-4.753 3.769-1.801 6.947-3.425 7.061-3.608.114-.184 2.026-1.367 4.248-2.629 5.03-2.855 9.257-5.427 9.509-5.785.105-.15 2.509-1.867 5.343-3.815s5.668-4.021 6.298-4.606c.63-.584 2.605-2.204 4.389-3.6 11.672-9.128 28.705-27.48 36.856-39.708 1.399-2.099 2.846-4.16 3.215-4.58.684-.778 5.721-9.141 7.069-11.736.409-.788.887-1.432 1.061-1.432.175 0 .22-.157.102-.349-.119-.192-.053-.407.146-.477.413-.146 4.975-9.211 6.161-12.24.432-1.106 1.217-2.75 1.743-3.654 1.072-1.841 4.523-10.85 6.299-16.442.641-2.018 1.395-4.185 1.675-4.815 1.731-3.888 5.159-19.273 6.635-29.771 3.648-25.946 2.276-53.512-3.966-79.719-1.69-7.097-8.67-27.08-10.643-30.469-.526-.904-1.311-2.548-1.743-3.654-1.186-3.029-5.748-12.094-6.161-12.24-.199-.07-.265-.285-.146-.477.118-.192.073-.349-.102-.349-.174 0-.652-.644-1.061-1.432-1.334-2.569-6.381-10.954-7.064-11.736-.367-.42-1.962-2.683-3.544-5.029s-3.836-5.397-5.009-6.78c-1.174-1.383-2.133-2.652-2.133-2.821 0-.168-1.031-1.386-2.291-2.705-1.259-1.32-2.29-2.493-2.29-2.607 0-1.113-18.081-18.938-24.045-23.704-2.205-1.762-4.523-3.676-5.153-4.254-.63-.579-3.464-2.646-6.298-4.594s-5.238-3.665-5.343-3.815c-.252-.358-4.479-2.93-9.509-5.785-2.222-1.262-4.134-2.445-4.248-2.629s-3.12-1.726-6.68-3.427c-3.559-1.701-8.017-3.837-9.907-4.747-3.686-1.776-11.261-4.649-17.748-6.731-2.204-.708-4.093-1.395-4.198-1.528-.649-.82-18.774-4.832-28.054-6.21-14.412-2.14-34.982-2.785-48.855-1.532m19.657 51.154c0 .338 1.657 3.473 3.682 6.966s4.621 7.982 5.768 9.976c1.148 1.995 2.411 4.184 2.807 4.867 1.373 2.365 2.16 3.733 3.569 6.202.778 1.364 1.547 2.653 1.709 2.863.161.21.811 1.326 1.443 2.481.632 1.154 2.656 4.675 4.498 7.824s3.869 6.67 4.505 7.824c.635 1.155 1.564 2.755 2.065 3.556s1.245 2.046 1.654 2.767c.408.721 1.064 1.869 1.456 2.551.393.683 1.996 3.474 3.563 6.203s4.337 7.51 6.156 10.624c1.82 3.115 3.312 5.777 3.316 5.916.005.14.345.683.755 1.208.991 1.266.956 2.227-.095 2.672-.472.2-1.804.957-2.958 1.681-1.155.725-3.388 2.078-4.962 3.007-4.79 2.826-10.057 6.049-11.128 6.807-1.457 1.033-1.99.9-2.871-.713-.431-.787-2.867-5.02-5.415-9.405-2.547-4.386-4.632-8.052-4.632-8.147 0-.096-.317-.63-.705-1.187s-1.223-1.958-1.857-3.112c-.633-1.155-2.051-3.645-3.151-5.535-1.099-1.889-2.389-4.122-2.866-4.961-.477-.84-2.177-3.796-3.777-6.569-1.601-2.774-2.911-5.221-2.911-5.439 0-.761-.712-.389-1.247.653-.297.577-1.707 3.025-3.133 5.439-2.557 4.327-3.297 5.599-4.76 8.181-.408.721-1.152 1.966-1.653 2.767s-1.43 2.401-2.066 3.555c-.635 1.155-2.319 4.075-3.742 6.489s-3.016 5.162-3.54 6.107-1.507 2.662-2.185 3.817c-5.542 9.447-12.025 20.699-12.025 20.87 0 .096-.515.924-1.145 1.84-.63.915-1.145 1.748-1.145 1.85s-.798 1.531-1.773 3.175c-.975 1.645-2.091 3.548-2.481 4.23-1.067 1.87-1.732 3.019-6.904 11.928l-4.764 8.206 31.721.191 31.72.191.101 12.76c.078 9.955-.006 12.828-.382 13.067-.996.632-76.245.382-76.489-.255-.254-.662-.902-.773-.902-.154 0 .23-.323.874-.719 1.431-.395.557-1.082 1.657-1.526 2.444-1.381 2.447-2.175 3.808-4.059 6.966-1.002 1.68-2.164 3.655-2.584 4.389-.419.735-1.038 1.793-1.376 2.351-1.618 2.676-3.773 6.343-4.675 7.955-.293.525-1.973 3.359-3.734 6.297-1.76 2.939-3.517 5.902-3.905 6.584-1.793 3.158-2.256 3.943-4.275 7.266-1.185 1.949-2.154 3.601-2.154 3.672s-1.117 1.97-2.481 4.22c-1.365 2.25-2.481 4.14-2.481 4.199 0 .06-1.632 2.818-3.626 6.131-1.995 3.312-3.626 6.081-3.626 6.154s24.199.133 53.776.133c48.684 0 53.798.057 54.007.604.301.784.293 23.748-.009 24.873l-.23.859h-75.921c-84.228 0-77.469.23-75.171-2.557.65-.788 1.181-1.551 1.181-1.695s1.483-2.81 3.296-5.925c3.738-6.422 4.439-7.639 5.788-10.052.529-.945 1.336-2.319 1.794-3.053.458-.735 1.266-2.109 1.794-3.054.528-.944 1.31-2.318 1.738-3.053 5.488-9.439 7.346-12.667 7.346-12.764 0-.063 1.116-1.956 2.481-4.206 1.365-2.251 2.481-4.152 2.481-4.226s1.482-2.678 3.292-5.786c3.297-5.658 4.107-7.055 5.433-9.373.391-.682 1.225-2.108 1.854-3.169s1.577-2.692 2.107-3.626c.529-.934 2.786-4.843 5.016-8.687 2.229-3.844 4.054-7.081 4.054-7.193s.343-.686.763-1.276c.768-1.078 2.543-4.113 4.688-8.015.634-1.154 1.471-2.555 1.859-3.112s.705-1.098.705-1.202c0-.103.66-1.279 1.467-2.612.807-1.334 1.901-3.198 2.433-4.142.531-.945 4.099-7.128 7.929-13.741 3.829-6.613 7.31-12.624 7.735-13.359.425-.734 1.205-2.109 1.733-3.053.528-.945 1.62-2.809 2.427-4.142.807-1.334 1.467-2.471 1.467-2.528 0-.056.913-1.628 2.03-3.491 1.116-1.864 2.555-4.333 3.197-5.488.641-1.155 4.301-7.51 8.132-14.122 3.831-6.613 7.287-12.581 7.681-13.264.393-.682 1.038-1.798 1.432-2.48.394-.683 1.36-2.357 2.146-3.722.786-1.364 1.73-2.996 2.097-3.626 2.384-4.088 4.785-8.234 5.527-9.542.476-.839 4.002-6.937 7.834-13.549 3.833-6.613 7.403-12.796 7.934-13.741.531-.944 1.341-2.319 1.799-3.053.458-.735 1.268-2.109 1.8-3.054.531-.944 4.047-7.042 7.813-13.549 8.135-14.061 7.646-13.194 7.904-14.027.263-.848 1.758-.893 1.758-.053m70.361 122.572c2.879 4.986 5.485 9.494 5.792 10.019 2.006 3.43 7.439 12.877 8.78 15.267.883 1.575 2.168 3.808 2.855 4.962 1.2 2.016 1.84 3.12 3.375 5.821.387.682 1.7 2.958 2.916 5.057s2.531 4.375 2.921 5.057c1.222 2.136 2.075 3.613 4.135 7.157 1.098 1.889 2.386 4.122 2.862 4.962.476.839 1.765 3.072 2.863 4.961 1.098 1.89 2.384 4.123 2.858 4.962.473.84 1.207 2.128 1.631 2.863.423.735 1.497 2.624 2.385 4.198.889 1.575 2.093 3.636 2.675 4.58.583.945 1.49 2.491 2.017 3.436.527.944 3.482 6.097 6.567 11.45s6 10.42 6.477 11.26c.478.839 2.008 3.481 3.401 5.87 1.393 2.388 2.533 4.399 2.533 4.468 0 .068.54 1.033 1.199 2.145 2.267 3.822 6.287 10.807 8.083 14.043.641 1.155 1.648 2.863 2.239 3.796.989 1.562 1.464 3.342.788 2.956-.157-.09-26.049-.02-57.538.155-53.32.297-57.285.275-57.734-.321-.37-.491-.459-3.516-.382-13.059l.101-12.42 36.179-.046c37.064-.048 37.055-.048 36.085-1.192-.312-.369-.964-1.357-1.449-2.197-.484-.84-1.178-2.042-1.541-2.672-.364-.63-2.199-3.721-4.079-6.87s-4.508-7.57-5.841-9.826l-2.423-4.1-28.466-.098-28.465-.098-.101-12.359c-.076-9.302.015-12.498.366-12.921.406-.489 3.147-.526 20.998-.281 18.02.247 20.531.212 20.531-.285 0-.311-.95-2.141-2.11-4.066-2.025-3.36-2.56-4.278-4.678-8.045-.525-.934-1.469-2.565-2.098-3.626-.63-1.061-1.441-2.444-1.803-3.074-.362-.629-2.163-3.721-4.003-6.87-1.839-3.149-3.641-6.24-4.005-6.87s-1.656-2.863-2.873-4.962c-1.216-2.099-2.505-4.332-2.865-4.962-2.746-4.813-7.385-12.681-7.703-13.067-.727-.881 3.054-3.855 7.891-6.208.932-.453 11.532-6.874 12.224-7.405.42-.322.861-.591.98-.598.12-.006 2.572 4.067 5.45 9.053" fill="#1b1b1b"/><path d="m200 52.232c0 .177-2.426 4.514-5.391 9.637s-5.916 10.259-6.558 11.413c-.642 1.155-2.08 3.624-3.197 5.488-1.116 1.864-2.03 3.469-2.03 3.567s-.317.635-.705 1.192-1.224 1.958-1.859 3.112c-.634 1.155-1.751 3.13-2.481 4.39-.73 1.259-4.465 7.7-8.3 14.313-3.836 6.612-7.403 12.795-7.927 13.74s-1.423 2.49-1.996 3.435c-1.36 2.241-5.001 8.501-6.217 10.687-.747 1.344-8.196 14.197-12.498 21.565-1.043 1.787-4.945 8.591-6.018 10.496-.533.945-2.037 3.521-3.343 5.725-1.306 2.205-2.804 4.781-3.328 5.726-.525.944-3.401 5.925-6.391 11.068s-5.957 10.296-6.593 11.451c-.636 1.154-1.285 2.271-1.442 2.481-.271.361-.699 1.105-2.963 5.152-.528.945-1.336 2.319-1.795 3.054-.708 1.134-2.185 3.686-7.733 13.358-.421.735-2.958 5.115-5.637 9.733-2.679 4.619-5.809 10.029-6.957 12.023-1.147 1.994-2.41 4.184-2.806 4.867-.396.682-1.04 1.798-1.431 2.48-.39.683-1.224 2.109-1.854 3.169-.629 1.061-1.575 2.693-2.103 3.626-.527.934-3.75 6.507-7.161 12.385-7.987 13.763-7.75 13.352-11.258 19.466-1.205 2.099-2.492 4.332-2.86 4.961-7.112 12.17-9.883 17.137-9.712 17.412.118.192 32.533.336 75.567.336h75.359v-12.786-12.786h-53.817c-36.323 0-53.817-.127-53.817-.389 0-.214.439-1.084.975-1.934.536-.849 1.284-2.091 1.662-2.759.378-.669 2.369-4.05 4.424-7.513 3.618-6.098 4.808-8.132 5.695-9.733.233-.42 1.95-3.34 3.816-6.489 6.027-10.168 9.476-16.004 10.151-17.175.363-.63 1.48-2.52 2.482-4.199s2.117-3.569 2.478-4.198c.361-.63 1.771-3.035 3.133-5.344s3.477-5.916 4.7-8.015c2.7-4.636 2.449-4.33 2.898-3.528.35.625 2.655.665 38.521.665h38.149v-12.404c0-9.667-.105-12.406-.477-12.409-.262-.003-14.604-.001-31.87.004-33.72.009-32.78.062-31.043-1.737.289-.299 2.864-4.7 10.711-18.301.364-.63 1.52-2.605 2.57-4.389 1.051-1.785 2.342-4.018 2.87-4.962 1.693-3.028 10.679-18.498 10.974-18.893.157-.21.713-1.155 1.236-2.1.524-.944 1.299-2.318 1.724-3.053 2.841-4.915 13.418-23.127 15.627-26.908 2.992-5.121 4.563-7.889 5.363-9.447.296-.577.771-1.05 1.056-1.05.284 0 .76.473 1.057 1.05 1.233 2.39 25.452 44.459 25.828 44.862.319.342 21.397-12.223 21.397-12.756 0-.191-.408-.988-.906-1.771-1.172-1.84-7.743-13.154-10.468-18.026-.529-.944-1.336-2.319-1.794-3.053-.458-.735-1.265-2.109-1.794-3.054-1.519-2.716-2.352-4.162-4.395-7.633-1.05-1.785-2.341-4.017-2.869-4.962s-3.154-5.496-5.837-10.115c-5.739-9.882-8.138-14.024-9.671-16.698-.391-.682-1.317-2.271-2.057-3.531-2.184-3.719-3.194-5.486-5.719-10.008-2.045-3.664-3.345-5.211-3.345-3.981m-139.715 4.161-1.316 1.431 1.432-1.315c1.332-1.224 1.607-1.547 1.315-1.547-.064 0-.708.644-1.431 1.431m279.028-.095c.712.734 1.381 1.336 1.486 1.336s-.392-.602-1.104-1.336c-.712-.735-1.381-1.336-1.486-1.336s.392.601 1.104 1.336m-283.608 4.675-1.316 1.432 1.432-1.316c1.332-1.224 1.606-1.547 1.315-1.547-.064 0-.708.644-1.431 1.431m288.188-.095c.712.735 1.381 1.336 1.486 1.336s-.392-.601-1.104-1.336-1.381-1.336-1.486-1.336.392.601 1.104 1.336" fill="#f4f4f4"/><path d="m199.769 51.813c-.258.833.231-.034-7.904 14.027-3.766 6.507-7.282 12.605-7.813 13.549-.532.945-1.342 2.319-1.8 3.054-.458.734-1.268 2.109-1.799 3.053-.531.945-4.101 7.128-7.934 13.741-3.832 6.612-7.358 12.71-7.834 13.549-.742 1.308-3.143 5.454-5.527 9.542-.367.63-1.311 2.262-2.097 3.626-.786 1.365-1.752 3.039-2.146 3.722-.394.682-1.039 1.798-1.432 2.48-.394.683-3.85 6.651-7.681 13.264-3.831 6.612-7.491 12.967-8.132 14.122-.642 1.155-2.081 3.624-3.197 5.488-1.117 1.863-2.03 3.435-2.03 3.491 0 .057-.66 1.194-1.467 2.528-.807 1.333-1.899 3.197-2.427 4.142-.528.944-1.308 2.319-1.733 3.053-.425.735-3.906 6.746-7.735 13.359-3.83 6.613-7.398 12.796-7.929 13.741-.532.944-1.626 2.808-2.433 4.142-.807 1.333-1.467 2.509-1.467 2.612 0 .104-.317.645-.705 1.202s-1.225 1.958-1.859 3.112c-2.145 3.902-3.92 6.937-4.688 8.015-.42.59-.763 1.164-.763 1.276s-1.825 3.349-4.054 7.193c-2.23 3.844-4.487 7.753-5.016 8.687-.53.934-1.478 2.565-2.107 3.626s-1.463 2.487-1.854 3.169c-1.326 2.318-2.136 3.715-5.433 9.373-1.81 3.108-3.292 5.712-3.292 5.786s-1.116 1.975-2.481 4.226c-1.365 2.25-2.481 4.143-2.481 4.206 0 .097-1.858 3.325-7.346 12.764-.428.735-1.21 2.109-1.738 3.053-.528.945-1.336 2.319-1.794 3.054-.458.734-1.265 2.108-1.794 3.053-1.349 2.413-2.05 3.63-5.788 10.052-1.813 3.115-3.296 5.781-3.296 5.925s-.531.907-1.181 1.695c-2.298 2.787-9.057 2.557 75.171 2.557h75.921l.23-.859c.302-1.125.31-24.089.009-24.873-.209-.547-5.323-.604-54.007-.604-29.577 0-53.776-.06-53.776-.133s1.631-2.842 3.626-6.154c1.994-3.313 3.626-6.071 3.626-6.131 0-.059 1.116-1.949 2.481-4.199 1.364-2.25 2.481-4.149 2.481-4.22s.969-1.723 2.154-3.672c2.019-3.323 2.482-4.108 4.275-7.266.388-.682 2.145-3.645 3.905-6.584 1.761-2.938 3.441-5.772 3.734-6.297.902-1.612 3.057-5.279 4.675-7.955.338-.558.957-1.616 1.376-2.351.42-.734 1.582-2.709 2.584-4.389 1.884-3.158 2.678-4.519 4.059-6.966.444-.787 1.131-1.887 1.526-2.444.396-.557.719-1.201.719-1.431 0-.619.648-.508.902.154.244.637 75.493.887 76.489.255.376-.239.46-3.112.382-13.067l-.101-12.76-31.72-.191-31.721-.191 4.764-8.206c5.172-8.909 5.837-10.058 6.904-11.928.39-.682 1.506-2.585 2.481-4.23.975-1.644 1.773-3.073 1.773-3.175s.515-.935 1.145-1.85c.63-.916 1.145-1.744 1.145-1.84 0-.171 6.483-11.423 12.025-20.87.678-1.155 1.661-2.872 2.185-3.817s2.117-3.693 3.54-6.107 3.107-5.334 3.742-6.489c.636-1.154 1.565-2.754 2.066-3.555s1.245-2.046 1.653-2.767c1.463-2.582 2.203-3.854 4.76-8.181 1.426-2.414 2.836-4.862 3.133-5.439.535-1.042 1.247-1.414 1.247-.653 0 .218 1.31 2.665 2.911 5.439 1.6 2.773 3.3 5.729 3.777 6.569.477.839 1.767 3.072 2.866 4.961 1.1 1.89 2.518 4.38 3.151 5.535.634 1.154 1.469 2.555 1.857 3.112s.705 1.091.705 1.187c0 .095 2.085 3.761 4.632 8.147 2.548 4.385 4.984 8.618 5.415 9.405.881 1.613 1.414 1.746 2.871.713 1.071-.758 6.338-3.981 11.128-6.807 1.574-.929 3.807-2.282 4.962-3.007 1.154-.724 2.486-1.481 2.958-1.681 1.051-.445 1.086-1.406.095-2.672-.41-.525-.75-1.068-.755-1.208-.004-.139-1.496-2.801-3.316-5.916-1.819-3.114-4.589-7.895-6.156-10.624s-3.17-5.52-3.563-6.203c-.392-.682-1.048-1.83-1.456-2.551-.409-.721-1.153-1.966-1.654-2.767s-1.43-2.401-2.065-3.556c-.636-1.154-2.663-4.675-4.505-7.824s-3.866-6.67-4.498-7.824c-.632-1.155-1.282-2.271-1.443-2.481-.162-.21-.931-1.499-1.709-2.863-1.409-2.469-2.196-3.837-3.569-6.202-.396-.683-1.659-2.872-2.807-4.867-1.147-1.994-3.743-6.483-5.768-9.976s-3.682-6.628-3.682-6.966c0-.84-1.495-.795-1.758.053m3.576 4.4c2.525 4.522 3.535 6.289 5.719 10.008.74 1.26 1.666 2.849 2.057 3.531 1.533 2.674 3.932 6.816 9.671 16.698 2.683 4.619 5.309 9.17 5.837 10.115s1.819 3.177 2.869 4.962c2.043 3.471 2.876 4.917 4.395 7.633.529.945 1.336 2.319 1.794 3.054.458.734 1.265 2.109 1.794 3.053 2.725 4.872 9.296 16.186 10.468 18.026.498.783.906 1.58.906 1.771 0 .533-21.078 13.098-21.397 12.756-.376-.403-24.595-42.472-25.828-44.862-.297-.577-.773-1.05-1.057-1.05-.285 0-.76.473-1.056 1.05-.8 1.558-2.371 4.326-5.363 9.447-2.209 3.781-12.786 21.993-15.627 26.908-.425.735-1.2 2.109-1.724 3.053-.523.945-1.079 1.89-1.236 2.1-.295.395-9.281 15.865-10.974 18.893-.528.944-1.819 3.177-2.87 4.962-1.05 1.784-2.206 3.759-2.57 4.389-7.847 13.601-10.422 18.002-10.711 18.301-1.737 1.799-2.677 1.746 31.043 1.737 17.266-.005 31.608-.007 31.87-.004.372.003.477 2.742.477 12.409v12.404h-38.149c-35.866 0-38.171-.04-38.521-.665-.449-.802-.198-1.108-2.898 3.528-1.223 2.099-3.338 5.706-4.7 8.015s-2.772 4.714-3.133 5.344c-.361.629-1.476 2.519-2.478 4.198s-2.119 3.569-2.482 4.199c-.675 1.171-4.124 7.007-10.151 17.175-1.866 3.149-3.583 6.069-3.816 6.489-.887 1.601-2.077 3.635-5.695 9.733-2.055 3.463-4.046 6.844-4.424 7.513-.378.668-1.126 1.91-1.662 2.759-.536.85-.975 1.72-.975 1.934 0 .262 17.494.389 53.817.389h53.817v12.786 12.786h-75.359c-43.034 0-75.449-.144-75.567-.336-.171-.275 2.6-5.242 9.712-17.412.368-.629 1.655-2.862 2.86-4.961 3.508-6.114 3.271-5.703 11.258-19.466 3.411-5.878 6.634-11.451 7.161-12.385.528-.933 1.474-2.565 2.103-3.626.63-1.06 1.464-2.486 1.854-3.169.391-.682 1.035-1.798 1.431-2.48.396-.683 1.659-2.873 2.806-4.867 1.148-1.994 4.278-7.404 6.957-12.023 2.679-4.618 5.216-8.998 5.637-9.733 5.548-9.672 7.025-12.224 7.733-13.358.459-.735 1.267-2.109 1.795-3.054 2.264-4.047 2.692-4.791 2.963-5.152.157-.21.806-1.327 1.442-2.481.636-1.155 3.603-6.308 6.593-11.451s5.866-10.124 6.391-11.068c.524-.945 2.022-3.521 3.328-5.726 1.306-2.204 2.81-4.78 3.343-5.725 1.073-1.905 4.975-8.709 6.018-10.496 4.302-7.368 11.751-20.221 12.498-21.565 1.216-2.186 4.857-8.446 6.217-10.687.573-.945 1.472-2.49 1.996-3.435s4.091-7.128 7.927-13.74c3.835-6.613 7.57-13.054 8.3-14.313.73-1.26 1.847-3.235 2.481-4.39.635-1.154 1.471-2.555 1.859-3.112s.705-1.094.705-1.192.914-1.703 2.03-3.567c1.117-1.864 2.555-4.333 3.197-5.488.642-1.154 3.593-6.29 6.558-11.413s5.391-9.46 5.391-9.637c0-1.23 1.3.317 3.345 3.981m62.113 109.664c-.692.531-11.292 6.952-12.224 7.405-4.837 2.353-8.618 5.327-7.891 6.208.318.386 4.957 8.254 7.703 13.067.36.63 1.649 2.863 2.865 4.962 1.217 2.099 2.509 4.332 2.873 4.962s2.166 3.721 4.005 6.87c1.84 3.149 3.641 6.241 4.003 6.87.362.63 1.173 2.013 1.803 3.074.629 1.061 1.573 2.692 2.098 3.626 2.118 3.767 2.653 4.685 4.678 8.045 1.16 1.925 2.11 3.755 2.11 4.066 0 .497-2.511.532-20.531.285-17.851-.245-20.592-.208-20.998.281-.351.423-.442 3.619-.366 12.921l.101 12.359 28.465.098 28.466.098 2.423 4.1c1.333 2.256 3.961 6.677 5.841 9.826s3.715 6.24 4.079 6.87c.363.63 1.057 1.832 1.541 2.672.485.84 1.137 1.828 1.449 2.197.97 1.144.979 1.144-36.085 1.192l-36.179.046-.101 12.42c-.077 9.543.012 12.568.382 13.059.449.596 4.414.618 57.734.321 31.489-.175 57.381-.245 57.538-.155.676.386.201-1.394-.788-2.956-.591-.933-1.598-2.641-2.239-3.796-1.796-3.236-5.816-10.221-8.083-14.043-.659-1.112-1.199-2.077-1.199-2.145 0-.069-1.14-2.08-2.533-4.468-1.393-2.389-2.923-5.031-3.401-5.87-.477-.84-3.392-5.907-6.477-11.26s-6.04-10.506-6.567-11.45c-.527-.945-1.434-2.491-2.017-3.436-.582-.944-1.786-3.005-2.675-4.58-.888-1.574-1.962-3.463-2.385-4.198-.424-.735-1.158-2.023-1.631-2.863-.474-.839-1.76-3.072-2.858-4.962-1.098-1.889-2.387-4.122-2.863-4.961-.476-.84-1.764-3.073-2.862-4.962-2.06-3.544-2.913-5.021-4.135-7.157-.39-.682-1.705-2.958-2.921-5.057s-2.529-4.375-2.916-5.057c-1.535-2.701-2.175-3.805-3.375-5.821-.687-1.154-1.972-3.387-2.855-4.962-1.341-2.39-6.774-11.837-8.78-15.267-.307-.525-2.913-5.033-5.792-10.019-2.878-4.986-5.33-9.059-5.45-9.053-.119.007-.56.276-.98.598" fill="#77797a"/></g></svg>