
<svg id="svg" version="1.1" xmlns="http://www.w3.org/2000/svg" xmlns:xlink="http://www.w3.org/1999/xlink" width="400" height="400" viewBox="0, 0, 400,400"><g id="svgg"><path id="path0" d="M195.600 0.282 C 188.699 0.405,176.348 1.233,175.631 1.620 C 175.284 1.807,172.885 2.171,170.300 2.428 C 167.715 2.685,165.600 3.018,165.600 3.168 C 165.600 3.317,164.030 3.667,162.112 3.944 C 160.193 4.221,158.438 4.591,158.212 4.766 C 157.985 4.940,156.360 5.315,154.600 5.600 C 152.840 5.885,151.220 6.245,151.000 6.401 C 150.780 6.557,149.430 6.908,148.000 7.180 C 146.570 7.452,145.220 7.809,145.000 7.972 C 144.780 8.134,143.520 8.498,142.200 8.778 C 140.880 9.059,139.620 9.429,139.400 9.600 C 139.180 9.771,137.965 10.140,136.700 10.419 C 135.435 10.699,134.400 11.059,134.400 11.219 C 134.400 11.380,133.725 11.637,132.900 11.792 C 132.075 11.946,130.645 12.416,129.722 12.836 C 128.799 13.256,127.853 13.600,127.620 13.600 C 127.388 13.600,126.526 13.960,125.706 14.399 C 124.886 14.839,123.626 15.309,122.907 15.444 C 122.188 15.579,121.600 15.829,121.600 16.000 C 121.600 16.172,120.790 16.551,119.800 16.843 C 118.810 17.135,118.000 17.487,118.000 17.624 C 118.000 17.761,117.280 18.089,116.400 18.353 C 115.520 18.616,114.800 18.976,114.800 19.153 C 114.800 19.329,114.080 19.689,113.200 19.953 C 112.320 20.216,111.600 20.576,111.600 20.753 C 111.600 20.929,110.880 21.289,110.000 21.553 C 109.120 21.816,108.400 22.191,108.400 22.384 C 108.400 22.578,107.858 22.855,107.196 23.001 C 106.534 23.146,105.765 23.476,105.487 23.733 C 105.209 23.990,103.592 24.920,101.894 25.800 C 100.196 26.680,98.805 27.535,98.803 27.700 C 98.802 27.865,98.558 28.000,98.261 28.000 C 97.965 28.000,97.307 28.360,96.800 28.800 C 96.293 29.240,95.740 29.600,95.572 29.600 C 95.026 29.600,86.423 35.319,82.785 38.100 C 81.706 38.925,80.698 39.600,80.545 39.600 C 80.392 39.600,79.982 39.867,79.634 40.192 C 78.017 41.704,76.658 42.800,76.401 42.800 C 76.246 42.800,75.580 43.295,74.922 43.900 C 72.835 45.819,71.127 47.200,70.842 47.200 C 70.691 47.200,69.943 47.875,69.180 48.700 C 68.417 49.525,67.345 50.492,66.797 50.848 C 65.499 51.692,51.692 65.499,50.848 66.797 C 50.492 67.345,49.525 68.417,48.700 69.180 C 47.875 69.943,47.200 70.691,47.200 70.842 C 47.200 71.127,45.819 72.835,43.900 74.922 C 43.295 75.580,42.800 76.246,42.800 76.401 C 42.800 76.658,41.704 78.017,40.192 79.634 C 39.867 79.982,39.600 80.455,39.600 80.685 C 39.600 80.914,39.336 81.321,39.014 81.588 C 38.489 82.024,36.600 84.636,34.710 87.540 C 34.331 88.123,33.832 88.870,33.601 89.200 C 32.053 91.416,29.600 95.325,29.600 95.576 C 29.600 95.742,29.240 96.293,28.800 96.800 C 28.360 97.307,28.000 97.965,28.000 98.261 C 28.000 98.558,27.809 98.800,27.576 98.800 C 27.343 98.800,27.264 98.980,27.400 99.200 C 27.536 99.420,27.502 99.600,27.324 99.601 C 27.146 99.601,26.370 100.810,25.600 102.288 C 24.830 103.766,23.990 105.204,23.733 105.484 C 23.476 105.763,23.146 106.534,23.001 107.196 C 22.855 107.858,22.578 108.400,22.384 108.400 C 22.191 108.400,21.816 109.120,21.553 110.000 C 21.289 110.880,20.929 111.600,20.753 111.600 C 20.576 111.600,20.216 112.320,19.953 113.200 C 19.689 114.080,19.329 114.800,19.153 114.800 C 18.976 114.800,18.616 115.520,18.353 116.400 C 18.089 117.280,17.761 118.000,17.624 118.000 C 17.487 118.000,17.135 118.810,16.843 119.800 C 16.551 120.790,16.172 121.600,16.000 121.600 C 15.829 121.600,15.579 122.188,15.444 122.907 C 15.309 123.626,14.839 124.886,14.399 125.706 C 13.960 126.526,13.600 127.388,13.600 127.620 C 13.600 127.853,13.256 128.799,12.836 129.722 C 12.416 130.645,11.946 132.075,11.792 132.900 C 11.637 133.725,11.380 134.400,11.219 134.400 C 11.059 134.400,10.699 135.435,10.419 136.700 C 10.140 137.965,9.771 139.180,9.600 139.400 C 9.429 139.620,9.059 140.880,8.778 142.200 C 8.498 143.520,8.134 144.780,7.972 145.000 C 7.809 145.220,7.452 146.570,7.180 148.000 C 6.908 149.430,6.552 150.780,6.388 151.000 C 6.225 151.220,5.870 152.750,5.600 154.400 C 5.330 156.050,4.968 157.580,4.796 157.800 C 4.625 158.020,4.251 159.865,3.966 161.900 C 3.680 163.935,3.323 165.600,3.171 165.600 C 3.020 165.600,2.678 167.715,2.411 170.300 C 2.145 172.885,1.774 175.360,1.586 175.800 C 0.945 177.300,0.366 188.791,0.366 200.000 C 0.366 211.209,0.945 222.700,1.586 224.200 C 1.774 224.640,2.145 227.115,2.411 229.700 C 2.678 232.285,3.020 234.400,3.171 234.400 C 3.323 234.400,3.680 236.065,3.966 238.100 C 4.251 240.135,4.625 241.980,4.796 242.200 C 4.968 242.420,5.330 243.950,5.600 245.600 C 5.870 247.250,6.225 248.780,6.388 249.000 C 6.552 249.220,6.908 250.570,7.180 252.000 C 7.452 253.430,7.809 254.780,7.972 255.000 C 8.134 255.220,8.498 256.480,8.778 257.800 C 9.059 259.120,9.429 260.380,9.600 260.600 C 9.771 260.820,10.140 262.035,10.419 263.300 C 10.699 264.565,11.059 265.600,11.219 265.600 C 11.380 265.600,11.637 266.275,11.792 267.100 C 11.946 267.925,12.416 269.355,12.836 270.278 C 13.256 271.201,13.600 272.147,13.600 272.380 C 13.600 272.612,13.960 273.474,14.399 274.294 C 14.839 275.114,15.309 276.374,15.444 277.093 C 15.579 277.812,15.829 278.400,16.000 278.400 C 16.172 278.400,16.551 279.210,16.843 280.200 C 17.135 281.190,17.487 282.000,17.624 282.000 C 17.761 282.000,18.089 282.720,18.353 283.600 C 18.616 284.480,18.976 285.200,19.153 285.200 C 19.329 285.200,19.689 285.920,19.953 286.800 C 20.216 287.680,20.576 288.400,20.753 288.400 C 20.929 288.400,21.289 289.120,21.553 290.000 C 21.816 290.880,22.191 291.600,22.384 291.600 C 22.578 291.600,22.855 292.142,23.001 292.804 C 23.146 293.466,23.476 294.239,23.733 294.521 C 23.990 294.802,24.905 296.376,25.768 298.016 C 26.630 299.657,27.443 301.090,27.576 301.200 C 27.708 301.310,28.036 301.850,28.305 302.400 C 28.574 302.950,29.020 303.754,29.297 304.186 C 33.406 310.610,35.995 314.480,37.620 316.627 C 38.709 318.065,39.600 319.353,39.600 319.488 C 39.600 319.623,39.874 320.018,40.209 320.366 C 40.544 320.715,41.362 321.720,42.025 322.600 C 43.483 324.532,45.544 327.047,46.500 328.059 C 46.885 328.466,47.200 328.942,47.200 329.116 C 47.200 329.291,47.875 330.057,48.700 330.820 C 49.525 331.583,50.492 332.655,50.848 333.203 C 51.692 334.501,65.499 348.308,66.797 349.152 C 67.345 349.508,68.417 350.475,69.180 351.300 C 69.943 352.125,70.691 352.800,70.842 352.800 C 71.127 352.800,72.835 354.181,74.922 356.100 C 75.580 356.705,76.246 357.200,76.401 357.200 C 76.658 357.200,78.017 358.296,79.634 359.808 C 79.982 360.133,80.402 360.400,80.566 360.400 C 80.731 360.400,81.616 360.995,82.533 361.723 C 83.450 362.450,84.650 363.349,85.200 363.722 C 91.686 368.110,95.248 370.400,95.588 370.400 C 95.814 370.400,96.000 370.568,96.000 370.774 C 96.000 370.980,96.630 371.376,97.400 371.654 C 98.170 371.933,98.800 372.261,98.800 372.384 C 98.800 372.506,100.187 373.325,101.883 374.203 C 103.579 375.082,105.197 376.010,105.479 376.267 C 105.761 376.524,106.534 376.854,107.196 376.999 C 107.858 377.145,108.400 377.422,108.400 377.616 C 108.400 377.809,109.120 378.184,110.000 378.447 C 110.880 378.711,111.600 379.071,111.600 379.247 C 111.600 379.424,112.320 379.784,113.200 380.047 C 114.080 380.311,114.800 380.671,114.800 380.847 C 114.800 381.024,115.520 381.384,116.400 381.647 C 117.280 381.911,118.000 382.239,118.000 382.376 C 118.000 382.513,118.810 382.865,119.800 383.157 C 120.790 383.449,121.600 383.828,121.600 384.000 C 121.600 384.171,122.188 384.421,122.907 384.556 C 123.626 384.691,124.886 385.161,125.706 385.601 C 126.526 386.040,127.388 386.400,127.620 386.400 C 127.853 386.400,128.799 386.744,129.722 387.164 C 130.645 387.584,132.075 388.054,132.900 388.208 C 133.725 388.363,134.400 388.624,134.400 388.790 C 134.400 388.955,135.480 389.320,136.800 389.600 C 138.120 389.880,139.200 390.232,139.200 390.381 C 139.200 390.531,140.415 390.890,141.900 391.179 C 143.385 391.468,144.780 391.844,145.000 392.015 C 145.220 392.185,146.570 392.548,148.000 392.820 C 149.430 393.092,150.780 393.448,151.000 393.612 C 151.220 393.775,152.750 394.130,154.400 394.400 C 156.050 394.670,157.580 395.032,157.800 395.204 C 158.020 395.375,159.865 395.749,161.900 396.034 C 163.935 396.320,165.600 396.677,165.600 396.829 C 165.600 396.980,167.715 397.322,170.300 397.589 C 172.885 397.855,175.360 398.226,175.800 398.414 C 179.418 399.960,223.724 399.960,224.800 398.415 C 224.910 398.257,227.205 397.892,229.900 397.604 C 232.595 397.316,234.800 396.962,234.800 396.817 C 234.800 396.672,236.465 396.320,238.500 396.034 C 240.535 395.749,242.380 395.373,242.600 395.199 C 242.820 395.025,244.395 394.659,246.100 394.386 C 247.805 394.113,249.200 393.760,249.200 393.600 C 249.200 393.440,250.547 393.092,252.194 392.827 C 253.840 392.561,255.278 392.197,255.389 392.018 C 255.499 391.839,256.762 391.471,258.195 391.201 C 259.628 390.931,260.800 390.574,260.800 390.409 C 260.800 390.244,261.880 389.880,263.200 389.600 C 264.520 389.320,265.600 388.960,265.600 388.800 C 265.600 388.640,266.680 388.280,268.000 388.000 C 269.320 387.720,270.400 387.348,270.400 387.174 C 270.400 387.000,271.390 386.636,272.600 386.365 C 273.810 386.094,274.800 385.724,274.800 385.542 C 274.800 385.360,275.610 385.008,276.600 384.758 C 277.590 384.509,278.400 384.168,278.400 384.000 C 278.400 383.832,279.210 383.491,280.200 383.242 C 281.190 382.992,282.000 382.640,282.000 382.458 C 282.000 382.276,282.720 381.911,283.600 381.647 C 284.480 381.384,285.200 381.009,285.200 380.816 C 285.200 380.622,285.759 380.341,286.442 380.191 C 287.893 379.872,291.600 378.015,291.600 377.607 C 291.600 377.453,292.320 377.111,293.200 376.847 C 294.080 376.584,294.800 376.195,294.800 375.984 C 294.800 375.773,294.998 375.600,295.240 375.600 C 295.870 375.600,298.505 374.323,299.129 373.715 C 299.419 373.432,299.920 373.200,300.241 373.200 C 300.562 373.200,300.924 372.941,301.046 372.624 C 301.167 372.308,301.804 371.931,302.460 371.787 C 303.117 371.643,303.751 371.272,303.870 370.962 C 303.988 370.653,304.291 370.397,304.543 370.393 C 304.934 370.386,307.743 368.689,309.000 367.700 C 309.220 367.527,310.300 366.802,311.400 366.090 C 312.500 365.377,313.735 364.571,314.145 364.297 C 315.435 363.436,317.774 361.643,318.434 361.009 C 318.782 360.674,319.237 360.400,319.445 360.400 C 319.652 360.400,320.115 360.085,320.472 359.700 C 320.830 359.315,321.787 358.550,322.600 358.000 C 323.412 357.450,324.452 356.595,324.911 356.100 C 325.369 355.605,325.898 355.200,326.086 355.200 C 326.273 355.200,326.955 354.660,327.600 354.000 C 328.245 353.340,328.922 352.800,329.103 352.800 C 329.284 352.800,330.095 352.080,330.904 351.200 C 331.713 350.320,332.540 349.600,332.742 349.600 C 333.221 349.600,349.600 333.221,349.600 332.742 C 349.600 332.540,350.320 331.713,351.200 330.904 C 352.080 330.095,352.800 329.284,352.800 329.103 C 352.800 328.922,353.340 328.245,354.000 327.600 C 354.660 326.955,355.200 326.245,355.200 326.023 C 355.200 325.800,355.650 325.324,356.200 324.963 C 356.750 324.603,357.200 324.130,357.200 323.912 C 357.200 323.532,358.547 321.697,359.802 320.366 C 360.131 320.018,360.400 319.583,360.400 319.400 C 360.400 319.217,360.674 318.782,361.009 318.434 C 361.643 317.774,363.436 315.435,364.297 314.145 C 364.571 313.735,365.377 312.500,366.090 311.400 C 366.802 310.300,367.527 309.220,367.700 309.000 C 368.689 307.743,370.386 304.934,370.393 304.543 C 370.397 304.291,370.653 303.988,370.962 303.870 C 371.272 303.751,371.643 303.117,371.787 302.460 C 371.931 301.804,372.308 301.167,372.624 301.046 C 372.941 300.924,373.200 300.562,373.200 300.241 C 373.200 299.920,373.432 299.419,373.715 299.129 C 374.323 298.505,375.600 295.870,375.600 295.240 C 375.600 294.998,375.773 294.800,375.984 294.800 C 376.195 294.800,376.584 294.080,376.847 293.200 C 377.111 292.320,377.453 291.600,377.607 291.600 C 378.015 291.600,379.872 287.893,380.191 286.442 C 380.341 285.759,380.622 285.200,380.816 285.200 C 381.009 285.200,381.384 284.480,381.647 283.600 C 381.911 282.720,382.276 282.000,382.458 282.000 C 382.640 282.000,382.992 281.190,383.242 280.200 C 383.491 279.210,383.832 278.400,384.000 278.400 C 384.168 278.400,384.509 277.590,384.758 276.600 C 385.008 275.610,385.360 274.800,385.542 274.800 C 385.724 274.800,386.094 273.810,386.365 272.600 C 386.636 271.390,387.000 270.400,387.174 270.400 C 387.348 270.400,387.720 269.320,388.000 268.000 C 388.280 266.680,388.640 265.600,388.800 265.600 C 388.960 265.600,389.320 264.520,389.600 263.200 C 389.880 261.880,390.244 260.800,390.409 260.800 C 390.574 260.800,390.931 259.628,391.201 258.195 C 391.471 256.762,391.839 255.499,392.018 255.389 C 392.197 255.278,392.561 253.840,392.827 252.194 C 393.092 250.547,393.440 249.200,393.600 249.200 C 393.760 249.200,394.113 247.805,394.386 246.100 C 394.659 244.395,395.025 242.820,395.199 242.600 C 395.373 242.380,395.749 240.535,396.034 238.500 C 396.320 236.465,396.672 234.800,396.817 234.800 C 396.962 234.800,397.316 232.595,397.604 229.900 C 397.892 227.205,398.257 224.910,398.415 224.800 C 399.949 223.732,399.951 177.425,398.417 175.400 C 398.250 175.180,397.881 172.795,397.597 170.100 C 397.313 167.405,396.959 165.200,396.811 165.200 C 396.663 165.200,396.308 163.490,396.021 161.400 C 395.734 159.310,395.371 157.600,395.214 157.600 C 395.057 157.600,394.701 156.070,394.423 154.200 C 394.145 152.330,393.780 150.800,393.613 150.800 C 393.446 150.800,393.092 149.453,392.827 147.806 C 392.561 146.160,392.197 144.722,392.018 144.611 C 391.839 144.501,391.471 143.238,391.201 141.805 C 390.931 140.372,390.574 139.200,390.409 139.200 C 390.244 139.200,389.880 138.120,389.600 136.800 C 389.320 135.480,388.960 134.400,388.800 134.400 C 388.640 134.400,388.280 133.320,388.000 132.000 C 387.720 130.680,387.353 129.600,387.185 129.600 C 387.017 129.600,386.654 128.659,386.378 127.510 C 386.103 126.360,385.642 125.185,385.354 124.897 C 385.067 124.610,384.714 123.750,384.571 122.987 C 384.428 122.224,384.174 121.600,384.007 121.600 C 383.841 121.600,383.477 120.790,383.200 119.800 C 382.923 118.810,382.568 118.000,382.411 118.000 C 382.255 118.000,381.911 117.280,381.647 116.400 C 381.384 115.520,380.995 114.800,380.784 114.800 C 380.573 114.800,380.398 114.575,380.396 114.300 C 380.394 114.025,379.950 112.900,379.409 111.800 C 378.868 110.700,378.419 109.584,378.413 109.320 C 378.406 109.056,378.155 108.696,377.857 108.520 C 377.558 108.344,377.094 107.525,376.826 106.700 C 376.557 105.875,376.191 105.200,376.012 105.200 C 375.833 105.200,375.565 104.716,375.417 104.124 C 375.268 103.533,374.803 102.566,374.383 101.977 C 373.963 101.387,373.440 100.431,373.220 99.852 C 373.000 99.274,372.650 98.800,372.442 98.800 C 372.234 98.800,371.942 98.248,371.794 97.573 C 371.646 96.898,371.272 96.249,370.962 96.130 C 370.653 96.012,370.397 95.709,370.393 95.457 C 370.386 95.066,368.689 92.257,367.700 91.000 C 367.527 90.780,366.802 89.700,366.090 88.600 C 365.377 87.500,364.571 86.265,364.297 85.855 C 363.436 84.565,361.643 82.226,361.009 81.566 C 360.674 81.218,360.400 80.763,360.400 80.555 C 360.400 80.348,360.085 79.885,359.700 79.528 C 359.315 79.170,358.550 78.213,358.000 77.400 C 357.450 76.588,356.595 75.548,356.100 75.089 C 355.605 74.631,355.200 74.102,355.200 73.914 C 355.200 73.727,354.660 73.045,354.000 72.400 C 353.340 71.755,352.800 71.078,352.800 70.897 C 352.800 70.716,352.080 69.905,351.200 69.096 C 350.320 68.287,349.600 67.462,349.600 67.263 C 349.600 66.790,333.210 50.400,332.737 50.400 C 332.538 50.400,331.713 49.680,330.904 48.800 C 330.095 47.920,329.284 47.200,329.103 47.200 C 328.922 47.200,328.245 46.660,327.600 46.000 C 326.955 45.340,326.273 44.800,326.086 44.800 C 325.898 44.800,325.369 44.395,324.911 43.900 C 324.452 43.405,323.412 42.550,322.600 42.000 C 321.787 41.450,320.830 40.685,320.472 40.300 C 320.115 39.915,319.652 39.600,319.445 39.600 C 319.237 39.600,318.782 39.326,318.434 38.991 C 317.774 38.357,315.435 36.564,314.145 35.703 C 313.735 35.429,312.500 34.623,311.400 33.910 C 310.300 33.198,309.220 32.473,309.000 32.300 C 307.743 31.311,304.934 29.614,304.543 29.607 C 304.291 29.603,303.988 29.347,303.870 29.038 C 303.751 28.728,303.102 28.354,302.427 28.206 C 301.752 28.058,301.200 27.773,301.200 27.574 C 301.200 27.374,300.532 26.931,299.715 26.590 C 298.898 26.249,297.953 25.720,297.615 25.416 C 297.277 25.111,296.505 24.739,295.900 24.588 C 295.295 24.437,294.800 24.167,294.800 23.988 C 294.800 23.809,294.125 23.443,293.300 23.174 C 292.475 22.906,291.656 22.442,291.480 22.143 C 291.304 21.845,290.944 21.594,290.680 21.587 C 290.416 21.581,289.300 21.132,288.200 20.591 C 287.100 20.050,285.975 19.606,285.700 19.604 C 285.425 19.602,285.200 19.427,285.200 19.216 C 285.200 19.005,284.480 18.616,283.600 18.353 C 282.720 18.089,282.000 17.745,282.000 17.589 C 282.000 17.432,281.190 17.077,280.200 16.800 C 279.210 16.523,278.400 16.159,278.400 15.993 C 278.400 15.826,277.776 15.572,277.013 15.429 C 276.250 15.286,275.390 14.933,275.103 14.646 C 274.815 14.358,273.640 13.897,272.490 13.622 C 271.341 13.346,270.400 12.983,270.400 12.815 C 270.400 12.647,269.320 12.280,268.000 12.000 C 266.680 11.720,265.600 11.360,265.600 11.200 C 265.600 11.040,264.520 10.680,263.200 10.400 C 261.880 10.120,260.800 9.756,260.800 9.591 C 260.800 9.426,259.628 9.069,258.195 8.799 C 256.762 8.529,255.499 8.161,255.389 7.982 C 255.278 7.803,253.840 7.439,252.194 7.173 C 250.547 6.908,249.200 6.554,249.200 6.387 C 249.200 6.220,247.670 5.855,245.800 5.577 C 243.930 5.299,242.400 4.943,242.400 4.786 C 242.400 4.629,240.690 4.266,238.600 3.979 C 236.510 3.692,234.800 3.337,234.800 3.189 C 234.800 3.041,232.595 2.684,229.900 2.396 C 227.205 2.108,224.910 1.740,224.800 1.577 C 224.379 0.955,205.297 0.109,195.600 0.282 M212.800 27.398 C 229.411 28.548,240.520 30.741,254.800 35.686 C 256.670 36.334,258.920 37.103,259.800 37.396 C 261.460 37.948,263.402 38.741,266.278 40.041 C 267.201 40.459,268.081 40.800,268.234 40.800 C 269.288 40.800,287.268 50.185,291.600 52.996 C 292.370 53.496,294.285 54.729,295.855 55.737 C 298.857 57.664,307.447 64.006,309.269 65.641 C 309.856 66.168,311.015 67.140,311.843 67.800 C 315.561 70.762,326.849 81.993,331.607 87.462 C 334.373 90.642,337.488 94.481,339.000 96.574 C 339.440 97.183,340.354 98.428,341.031 99.340 C 342.110 100.795,345.278 105.538,346.690 107.811 C 349.938 113.042,355.216 122.910,357.755 128.500 C 358.330 129.765,359.250 131.779,359.800 132.975 C 360.350 134.172,360.801 135.297,360.802 135.475 C 360.804 135.654,361.038 136.250,361.322 136.800 C 361.606 137.350,362.432 139.510,363.158 141.600 C 363.884 143.690,364.625 145.760,364.804 146.200 C 365.364 147.568,367.116 153.330,367.416 154.787 C 367.573 155.550,367.853 156.450,368.037 156.787 C 368.652 157.909,370.153 165.703,371.584 175.200 C 373.496 187.896,373.496 212.104,371.584 224.800 C 370.196 234.008,368.661 242.041,368.029 243.400 C 367.825 243.840,367.437 245.190,367.167 246.400 C 366.897 247.610,366.543 248.870,366.381 249.200 C 366.218 249.530,365.514 251.600,364.816 253.800 C 364.118 256.000,363.387 258.160,363.192 258.600 C 362.996 259.040,362.255 260.930,361.544 262.800 C 360.832 264.670,360.014 266.555,359.725 266.989 C 359.436 267.423,359.200 268.010,359.200 268.294 C 359.200 268.824,354.540 278.410,351.857 283.400 C 349.193 288.353,346.977 292.002,343.719 296.800 C 340.306 301.827,339.888 302.401,336.427 306.820 C 327.737 317.915,312.171 332.986,302.151 340.005 C 301.683 340.332,300.156 341.410,298.755 342.400 C 295.700 344.560,289.545 348.491,287.600 349.524 C 286.830 349.933,284.850 351.017,283.200 351.932 C 280.139 353.630,273.481 356.945,270.600 358.206 C 269.720 358.591,268.280 359.229,267.400 359.623 C 263.163 361.520,252.784 365.369,250.703 365.814 C 249.986 365.967,249.220 366.232,249.000 366.402 C 248.780 366.572,247.520 366.941,246.200 367.222 C 244.880 367.502,243.620 367.867,243.400 368.031 C 243.180 368.195,241.830 368.534,240.400 368.784 C 238.970 369.034,237.260 369.407,236.600 369.612 C 235.940 369.817,233.510 370.271,231.200 370.620 C 228.890 370.969,226.010 371.408,224.800 371.597 C 212.646 373.487,187.790 373.481,175.200 371.584 C 165.889 370.181,158.173 368.697,156.600 368.008 C 156.160 367.815,154.810 367.441,153.600 367.176 C 152.390 366.912,151.220 366.560,151.000 366.394 C 150.780 366.228,150.014 365.967,149.297 365.814 C 147.157 365.356,136.672 361.458,132.500 359.570 C 131.565 359.146,129.945 358.418,128.900 357.951 C 119.342 353.681,107.961 347.245,100.600 341.946 C 95.257 338.100,90.400 334.284,90.400 333.933 C 90.400 333.750,90.196 333.600,89.946 333.600 C 88.980 333.600,76.628 321.716,69.970 314.379 C 62.783 306.461,55.463 296.357,50.297 287.226 C 47.056 281.499,43.702 274.917,41.314 269.600 C 40.870 268.610,40.212 267.143,39.853 266.340 C 39.494 265.536,39.199 264.726,39.198 264.540 C 39.196 264.353,38.962 263.750,38.678 263.200 C 38.394 262.650,37.568 260.490,36.842 258.400 C 36.116 256.310,35.355 254.240,35.150 253.800 C 34.944 253.360,34.492 252.010,34.144 250.800 C 32.389 244.696,32.106 243.755,31.859 243.200 C 31.560 242.527,30.635 237.923,29.769 232.800 C 29.453 230.930,29.029 228.680,28.826 227.800 C 28.623 226.920,28.262 223.860,28.024 221.000 C 27.786 218.140,27.396 214.090,27.157 212.000 C 26.366 205.083,27.126 183.183,28.433 175.200 C 30.404 163.160,31.079 159.679,32.119 156.187 C 34.393 148.549,34.899 146.910,35.202 146.200 C 35.390 145.760,35.760 144.680,36.024 143.800 C 36.288 142.920,36.636 142.020,36.797 141.800 C 36.958 141.580,37.218 140.866,37.374 140.214 C 37.530 139.562,38.005 138.266,38.429 137.336 C 38.853 136.405,39.200 135.519,39.200 135.366 C 39.200 135.058,39.478 134.452,43.591 125.800 C 47.839 116.864,54.478 105.380,58.600 99.840 C 59.480 98.657,60.560 97.186,61.000 96.571 C 61.679 95.622,64.120 92.549,65.899 90.402 C 70.788 84.500,82.766 72.272,87.600 68.245 C 88.810 67.238,90.139 66.116,90.553 65.753 C 93.289 63.357,104.134 55.541,107.806 53.319 C 115.492 48.670,126.547 42.961,133.600 39.999 C 135.250 39.306,137.140 38.497,137.800 38.200 C 138.460 37.904,139.540 37.533,140.200 37.376 C 140.860 37.218,141.580 36.962,141.800 36.805 C 142.157 36.551,150.157 33.947,155.987 32.187 C 158.819 31.332,162.722 30.504,168.200 29.594 C 170.620 29.192,173.680 28.679,175.000 28.454 C 176.320 28.228,179.991 27.858,183.158 27.630 C 186.325 27.403,189.010 27.123,189.125 27.008 C 189.555 26.578,204.520 26.824,212.800 27.398 M179.373 93.900 C 179.504 94.505,179.874 96.800,180.196 99.000 C 180.767 102.903,181.516 107.547,183.180 117.500 C 185.576 131.825,187.033 140.691,187.960 146.600 C 189.155 154.206,189.983 159.165,190.600 162.400 C 190.914 164.050,191.281 166.300,191.414 167.400 C 191.547 168.500,191.930 170.698,192.265 172.285 C 192.812 174.879,192.811 175.484,192.251 178.285 C 191.546 181.812,190.606 187.509,189.758 193.400 C 189.441 195.600,189.080 197.729,188.954 198.131 C 188.829 198.533,188.389 201.053,187.976 203.731 C 187.240 208.503,186.424 213.497,184.777 223.300 C 184.324 225.995,183.699 230.000,183.387 232.200 C 183.076 234.400,182.718 236.560,182.592 237.000 C 182.466 237.440,182.017 239.960,181.594 242.600 C 180.661 248.424,178.901 259.055,176.777 271.700 C 176.324 274.395,175.699 278.400,175.387 280.600 C 175.076 282.800,174.716 284.960,174.587 285.400 C 174.376 286.121,173.804 289.602,172.266 299.509 C 171.642 303.531,171.283 303.200,176.267 303.200 C 181.133 303.200,180.839 302.654,179.600 309.400 C 179.160 311.795,178.800 313.900,178.800 314.077 C 178.800 314.255,193.110 314.400,210.600 314.400 C 228.090 314.400,242.399 314.265,242.397 314.100 C 242.392 313.626,241.648 308.817,241.205 306.400 C 240.983 305.190,239.901 298.620,238.801 291.800 C 237.700 284.980,236.541 277.960,236.226 276.200 C 235.910 274.440,235.538 272.190,235.400 271.200 C 235.262 270.210,234.889 267.960,234.572 266.200 C 234.256 264.440,232.465 253.640,230.593 242.200 C 228.721 230.760,226.932 219.960,226.616 218.200 C 226.300 216.440,225.571 211.940,224.994 208.200 C 224.418 204.460,223.698 200.050,223.395 198.400 C 221.241 186.668,221.241 186.169,223.393 174.400 C 223.694 172.750,224.407 168.430,224.977 164.800 C 225.547 161.170,226.278 156.670,226.602 154.800 C 227.164 151.551,227.428 149.946,229.202 139.000 C 229.629 136.360,231.117 127.393,232.509 119.074 C 233.900 110.754,234.898 103.860,234.726 103.754 C 234.554 103.648,232.512 103.592,230.188 103.629 C 227.864 103.666,225.889 103.622,225.798 103.532 C 225.598 103.331,226.685 95.909,227.180 94.100 L 227.536 92.800 203.336 92.800 L 179.136 92.800 179.373 93.900 " stroke="none" fill="#4d47d9" fill-rule="evenodd"></path><path id="path1" d="M189.400 27.580 C 167.236 29.145,154.510 32.133,132.600 40.915 C 119.115 46.320,97.066 60.146,86.800 69.635 C 86.030 70.347,83.730 72.463,81.689 74.338 C 75.213 80.286,65.921 90.767,59.824 99.000 C 54.639 106.003,44.022 124.869,40.916 132.600 C 37.672 140.675,35.844 145.888,32.738 155.930 C 32.048 158.161,30.512 165.267,30.216 167.600 C 30.062 168.810,29.777 170.430,29.582 171.200 C 28.372 175.992,27.050 195.686,27.359 204.346 C 27.613 211.500,28.962 226.320,29.585 228.800 C 29.778 229.570,30.062 231.190,30.216 232.400 C 30.507 234.697,32.033 241.775,32.731 244.070 C 35.232 252.293,37.466 258.785,39.656 264.200 C 40.101 265.300,40.675 266.729,40.933 267.375 C 48.581 286.605,65.307 310.531,81.642 325.608 C 83.901 327.693,86.212 329.829,86.775 330.352 C 90.433 333.752,100.386 341.328,105.593 344.676 C 111.622 348.553,129.848 358.400,130.995 358.400 C 131.132 358.400,131.999 358.737,132.922 359.148 C 133.845 359.560,135.860 360.378,137.400 360.967 C 138.940 361.556,140.830 362.293,141.600 362.603 C 142.932 363.141,152.566 366.258,156.400 367.391 C 162.147 369.090,168.251 370.119,184.000 372.043 C 189.580 372.725,210.420 372.725,216.000 372.043 C 231.741 370.120,237.829 369.094,243.600 367.392 C 252.152 364.871,263.060 361.028,267.460 358.985 C 268.154 358.663,268.843 358.400,268.992 358.400 C 269.565 358.400,282.292 351.853,286.930 349.173 C 300.734 341.193,309.927 334.070,321.999 321.999 C 336.640 307.357,345.690 294.748,355.085 275.899 C 360.840 264.355,366.458 248.758,368.738 238.000 C 372.811 218.775,373.698 199.010,371.412 178.400 C 368.449 151.679,358.136 125.123,341.044 100.200 C 332.987 88.452,318.233 73.162,304.870 62.710 C 295.906 55.700,277.513 45.006,267.391 40.919 C 253.164 35.175,239.848 31.096,232.400 30.201 C 231.190 30.055,229.570 29.778,228.800 29.584 C 222.954 28.111,199.073 26.897,189.400 27.580 M227.593 93.300 C 227.584 94.401,226.584 100.984,226.195 102.500 L 225.913 103.600 230.557 103.600 C 235.965 103.600,235.595 103.103,234.572 109.000 C 234.229 110.980,233.612 114.670,233.202 117.200 C 232.792 119.730,232.095 123.960,231.652 126.600 C 231.209 129.240,230.470 133.650,230.009 136.400 C 229.548 139.150,228.904 143.200,228.577 145.400 C 228.250 147.600,227.890 149.696,227.778 150.057 C 227.665 150.419,227.211 153.029,226.768 155.857 C 225.858 161.664,224.779 168.335,223.606 175.400 C 221.611 187.419,221.612 185.545,223.597 197.400 C 224.039 200.040,224.746 204.450,225.168 207.200 C 225.589 209.950,226.111 213.010,226.327 214.000 C 226.543 214.990,226.840 216.880,226.987 218.200 C 227.134 219.520,227.416 221.230,227.615 222.000 C 227.813 222.770,228.248 225.200,228.580 227.400 C 229.164 231.272,229.947 236.088,231.585 245.900 C 232.016 248.485,232.723 252.850,233.156 255.600 C 233.588 258.350,234.117 261.410,234.331 262.400 C 234.545 263.390,234.840 265.280,234.987 266.600 C 235.134 267.920,235.416 269.630,235.615 270.400 C 235.813 271.170,236.248 273.600,236.580 275.800 C 237.164 279.672,238.023 285.091,239.369 293.400 C 239.726 295.600,240.276 298.750,240.591 300.400 C 240.907 302.050,241.358 304.840,241.595 306.600 C 241.831 308.360,242.195 310.520,242.403 311.400 C 243.191 314.736,246.754 314.400,210.553 314.400 L 178.307 314.400 178.557 313.300 C 178.903 311.782,179.972 304.757,179.987 303.900 C 179.999 303.275,179.529 303.200,175.600 303.200 C 170.519 303.200,170.800 303.533,171.786 298.683 C 172.109 297.097,172.654 294.000,172.997 291.800 C 174.902 279.586,175.718 274.571,177.000 267.200 C 178.104 260.854,178.859 256.211,179.407 252.392 C 179.708 250.298,180.053 248.318,180.173 247.992 C 180.293 247.666,180.657 245.600,180.981 243.400 C 181.743 238.239,183.659 226.509,185.000 218.800 C 186.118 212.372,186.861 207.792,187.434 203.803 C 187.749 201.605,188.090 199.535,188.190 199.203 C 188.291 198.871,188.757 196.170,189.227 193.200 C 189.696 190.230,190.435 185.730,190.868 183.200 C 192.000 176.588,192.149 174.382,191.624 171.952 C 191.368 170.768,190.902 168.090,190.587 166.000 C 190.273 163.910,189.655 160.040,189.213 157.400 C 188.772 154.760,188.061 150.350,187.635 147.600 C 187.208 144.850,186.567 140.890,186.210 138.800 C 184.571 129.208,183.557 123.144,182.395 116.000 C 181.983 113.470,181.270 109.150,180.809 106.400 C 179.660 99.543,178.817 93.939,178.808 93.100 C 178.800 92.441,180.226 92.400,203.200 92.400 L 227.600 92.400 227.593 93.300 " stroke="none" fill="#fbfbfb" fill-rule="evenodd"></path><path id="path2" d="M189.000 27.200 C 187.091 27.462,187.072 27.476,188.600 27.502 C 189.480 27.517,191.100 27.390,192.200 27.218 C 194.899 26.798,192.050 26.782,189.000 27.200 M198.100 27.094 C 199.145 27.176,200.855 27.176,201.900 27.094 C 202.945 27.012,202.090 26.944,200.000 26.944 C 197.910 26.944,197.055 27.012,198.100 27.094 M209.305 27.487 C 209.914 27.579,210.814 27.577,211.305 27.482 C 211.797 27.387,211.300 27.311,210.200 27.314 C 209.100 27.317,208.697 27.395,209.305 27.487 M181.900 27.882 C 182.395 27.978,183.205 27.978,183.700 27.882 C 184.195 27.787,183.790 27.709,182.800 27.709 C 181.810 27.709,181.405 27.787,181.900 27.882 M215.900 27.882 C 216.395 27.978,217.205 27.978,217.700 27.882 C 218.195 27.787,217.790 27.709,216.800 27.709 C 215.810 27.709,215.405 27.787,215.900 27.882 M176.600 28.200 C 176.380 28.275,175.329 28.455,174.263 28.599 C 173.198 28.742,172.395 28.928,172.479 29.012 C 172.562 29.096,174.514 28.922,176.815 28.627 C 179.695 28.258,180.376 28.086,179.000 28.077 C 177.900 28.069,176.820 28.125,176.600 28.200 M218.833 28.148 C 218.925 28.229,220.350 28.396,222.000 28.519 C 224.224 28.684,224.586 28.652,223.400 28.394 C 221.799 28.046,218.519 27.869,218.833 28.148 M166.466 29.804 C 163.426 30.354,161.814 31.032,164.615 30.582 C 168.111 30.020,171.342 29.295,170.400 29.284 C 169.850 29.277,168.080 29.511,166.466 29.804 M230.833 29.749 C 230.925 29.831,231.900 30.001,233.000 30.128 C 234.349 30.284,234.674 30.249,234.000 30.020 C 233.001 29.680,230.518 29.468,230.833 29.749 M159.200 31.312 C 158.210 31.546,157.670 31.796,158.000 31.866 C 158.330 31.937,159.500 31.742,160.600 31.433 C 162.929 30.779,161.846 30.685,159.200 31.312 M240.000 31.600 C 241.368 32.038,242.419 32.038,241.400 31.600 C 240.960 31.411,240.240 31.262,239.800 31.268 C 239.157 31.277,239.196 31.343,240.000 31.600 M244.600 32.739 C 245.837 33.268,247.910 33.677,247.200 33.251 C 246.870 33.054,245.970 32.780,245.200 32.644 C 244.256 32.477,244.060 32.508,244.600 32.739 M152.200 33.386 C 150.655 34.093,151.374 34.103,153.200 33.400 C 153.970 33.103,154.330 32.855,154.000 32.848 C 153.670 32.842,152.860 33.083,152.200 33.386 M250.600 34.598 C 251.950 35.235,253.477 35.441,252.400 34.842 C 252.070 34.658,251.260 34.401,250.600 34.270 L 249.400 34.033 250.600 34.598 M147.000 34.986 C 145.455 35.693,146.174 35.703,148.000 35.000 C 148.770 34.703,149.130 34.455,148.800 34.448 C 148.470 34.442,147.660 34.683,147.000 34.986 M254.800 35.933 C 255.130 36.136,255.850 36.424,256.400 36.571 C 257.095 36.757,257.217 36.725,256.800 36.467 C 256.470 36.264,255.750 35.976,255.200 35.829 C 254.505 35.643,254.383 35.675,254.800 35.933 M142.400 36.631 L 141.400 37.233 142.400 36.968 C 143.852 36.584,144.803 36.024,144.000 36.026 C 143.670 36.027,142.950 36.299,142.400 36.631 M138.000 38.231 L 137.000 38.833 138.000 38.568 C 139.452 38.184,140.403 37.624,139.600 37.626 C 139.270 37.627,138.550 37.899,138.000 38.231 M260.400 37.933 C 260.730 38.136,261.450 38.424,262.000 38.571 C 262.695 38.757,262.817 38.725,262.400 38.467 C 262.070 38.264,261.350 37.976,260.800 37.829 C 260.105 37.643,259.983 37.675,260.400 37.933 M134.900 39.434 C 134.185 39.746,133.600 40.094,133.600 40.207 C 133.600 40.415,136.406 39.327,136.746 38.987 C 137.086 38.647,136.220 38.857,134.900 39.434 M130.400 41.400 C 129.850 41.714,129.580 41.972,129.800 41.972 C 130.020 41.972,130.650 41.714,131.200 41.400 C 131.750 41.086,132.020 40.828,131.800 40.828 C 131.580 40.828,130.950 41.086,130.400 41.400 M268.220 41.155 C 268.429 41.350,269.050 41.628,269.600 41.772 L 270.600 42.033 269.600 41.431 C 268.486 40.759,267.609 40.584,268.220 41.155 M124.300 44.229 C 122.749 45.070,122.925 45.361,124.500 44.559 C 126.008 43.793,126.275 43.594,125.767 43.616 C 125.565 43.625,124.905 43.901,124.300 44.229 M274.033 43.749 C 274.445 44.117,276.800 45.200,276.800 45.021 C 276.800 44.790,274.582 43.600,274.153 43.600 C 273.996 43.600,273.942 43.667,274.033 43.749 M121.100 45.829 C 119.549 46.670,119.725 46.961,121.300 46.159 C 122.808 45.393,123.075 45.194,122.567 45.216 C 122.365 45.225,121.705 45.501,121.100 45.829 M277.233 45.349 C 277.645 45.717,280.000 46.800,280.000 46.621 C 280.000 46.390,277.782 45.200,277.353 45.200 C 277.196 45.200,277.142 45.267,277.233 45.349 M110.600 51.653 C 109.500 52.334,108.420 53.076,108.200 53.303 C 107.757 53.758,110.514 52.190,112.034 51.121 C 113.631 49.998,112.739 50.329,110.600 51.653 M287.966 51.082 C 288.497 51.477,289.667 52.213,290.566 52.718 C 291.465 53.222,291.765 53.312,291.234 52.918 C 290.703 52.523,289.533 51.787,288.634 51.282 C 287.735 50.778,287.435 50.688,287.966 51.082 M100.200 58.432 C 98.660 59.533,97.130 60.730,96.800 61.092 C 96.470 61.454,96.830 61.296,97.600 60.739 C 98.370 60.183,99.945 59.052,101.100 58.226 C 102.880 56.954,103.551 56.346,103.100 56.415 C 103.045 56.424,101.740 57.331,100.200 58.432 M296.800 56.546 C 296.800 56.656,297.340 57.130,298.000 57.600 C 298.660 58.070,299.200 58.364,299.200 58.254 C 299.200 58.144,298.660 57.670,298.000 57.200 C 297.340 56.730,296.800 56.436,296.800 56.546 M299.600 58.546 C 299.600 58.656,300.140 59.130,300.800 59.600 C 301.460 60.070,302.000 60.364,302.000 60.254 C 302.000 60.144,301.460 59.670,300.800 59.200 C 300.140 58.730,299.600 58.436,299.600 58.546 M92.400 64.434 L 90.600 66.065 92.500 64.584 C 94.166 63.286,94.659 62.797,94.300 62.801 C 94.245 62.802,93.390 63.536,92.400 64.434 M305.600 62.918 C 305.600 63.020,306.447 63.797,307.481 64.645 C 308.516 65.493,309.234 65.978,309.076 65.723 C 308.740 65.179,305.600 62.645,305.600 62.918 M88.400 67.660 C 87.630 68.335,87.362 68.705,87.804 68.481 C 88.535 68.111,90.347 66.378,89.962 66.416 C 89.873 66.425,89.170 66.985,88.400 67.660 M318.000 73.800 C 319.860 75.670,321.472 77.200,321.582 77.200 C 321.692 77.200,320.260 75.670,318.400 73.800 C 316.540 71.930,314.928 70.400,314.818 70.400 C 314.708 70.400,316.140 71.930,318.000 73.800 M81.191 74.300 L 77.800 77.800 81.300 74.409 C 84.551 71.259,84.982 70.800,84.691 70.800 C 84.631 70.800,83.056 72.375,81.191 74.300 M73.991 81.500 L 70.600 85.000 74.100 81.609 C 77.351 78.459,77.782 78.000,77.491 78.000 C 77.431 78.000,75.856 79.575,73.991 81.500 M325.800 81.600 C 327.550 83.360,329.071 84.800,329.181 84.800 C 329.291 84.800,327.950 83.360,326.200 81.600 C 324.450 79.840,322.929 78.400,322.819 78.400 C 322.709 78.400,324.050 79.840,325.800 81.600 M67.426 88.700 C 66.562 89.805,66.493 89.990,67.163 89.404 C 67.965 88.704,69.023 87.200,68.714 87.200 C 68.651 87.200,68.072 87.875,67.426 88.700 M64.127 92.700 C 61.902 95.431,61.480 96.000,61.679 96.000 C 61.777 96.000,62.794 94.830,63.940 93.400 C 65.086 91.970,65.945 90.800,65.849 90.800 C 65.753 90.800,64.978 91.655,64.127 92.700 M335.600 92.800 C 336.521 93.900,337.364 94.800,337.474 94.800 C 337.584 94.800,336.921 93.900,336.000 92.800 C 335.079 91.700,334.236 90.800,334.126 90.800 C 334.016 90.800,334.679 91.700,335.600 92.800 M190.900 92.700 C 197.665 92.761,208.735 92.761,215.500 92.700 C 222.265 92.638,216.730 92.588,203.200 92.588 C 189.670 92.588,184.135 92.638,190.900 92.700 M179.287 96.200 C 179.291 96.640,179.432 97.540,179.600 98.200 C 179.874 99.278,179.906 99.298,179.913 98.400 C 179.917 97.850,179.776 96.950,179.600 96.400 C 179.349 95.616,179.281 95.573,179.287 96.200 M60.744 97.100 C 59.593 98.489,59.106 99.200,59.304 99.200 C 59.414 99.200,59.986 98.570,60.573 97.800 C 61.663 96.371,61.795 95.832,60.744 97.100 M342.400 102.000 C 342.870 102.660,343.344 103.200,343.454 103.200 C 343.564 103.200,343.270 102.660,342.800 102.000 C 342.330 101.340,341.856 100.800,341.746 100.800 C 341.636 100.800,341.930 101.340,342.400 102.000 M192.109 175.200 C 192.109 176.190,192.187 176.595,192.282 176.100 C 192.378 175.605,192.378 174.795,192.282 174.300 C 192.187 173.805,192.109 174.210,192.109 175.200 M28.093 179.200 C 28.093 179.970,28.175 180.285,28.276 179.900 C 28.376 179.515,28.376 178.885,28.276 178.500 C 28.175 178.115,28.093 178.430,28.093 179.200 M221.701 186.600 C 221.705 187.480,221.787 187.793,221.883 187.295 C 221.979 186.798,221.975 186.078,221.875 185.695 C 221.775 185.313,221.696 185.720,221.701 186.600 " stroke="none" fill="#9fa5eb" fill-rule="evenodd"></path><path id="path3" d="M194.500 27.076 C 194.885 27.176,195.515 27.176,195.900 27.076 C 196.285 26.975,195.970 26.893,195.200 26.893 C 194.430 26.893,194.115 26.975,194.500 27.076 M204.300 27.082 C 204.795 27.178,205.605 27.178,206.100 27.082 C 206.595 26.987,206.190 26.909,205.200 26.909 C 204.210 26.909,203.805 26.987,204.300 27.082 M369.458 164.000 C 369.775 165.725,370.002 166.051,369.994 164.767 C 369.991 164.235,369.811 163.530,369.594 163.200 C 369.318 162.778,369.277 163.015,369.458 164.000 M371.293 174.400 C 371.293 175.170,371.375 175.485,371.476 175.100 C 371.576 174.715,371.576 174.085,371.476 173.700 C 371.375 173.315,371.293 173.630,371.293 174.400 M28.493 174.800 C 28.493 175.570,28.575 175.885,28.676 175.500 C 28.776 175.115,28.776 174.485,28.676 174.100 C 28.575 173.715,28.493 174.030,28.493 174.800 M192.493 175.200 C 192.493 175.970,192.575 176.285,192.676 175.900 C 192.776 175.515,192.776 174.885,192.676 174.500 C 192.575 174.115,192.493 174.430,192.493 175.200 M372.976 200.000 C 372.976 206.270,373.032 208.835,373.099 205.700 C 373.167 202.565,373.167 197.435,373.099 194.300 C 373.032 191.165,372.976 193.730,372.976 200.000 M26.975 200.000 C 26.975 206.050,27.031 208.525,27.099 205.500 C 27.167 202.475,27.167 197.525,27.099 194.500 C 27.031 191.475,26.975 193.950,26.975 200.000 M28.428 225.233 C 28.444 225.985,28.612 226.960,28.803 227.400 C 29.026 227.915,29.067 227.487,28.918 226.200 C 28.644 223.822,28.389 223.319,28.428 225.233 M371.293 225.600 C 371.293 226.370,371.375 226.685,371.476 226.300 C 371.576 225.915,371.576 225.285,371.476 224.900 C 371.375 224.515,371.293 224.830,371.293 225.600 M29.687 233.000 C 29.691 233.440,29.832 234.340,30.000 235.000 C 30.274 236.078,30.306 236.098,30.313 235.200 C 30.317 234.650,30.176 233.750,30.000 233.200 C 29.749 232.416,29.681 232.373,29.687 233.000 M369.654 235.067 C 369.625 235.544,369.496 236.264,369.370 236.667 C 369.152 237.361,369.164 237.362,369.596 236.688 C 369.847 236.297,369.975 235.577,369.881 235.088 C 369.709 234.201,369.709 234.201,369.654 235.067 M31.395 241.600 C 31.554 242.370,31.839 243.165,32.028 243.366 C 32.217 243.567,32.179 243.027,31.944 242.166 C 31.396 240.159,31.018 239.769,31.395 241.600 M368.078 242.050 C 367.848 242.958,367.807 243.543,367.988 243.350 C 368.361 242.952,368.960 240.400,368.680 240.400 C 368.580 240.400,368.309 241.143,368.078 242.050 M34.618 252.500 C 34.768 252.995,35.055 253.576,35.256 253.791 C 35.457 254.006,35.419 253.601,35.172 252.891 C 34.665 251.438,34.197 251.108,34.618 252.500 M364.844 252.844 C 364.598 253.551,364.466 254.200,364.552 254.285 C 364.638 254.371,364.909 253.862,365.156 253.156 C 365.402 252.449,365.534 251.800,365.448 251.715 C 365.362 251.629,365.091 252.138,364.844 252.844 M358.465 269.417 C 357.795 270.888,357.923 271.202,358.647 269.865 C 358.986 269.240,359.188 268.654,359.096 268.563 C 359.005 268.471,358.721 268.856,358.465 269.417 M48.815 284.600 C 48.817 284.820,49.186 285.450,49.636 286.000 C 50.179 286.664,50.315 286.731,50.040 286.200 C 49.366 284.895,48.812 284.172,48.815 284.600 M350.457 285.257 C 350.175 285.709,350.032 286.166,350.140 286.273 C 350.247 286.381,350.544 286.078,350.800 285.600 C 351.405 284.470,351.124 284.190,350.457 285.257 M50.415 287.400 C 50.417 287.620,50.786 288.250,51.236 288.800 C 51.779 289.464,51.915 289.531,51.640 289.000 C 50.966 287.695,50.412 286.972,50.415 287.400 M172.860 294.067 C 172.827 294.654,172.696 295.464,172.570 295.867 C 172.352 296.560,172.365 296.561,172.795 295.890 C 173.046 295.499,173.177 294.689,173.086 294.090 L 172.920 293.000 172.860 294.067 M55.410 295.600 C 56.024 296.723,59.269 301.200,59.470 301.200 C 59.580 301.200,58.817 299.985,57.774 298.500 C 55.855 295.767,54.783 294.452,55.410 295.600 M342.511 298.100 C 341.729 299.111,341.463 299.732,341.936 299.440 C 342.410 299.147,343.357 297.600,343.063 297.600 C 342.972 297.600,342.724 297.825,342.511 298.100 M61.600 304.400 C 62.297 305.280,62.957 306.000,63.067 306.000 C 63.177 306.000,62.697 305.280,62.000 304.400 C 61.303 303.520,60.643 302.800,60.533 302.800 C 60.423 302.800,60.903 303.520,61.600 304.400 M338.551 303.700 C 337.370 305.048,336.680 306.000,336.884 306.000 C 336.984 306.000,337.645 305.280,338.352 304.400 C 339.725 302.692,339.864 302.201,338.551 303.700 M66.318 310.300 C 67.194 311.345,68.328 312.560,68.838 313.000 C 69.347 313.440,68.705 312.585,67.411 311.100 C 64.733 308.027,63.905 307.421,66.318 310.300 M332.589 311.100 C 331.295 312.585,330.653 313.440,331.162 313.000 C 332.183 312.119,335.373 308.400,335.108 308.400 C 335.017 308.400,333.883 309.615,332.589 311.100 M71.600 316.200 C 72.795 317.410,73.863 318.400,73.973 318.400 C 74.083 318.400,73.195 317.410,72.000 316.200 C 70.805 314.990,69.737 314.000,69.627 314.000 C 69.517 314.000,70.405 314.990,71.600 316.200 M328.010 316.190 C 326.820 317.395,325.926 318.449,326.023 318.534 C 326.121 318.618,327.164 317.633,328.341 316.344 C 331.037 313.393,330.855 313.309,328.010 316.190 M76.400 321.325 C 76.400 321.394,76.985 321.979,77.700 322.625 L 79.000 323.800 77.825 322.500 C 76.730 321.288,76.400 321.016,76.400 321.325 M322.175 322.500 L 321.000 323.800 322.300 322.625 C 323.512 321.530,323.784 321.200,323.475 321.200 C 323.406 321.200,322.821 321.785,322.175 322.500 M83.400 328.000 C 84.706 329.320,85.865 330.400,85.975 330.400 C 86.085 330.400,85.106 329.320,83.800 328.000 C 82.494 326.680,81.335 325.600,81.225 325.600 C 81.115 325.600,82.094 326.680,83.400 328.000 M315.986 328.286 L 313.800 330.571 316.200 328.409 C 317.520 327.220,318.675 326.192,318.767 326.124 C 318.858 326.056,318.762 326.000,318.553 326.000 C 318.344 326.000,317.189 327.028,315.986 328.286 M87.886 332.003 C 88.814 332.970,89.635 333.680,89.712 333.580 C 89.788 333.481,89.029 332.690,88.025 331.822 L 86.200 330.244 87.886 332.003 M310.800 332.871 C 308.769 334.773,308.638 334.954,310.200 333.698 C 312.066 332.196,313.930 330.378,313.562 330.417 C 313.473 330.427,312.230 331.531,310.800 332.871 M304.167 338.229 L 302.600 339.658 304.300 338.362 C 305.853 337.178,306.232 336.800,305.867 336.800 C 305.793 336.800,305.028 337.443,304.167 338.229 M95.967 338.545 C 96.500 339.201,98.000 340.193,98.000 339.889 C 98.000 339.813,97.415 339.322,96.700 338.799 C 95.896 338.210,95.616 338.113,95.967 338.545 M299.300 341.640 C 298.365 342.302,297.600 342.933,297.600 343.041 C 297.600 343.150,298.410 342.681,299.400 342.000 C 300.390 341.319,301.200 340.680,301.200 340.581 C 301.200 340.305,301.124 340.348,299.300 341.640 M100.000 341.346 C 100.000 341.456,100.540 341.930,101.200 342.400 C 101.860 342.870,102.400 343.164,102.400 343.054 C 102.400 342.944,101.860 342.470,101.200 342.000 C 100.540 341.530,100.000 341.236,100.000 341.346 M105.800 345.407 C 106.240 345.766,106.960 346.235,107.400 346.451 L 108.200 346.844 107.400 346.193 C 106.960 345.834,106.240 345.365,105.800 345.149 L 105.000 344.756 105.800 345.407 M111.200 348.764 C 111.750 349.214,112.380 349.583,112.600 349.585 C 113.028 349.588,112.305 349.034,111.000 348.360 C 110.469 348.085,110.536 348.221,111.200 348.764 M288.200 348.800 C 287.540 349.237,287.205 349.596,287.456 349.597 C 287.893 349.600,290.011 348.038,289.600 348.016 C 289.490 348.010,288.860 348.363,288.200 348.800 M114.000 350.364 C 114.550 350.814,115.180 351.183,115.400 351.185 C 115.828 351.188,115.105 350.634,113.800 349.960 C 113.269 349.685,113.336 349.821,114.000 350.364 M285.400 350.400 C 284.740 350.837,284.380 351.192,284.600 351.188 C 285.001 351.182,287.176 349.623,286.800 349.612 C 286.690 349.608,286.060 349.963,285.400 350.400 M133.200 359.831 C 133.200 360.101,135.278 360.856,135.476 360.657 C 135.567 360.567,135.092 360.301,134.420 360.067 C 133.749 359.833,133.200 359.727,133.200 359.831 M137.200 361.533 C 137.530 361.736,138.250 362.024,138.800 362.171 C 139.495 362.357,139.617 362.325,139.200 362.067 C 138.870 361.864,138.150 361.576,137.600 361.429 C 136.905 361.243,136.783 361.275,137.200 361.533 M261.400 361.814 C 260.400 362.296,260.366 362.351,261.200 362.148 C 262.333 361.871,263.607 361.221,263.000 361.230 C 262.780 361.233,262.060 361.496,261.400 361.814 M141.600 363.133 C 141.930 363.336,142.650 363.624,143.200 363.771 C 143.895 363.957,144.017 363.925,143.600 363.667 C 143.270 363.464,142.550 363.176,142.000 363.029 C 141.305 362.843,141.183 362.875,141.600 363.133 M257.000 363.414 C 256.000 363.896,255.966 363.951,256.800 363.748 C 257.933 363.471,259.207 362.821,258.600 362.830 C 258.380 362.833,257.660 363.096,257.000 363.414 M146.600 365.014 C 147.260 365.317,148.070 365.558,148.400 365.552 C 148.730 365.545,148.370 365.297,147.600 365.000 C 145.774 364.297,145.055 364.307,146.600 365.014 M252.400 365.000 C 251.630 365.297,251.270 365.545,251.600 365.552 C 251.930 365.558,252.740 365.317,253.400 365.014 C 254.945 364.307,254.226 364.297,252.400 365.000 M151.020 366.358 C 151.229 366.555,152.030 366.823,152.800 366.954 L 154.200 367.193 152.800 366.627 C 151.126 365.950,150.484 365.853,151.020 366.358 M247.200 366.627 L 245.800 367.193 247.200 366.954 C 247.970 366.823,248.771 366.555,248.980 366.358 C 249.516 365.853,248.874 365.950,247.200 366.627 M156.600 368.000 C 156.736 368.220,157.242 368.387,157.724 368.372 C 158.569 368.345,158.571 368.331,157.800 368.000 C 156.699 367.527,156.308 367.527,156.600 368.000 M241.800 368.215 C 240.212 368.765,240.210 368.767,241.600 368.542 C 242.370 368.418,243.171 368.155,243.380 367.958 C 243.847 367.518,243.787 367.528,241.800 368.215 M163.200 369.542 C 163.530 369.739,164.700 370.006,165.800 370.136 C 167.055 370.283,167.428 370.251,166.800 370.048 C 165.133 369.509,162.534 369.144,163.200 369.542 M234.200 369.816 L 232.200 370.356 234.000 370.127 C 234.990 370.001,236.160 369.752,236.600 369.574 C 237.847 369.070,236.442 369.212,234.200 369.816 M172.600 371.169 C 173.040 371.347,174.660 371.596,176.200 371.724 C 178.139 371.884,178.508 371.855,177.400 371.630 C 174.827 371.109,171.712 370.809,172.600 371.169 M224.600 371.243 C 221.010 371.759,220.642 371.979,223.800 371.721 C 225.340 371.595,226.960 371.348,227.400 371.172 C 228.386 370.776,227.727 370.793,224.600 371.243 M187.842 372.877 C 189.841 373.232,209.626 373.227,212.000 372.870 C 212.990 372.722,207.609 372.600,200.042 372.600 C 192.475 372.600,186.985 372.725,187.842 372.877 " stroke="none" fill="#8b5fde" fill-rule="evenodd"></path><path id="path4" d="M191.505 27.483 C 192.002 27.579,192.722 27.575,193.105 27.475 C 193.487 27.375,193.080 27.296,192.200 27.301 C 191.320 27.305,191.007 27.387,191.505 27.483 M315.983 72.100 C 316.964 73.145,317.819 74.000,317.883 74.000 C 318.184 74.000,317.866 73.641,316.100 71.983 L 314.200 70.200 315.983 72.100 M82.985 72.900 L 81.000 75.000 83.100 73.015 C 85.051 71.171,85.383 70.800,85.085 70.800 C 85.022 70.800,84.077 71.745,82.985 72.900 M72.786 83.100 L 70.600 85.400 72.900 83.214 C 75.037 81.182,75.383 80.800,75.086 80.800 C 75.024 80.800,73.989 81.835,72.786 83.100 M327.583 83.700 C 328.564 84.745,329.419 85.600,329.483 85.600 C 329.784 85.600,329.466 85.241,327.700 83.583 L 325.800 81.800 327.583 83.700 M371.701 181.400 C 371.705 182.280,371.787 182.593,371.883 182.095 C 371.979 181.598,371.975 180.878,371.875 180.495 C 371.775 180.113,371.696 180.520,371.701 181.400 M28.101 181.800 C 28.105 182.680,28.187 182.993,28.283 182.495 C 28.379 181.998,28.375 181.278,28.275 180.895 C 28.175 180.513,28.096 180.920,28.101 181.800 M27.693 185.200 C 27.693 185.970,27.775 186.285,27.876 185.900 C 27.976 185.515,27.976 184.885,27.876 184.500 C 27.775 184.115,27.693 184.430,27.693 185.200 M27.309 192.000 C 27.309 192.990,27.387 193.395,27.482 192.900 C 27.578 192.405,27.578 191.595,27.482 191.100 C 27.387 190.605,27.309 191.010,27.309 192.000 M372.509 192.000 C 372.509 192.990,372.587 193.395,372.682 192.900 C 372.778 192.405,372.778 191.595,372.682 191.100 C 372.587 190.605,372.509 191.010,372.509 192.000 M27.309 208.000 C 27.309 208.990,27.387 209.395,27.482 208.900 C 27.578 208.405,27.578 207.595,27.482 207.100 C 27.387 206.605,27.309 207.010,27.309 208.000 M372.514 208.200 C 372.517 209.300,372.595 209.703,372.687 209.095 C 372.779 208.486,372.777 207.586,372.682 207.095 C 372.587 206.603,372.511 207.100,372.514 208.200 M27.701 214.600 C 27.705 215.480,27.787 215.793,27.883 215.295 C 27.979 214.798,27.975 214.078,27.875 213.695 C 27.775 213.313,27.696 213.720,27.701 214.600 M28.101 218.200 C 28.105 219.080,28.187 219.393,28.283 218.895 C 28.379 218.398,28.375 217.678,28.275 217.295 C 28.175 216.913,28.096 217.320,28.101 218.200 M371.709 218.800 C 371.709 219.790,371.787 220.195,371.882 219.700 C 371.978 219.205,371.978 218.395,371.882 217.900 C 371.787 217.405,371.709 217.810,371.709 218.800 M69.917 313.900 C 71.458 315.605,73.223 317.450,73.840 318.000 C 74.457 318.550,73.274 317.155,71.211 314.900 C 69.148 312.645,67.383 310.800,67.288 310.800 C 67.193 310.800,68.376 312.195,69.917 313.900 M327.785 316.100 L 325.800 318.200 327.900 316.215 C 329.851 314.371,330.183 314.000,329.885 314.000 C 329.822 314.000,328.877 314.945,327.785 316.100 M83.600 327.743 C 84.590 328.798,85.760 329.852,86.200 330.085 C 86.640 330.318,86.910 330.428,86.800 330.331 C 86.690 330.233,85.520 329.179,84.200 327.989 L 81.800 325.825 83.600 327.743 M315.785 328.100 L 313.800 330.200 315.900 328.215 C 317.055 327.123,318.000 326.178,318.000 326.115 C 318.000 325.817,317.629 326.149,315.785 328.100 M139.200 361.933 C 139.530 362.136,140.250 362.424,140.800 362.571 C 141.495 362.757,141.617 362.725,141.200 362.467 C 140.870 362.264,140.150 361.976,139.600 361.829 C 138.905 361.643,138.783 361.675,139.200 361.933 M148.400 365.133 C 148.730 365.336,149.450 365.624,150.000 365.771 C 150.695 365.957,150.817 365.925,150.400 365.667 C 150.070 365.464,149.350 365.176,148.800 365.029 C 148.105 364.843,147.983 364.875,148.400 365.133 M154.033 366.944 C 154.125 367.023,154.740 367.208,155.400 367.356 C 156.276 367.552,156.438 367.515,156.000 367.218 C 155.460 366.853,153.632 366.598,154.033 366.944 M244.000 367.218 C 243.562 367.515,243.724 367.552,244.600 367.356 C 246.071 367.027,246.390 366.798,245.367 366.806 C 244.945 366.809,244.330 366.995,244.000 367.218 M169.400 370.400 C 171.092 370.831,172.544 370.831,171.200 370.400 C 170.650 370.224,169.750 370.083,169.200 370.087 C 168.302 370.094,168.322 370.126,169.400 370.400 M228.800 370.400 C 227.456 370.831,228.908 370.831,230.600 370.400 C 231.678 370.126,231.698 370.094,230.800 370.087 C 230.250 370.083,229.350 370.224,228.800 370.400 M180.300 371.882 C 180.795 371.978,181.605 371.978,182.100 371.882 C 182.595 371.787,182.190 371.709,181.200 371.709 C 180.210 371.709,179.805 371.787,180.300 371.882 M217.900 371.882 C 218.395 371.978,219.205 371.978,219.700 371.882 C 220.195 371.787,219.790 371.709,218.800 371.709 C 217.810 371.709,217.405 371.787,217.900 371.882 M190.900 372.687 C 191.505 372.778,192.495 372.778,193.100 372.687 C 193.705 372.595,193.210 372.520,192.000 372.520 C 190.790 372.520,190.295 372.595,190.900 372.687 M206.900 372.687 C 207.505 372.778,208.495 372.778,209.100 372.687 C 209.705 372.595,209.210 372.520,208.000 372.520 C 206.790 372.520,206.295 372.595,206.900 372.687 " stroke="none" fill="#c0a9ed" fill-rule="evenodd"></path></g></svg>
