<svg clip-rule="evenodd" fill-rule="evenodd" height="752" image-rendering="optimizeQuality" shape-rendering="geometricPrecision" text-rendering="geometricPrecision" width="752" xmlns="http://www.w3.org/2000/svg"><path d="m374.5-.5h2c127.582 4.36788 229.415 57.3679 305.5 159 44.506 64.687 67.673 136.353 69.5 215v4c-4.665 127.177-57.665 228.677-159 304.5-64.687 44.506-136.353 67.673-215 69.5-1.333 0-2.667 0-4 0-127.214-4.683-228.714-57.683-304.5-159-44.506-64.687-67.67264-136.353-69.5-215 0-1.333 0-2.667 0-4 4.66508-127.177 57.6651-228.677 159-304.5 64.985-44.7164 136.985-67.88304 216-69.5z" fill="#5928fa" opacity=".99"/><path d="m354.5 50.5c103.888-3.6691 191.388 31.9976 262.5 107 80.37 94.465 102.704 201.465 67 321-41.347 112.35-119.847 183.85-235.5 214.5-123.197 23.819-228.03-9.348-314.5-99.5-75.6469-88.265-99.9803-189.265-73-303 32.0481-106.048 99.548-179.548 202.5-220.5 29.483-10.7996 59.817-17.2996 91-19.5z" fill="#fefefe"/><path d="m424.5 194.5c-8.18 43.895-15.513 88.062-22 132.5 12.73 80.88 25.73 161.714 39 242.5-34.333 0-68.667 0-103 0-5.667 0-11.333 0-17 0 13.162-80.475 26.162-160.975 39-241.5-7.582-51.489-15.915-102.822-25-154 30.667-.667 61.333-.667 92 0-1.61 6.707-2.61 13.541-3 20.5z" fill="#5928f9"/><path d="m424.5 194.5c5.676-.166 11.343.001 17 .5-8.43 48.745-16.596 97.578-24.5 146.5-.667 5-.667 10 0 15 13.16 77.961 25.993 155.961 38.5 234-40 0-80 0-120 0 .918-7.009 1.918-14.009 3-21h103c-13.27-80.786-26.27-161.62-39-242.5 6.487-44.438 13.82-88.605 22-132.5z" fill="#030304"/></svg>