<svg height="400" viewBox="0 0 400 400" width="400" xmlns="http://www.w3.org/2000/svg"><g fill-rule="evenodd"><path d="m195.6.282c-6.901.123-19.252.951-19.969 1.338-.347.187-2.746.551-5.331.808s-4.7.59-4.7.74c0 .149-1.57.499-3.488.776-1.919.277-3.674.647-3.9.822-.227.174-1.852.549-3.612.834s-3.38.645-3.6.801-1.57.507-3 .779-2.78.629-3 .792c-.22.162-1.48.526-2.8.806-1.32.281-2.58.651-2.8.822s-1.435.54-2.7.819c-1.265.28-2.3.64-2.3.8 0 .161-.675.418-1.5.573-.825.154-2.255.624-3.178 1.044s-1.869.764-2.102.764c-.232 0-1.094.36-1.914.799-.82.44-2.08.91-2.799 1.045s-1.307.385-1.307.556c0 .172-.81.551-1.8.843s-1.8.644-1.8.781-.72.465-1.6.729c-.88.263-1.6.623-1.6.8 0 .176-.72.536-1.6.8-.88.263-1.6.623-1.6.8 0 .176-.72.536-1.6.8-.88.263-1.6.638-1.6.831 0 .194-.542.471-1.204.617-.662.145-1.431.475-1.709.732s-1.895 1.187-3.593 2.067-3.089 1.735-3.091 1.9c-.001.165-.245.3-.542.3-.296 0-.954.36-1.461.8s-1.06.8-1.228.8c-.546 0-9.149 5.719-12.787 8.5-1.079.825-2.087 1.5-2.24 1.5s-.563.267-.911.592c-1.617 1.512-2.976 2.608-3.233 2.608-.155 0-.821.495-1.479 1.1-2.087 1.919-3.795 3.3-4.08 3.3-.151 0-.899.675-1.662 1.5s-1.835 1.792-2.383 2.148c-1.298.844-15.105 14.651-15.949 15.949-.356.548-1.323 1.62-2.148 2.383s-1.5 1.511-1.5 1.662c0 .285-1.381 1.993-3.3 4.08-.605.658-1.1 1.324-1.1 1.479 0 .257-1.096 1.616-2.608 3.233-.325.348-.592.821-.592 1.051 0 .229-.264.636-.586.903-.525.436-2.414 3.048-4.304 5.952-.379.583-.878 1.33-1.109 1.66-1.548 2.216-4.001 6.125-4.001 6.376 0 .166-.36.717-.8 1.224s-.8 1.165-.8 1.461c0 .297-.191.539-.424.539s-.312.18-.176.4.102.4-.076.401c-.178 0-.954 1.209-1.724 2.687s-1.61 2.916-1.867 3.196c-.257.279-.587 1.05-.732 1.712-.146.662-.423 1.204-.617 1.204-.193 0-.568.72-.831 1.6-.264.88-.624 1.6-.8 1.6-.177 0-.537.72-.8 1.6-.264.88-.624 1.6-.8 1.6-.177 0-.537.72-.8 1.6-.264.88-.592 1.6-.729 1.6s-.489.81-.781 1.8-.671 1.8-.843 1.8c-.171 0-.421.588-.556 1.307s-.605 1.979-1.045 2.799c-.439.82-.799 1.682-.799 1.914 0 .233-.344 1.179-.764 2.102s-.89 2.353-1.044 3.178c-.155.825-.412 1.5-.573 1.5-.16 0-.52 1.035-.8 2.3-.279 1.265-.648 2.48-.819 2.7s-.541 1.48-.822 2.8c-.28 1.32-.644 2.58-.806 2.8-.163.22-.52 1.57-.792 3s-.628 2.78-.792 3c-.163.22-.518 1.75-.788 3.4s-.632 3.18-.804 3.4c-.171.22-.545 2.065-.83 4.1-.286 2.035-.643 3.7-.795 3.7-.151 0-.493 2.115-.76 4.7-.266 2.585-.637 5.06-.825 5.5-.641 1.5-1.22 12.991-1.22 24.2s.579 22.7 1.22 24.2c.188.44.559 2.915.825 5.5.267 2.585.609 4.7.76 4.7.152 0 .509 1.665.795 3.7.285 2.035.659 3.88.83 4.1.172.22.534 1.75.804 3.4s.625 3.18.788 3.4c.164.22.52 1.57.792 3s.629 2.78.792 3c.162.22.526 1.48.806 2.8.281 1.32.651 2.58.822 2.8s.54 1.435.819 2.7c.28 1.265.64 2.3.8 2.3.161 0 .418.675.573 1.5.154.825.624 2.255 1.044 3.178s.764 1.869.764 2.102c0 .232.36 1.094.799 1.914.44.82.91 2.08 1.045 2.799s.385 1.307.556 1.307c.172 0 .551.81.843 1.8s.644 1.8.781 1.8.465.72.729 1.6c.263.88.623 1.6.8 1.6.176 0 .536.72.8 1.6.263.88.623 1.6.8 1.6.176 0 .536.72.8 1.6.263.88.638 1.6.831 1.6.194 0 .471.542.617 1.204.145.662.475 1.435.732 1.717.257.281 1.172 1.855 2.035 3.495.862 1.641 1.675 3.074 1.808 3.184.132.11.46.65.729 1.2s.715 1.354.992 1.786c4.109 6.424 6.698 10.294 8.323 12.441 1.089 1.438 1.98 2.726 1.98 2.861s.274.53.609.878c.335.349 1.153 1.354 1.816 2.234 1.458 1.932 3.519 4.447 4.475 5.459.385.407.7.883.7 1.057 0 .175.675.941 1.5 1.704s1.792 1.835 2.148 2.383c.844 1.298 14.651 15.105 15.949 15.949.548.356 1.62 1.323 2.383 2.148s1.511 1.5 1.662 1.5c.285 0 1.993 1.381 4.08 3.3.658.605 1.324 1.1 1.479 1.1.257 0 1.616 1.096 3.233 2.608.348.325.768.592.932.592.165 0 1.05.595 1.967 1.323.917.727 2.117 1.626 2.667 1.999 6.486 4.388 10.048 6.678 10.388 6.678.226 0 .412.168.412.374s.63.602 1.4.88c.77.279 1.4.607 1.4.73 0 .122 1.387.941 3.083 1.819 1.696.879 3.314 1.807 3.596 2.064s1.055.587 1.717.732c.662.146 1.204.423 1.204.617 0 .193.72.568 1.6.831.88.264 1.6.624 1.6.8 0 .177.72.537 1.6.8.88.264 1.6.624 1.6.8 0 .177.72.537 1.6.8.88.264 1.6.592 1.6.729s.81.489 1.8.781 1.8.671 1.8.843c0 .171.588.421 1.307.556s1.979.605 2.799 1.045c.82.439 1.682.799 1.914.799.233 0 1.179.344 2.102.764s2.353.89 3.178 1.044c.825.155 1.5.416 1.5.582 0 .165 1.08.53 2.4.81s2.4.632 2.4.781c0 .15 1.215.509 2.7.798s2.88.665 3.1.836c.22.17 1.57.533 3 .805s2.78.628 3 .792c.22.163 1.75.518 3.4.788s3.18.632 3.4.804c.22.171 2.065.545 4.1.83 2.035.286 3.7.643 3.7.795 0 .151 2.115.493 4.7.76 2.585.266 5.06.637 5.5.825 3.618 1.546 47.924 1.546 49 .001.11-.158 2.405-.523 5.1-.811s4.9-.642 4.9-.787 1.665-.497 3.7-.783c2.035-.285 3.88-.661 4.1-.835s1.795-.54 3.5-.813 3.1-.626 3.1-.786 1.347-.508 2.994-.773c1.646-.266 3.084-.63 3.195-.809.11-.179 1.373-.547 2.806-.817s2.605-.627 2.605-.792 1.08-.529 2.4-.809 2.4-.64 2.4-.8 1.08-.52 2.4-.8 2.4-.652 2.4-.826.99-.538 2.2-.809 2.2-.641 2.2-.823.81-.534 1.8-.784c.99-.249 1.8-.59 1.8-.758s.81-.509 1.8-.758c.99-.25 1.8-.602 1.8-.784s.72-.547 1.6-.811c.88-.263 1.6-.638 1.6-.831 0-.194.559-.475 1.242-.625 1.451-.319 5.158-2.176 5.158-2.584 0-.154.72-.496 1.6-.76.88-.263 1.6-.652 1.6-.863s.198-.384.44-.384c.63 0 3.265-1.277 3.889-1.885.29-.283.791-.515 1.112-.515s.683-.259.805-.576c.121-.316.758-.693 1.414-.837.657-.144 1.291-.515 1.41-.825.118-.309.421-.565.673-.569.391-.007 3.2-1.704 4.457-2.693.22-.173 1.3-.898 2.4-1.61 1.1-.713 2.335-1.519 2.745-1.793 1.29-.861 3.629-2.654 4.289-3.288.348-.335.803-.609 1.011-.609.207 0 .67-.315 1.027-.7.358-.385 1.315-1.15 2.128-1.7.812-.55 1.852-1.405 2.311-1.9.458-.495.987-.9 1.175-.9.187 0 .869-.54 1.514-1.2s1.322-1.2 1.503-1.2.992-.72 1.801-1.6 1.636-1.6 1.838-1.6c.479 0 16.858-16.379 16.858-16.858 0-.202.72-1.029 1.6-1.838s1.6-1.62 1.6-1.801.54-.858 1.2-1.503 1.2-1.355 1.2-1.577c0-.223.45-.699 1-1.06.55-.36 1-.833 1-1.051 0-.38 1.347-2.215 2.602-3.546.329-.348.598-.783.598-.966s.274-.618.609-.966c.634-.66 2.427-2.999 3.288-4.289.274-.41 1.08-1.645 1.793-2.745.712-1.1 1.437-2.18 1.61-2.4.989-1.257 2.686-4.066 2.693-4.457.004-.252.26-.555.569-.673.31-.119.681-.753.825-1.41.144-.656.521-1.293.837-1.414.317-.122.576-.484.576-.805s.232-.822.515-1.112c.608-.624 1.885-3.259 1.885-3.889 0-.242.173-.44.384-.44s.6-.72.863-1.6c.264-.88.606-1.6.76-1.6.408 0 2.265-3.707 2.584-5.158.15-.683.431-1.242.625-1.242.193 0 .568-.72.831-1.6.264-.88.629-1.6.811-1.6s.534-.81.784-1.8c.249-.99.59-1.8.758-1.8s.509-.81.758-1.8c.25-.99.602-1.8.784-1.8s.552-.99.823-2.2.635-2.2.809-2.2.546-1.08.826-2.4.64-2.4.8-2.4.52-1.08.8-2.4.644-2.4.809-2.4.522-1.172.792-2.605.638-2.696.817-2.806c.179-.111.543-1.549.809-3.195.265-1.647.613-2.994.773-2.994s.513-1.395.786-3.1.639-3.28.813-3.5.55-2.065.835-4.1c.286-2.035.638-3.7.783-3.7s.499-2.205.787-4.9.653-4.99.811-5.1c1.534-1.068 1.536-47.375.002-49.4-.167-.22-.536-2.605-.82-5.3s-.638-4.9-.786-4.9-.503-1.71-.79-3.8-.65-3.8-.807-3.8-.513-1.53-.791-3.4-.643-3.4-.81-3.4-.521-1.347-.786-2.994c-.266-1.646-.63-3.084-.809-3.195-.179-.11-.547-1.373-.817-2.806s-.627-2.605-.792-2.605-.529-1.08-.809-2.4-.64-2.4-.8-2.4-.52-1.08-.8-2.4-.647-2.4-.815-2.4-.531-.941-.807-2.09c-.275-1.15-.736-2.325-1.024-2.613-.287-.287-.64-1.147-.783-1.91s-.397-1.387-.564-1.387c-.166 0-.53-.81-.807-1.8s-.632-1.8-.789-1.8c-.156 0-.5-.72-.764-1.6-.263-.88-.652-1.6-.863-1.6s-.386-.225-.388-.5-.446-1.4-.987-2.5-.99-2.216-.996-2.48c-.007-.264-.258-.624-.556-.8-.299-.176-.763-.995-1.031-1.82-.269-.825-.635-1.5-.814-1.5s-.447-.484-.595-1.076c-.149-.591-.614-1.558-1.034-2.147-.42-.59-.943-1.546-1.163-2.125-.22-.578-.57-1.052-.778-1.052s-.5-.552-.648-1.227-.522-1.324-.832-1.443c-.309-.118-.565-.421-.569-.673-.007-.391-1.704-3.2-2.693-4.457-.173-.22-.898-1.3-1.61-2.4-.713-1.1-1.519-2.335-1.793-2.745-.861-1.29-2.654-3.629-3.288-4.289-.335-.348-.609-.803-.609-1.011 0-.207-.315-.67-.7-1.027-.385-.358-1.15-1.315-1.7-2.128-.55-.812-1.405-1.852-1.9-2.311-.495-.458-.9-.987-.9-1.175 0-.187-.54-.869-1.2-1.514s-1.2-1.322-1.2-1.503-.72-.992-1.6-1.801-1.6-1.634-1.6-1.833c0-.473-16.39-16.863-16.863-16.863-.199 0-1.024-.72-1.833-1.6s-1.62-1.6-1.801-1.6-.858-.54-1.503-1.2-1.327-1.2-1.514-1.2c-.188 0-.717-.405-1.175-.9-.459-.495-1.499-1.35-2.311-1.9-.813-.55-1.77-1.315-2.128-1.7-.357-.385-.82-.7-1.027-.7-.208 0-.663-.274-1.011-.609-.66-.634-2.999-2.427-4.289-3.288-.41-.274-1.645-1.08-2.745-1.793-1.1-.712-2.18-1.437-2.4-1.61-1.257-.989-4.066-2.686-4.457-2.693-.252-.004-.555-.26-.673-.569-.119-.31-.768-.684-1.443-.832s-1.227-.433-1.227-.632c0-.2-.668-.643-1.485-.984s-1.762-.87-2.1-1.174c-.338-.305-1.11-.677-1.715-.828s-1.1-.421-1.1-.6-.675-.545-1.5-.814c-.825-.268-1.644-.732-1.82-1.031-.176-.298-.536-.549-.8-.556-.264-.006-1.38-.455-2.48-.996s-2.225-.985-2.5-.987-.5-.177-.5-.388-.72-.6-1.6-.863c-.88-.264-1.6-.608-1.6-.764 0-.157-.81-.512-1.8-.789s-1.8-.641-1.8-.807c0-.167-.624-.421-1.387-.564s-1.623-.496-1.91-.783c-.288-.288-1.463-.749-2.613-1.024-1.149-.276-2.09-.639-2.09-.807s-1.08-.535-2.4-.815-2.4-.64-2.4-.8-1.08-.52-2.4-.8-2.4-.644-2.4-.809-1.172-.522-2.605-.792-2.696-.638-2.806-.817c-.111-.179-1.549-.543-3.195-.809-1.647-.265-2.994-.619-2.994-.786s-1.53-.532-3.4-.81-3.4-.634-3.4-.791-1.71-.52-3.8-.807-3.8-.642-3.8-.79-2.205-.505-4.9-.793-4.99-.656-5.1-.819c-.421-.622-19.503-1.468-29.2-1.295m17.2 27.116c16.611 1.15 27.72 3.343 42 8.288 1.87.648 4.12 1.417 5 1.71 1.66.552 3.602 1.345 6.478 2.645.923.418 1.803.759 1.956.759 1.054 0 19.034 9.385 23.366 12.196.77.5 2.685 1.733 4.255 2.741 3.002 1.927 11.592 8.269 13.414 9.904.587.527 1.746 1.499 2.574 2.159 3.718 2.962 15.006 14.193 19.764 19.662 2.766 3.18 5.881 7.019 7.393 9.112.44.609 1.354 1.854 2.031 2.766 1.079 1.455 4.247 6.198 5.659 8.471 3.248 5.231 8.526 15.099 11.065 20.689.575 1.265 1.495 3.279 2.045 4.475.55 1.197 1.001 2.322 1.002 2.5.002.179.236.775.52 1.325s1.11 2.71 1.836 4.8 1.467 4.16 1.646 4.6c.56 1.368 2.312 7.13 2.612 8.587.157.763.437 1.663.621 2 .615 1.122 2.116 8.916 3.547 18.413 1.912 12.696 1.912 36.904 0 49.6-1.388 9.208-2.923 17.241-3.555 18.6-.204.44-.592 1.79-.862 3s-.624 2.47-.786 2.8c-.163.33-.867 2.4-1.565 4.6s-1.429 4.36-1.624 4.8c-.196.44-.937 2.33-1.648 4.2-.712 1.87-1.53 3.755-1.819 4.189s-.525 1.021-.525 1.305c0 .53-4.66 10.116-7.343 15.106-2.664 4.953-4.88 8.602-8.138 13.4-3.413 5.027-3.831 5.601-7.292 10.02-8.69 11.095-24.256 26.166-34.276 33.185-.468.327-1.995 1.405-3.396 2.395-3.055 2.16-9.21 6.091-11.155 7.124-.77.409-2.75 1.493-4.4 2.408-3.061 1.698-9.719 5.013-12.6 6.274-.88.385-2.32 1.023-3.2 1.417-4.237 1.897-14.616 5.746-16.697 6.191-.717.153-1.483.418-1.703.588s-1.48.539-2.8.82c-1.32.28-2.58.645-2.8.809s-1.57.503-3 .753-3.14.623-3.8.828-3.09.659-5.4 1.008-5.19.788-6.4.977c-12.154 1.89-37.01 1.884-49.6-.013-9.311-1.403-17.027-2.887-18.6-3.576-.44-.193-1.79-.567-3-.832-1.21-.264-2.38-.616-2.6-.782s-.986-.427-1.703-.58c-2.14-.458-12.625-4.356-16.797-6.244-.935-.424-2.555-1.152-3.6-1.619-9.558-4.27-20.939-10.706-28.3-16.005-5.343-3.846-10.2-7.662-10.2-8.013 0-.183-.204-.333-.454-.333-.966 0-13.318-11.884-19.976-19.221-7.187-7.918-14.507-18.022-19.673-27.153-3.241-5.727-6.595-12.309-8.983-17.626-.444-.99-1.102-2.457-1.461-3.26-.359-.804-.654-1.614-.655-1.8-.002-.187-.236-.79-.52-1.34s-1.11-2.71-1.836-4.8-1.487-4.16-1.692-4.6c-.206-.44-.658-1.79-1.006-3-1.755-6.104-2.038-7.045-2.285-7.6-.299-.673-1.224-5.277-2.09-10.4-.316-1.87-.74-4.12-.943-5s-.564-3.94-.802-6.8-.628-6.91-.867-9c-.791-6.917-.031-28.817 1.276-36.8 1.971-12.04 2.646-15.521 3.686-19.013 2.274-7.638 2.78-9.277 3.083-9.987.188-.44.558-1.52.822-2.4s.612-1.78.773-2 .421-.934.577-1.586.631-1.948 1.055-2.878c.424-.931.771-1.817.771-1.97 0-.308.278-.914 4.391-9.566 4.248-8.936 10.887-20.42 15.009-25.96.88-1.183 1.96-2.654 2.4-3.269.679-.949 3.12-4.022 4.899-6.169 4.889-5.902 16.867-18.13 21.701-22.157 1.21-1.007 2.539-2.129 2.953-2.492 2.736-2.396 13.581-10.212 17.253-12.434 7.686-4.649 18.741-10.358 25.794-13.32 1.65-.693 3.54-1.502 4.2-1.799.66-.296 1.74-.667 2.4-.824.66-.158 1.38-.414 1.6-.571.357-.254 8.357-2.858 14.187-4.618 2.832-.855 6.735-1.683 12.213-2.593 2.42-.402 5.48-.915 6.8-1.14 1.32-.226 4.991-.596 8.158-.824 3.167-.227 5.852-.507 5.967-.622.43-.43 15.395-.184 23.675.39m-33.427 66.502c.131.605.501 2.9.823 5.1.571 3.903 1.32 8.547 2.984 18.5 2.396 14.325 3.853 23.191 4.78 29.1 1.195 7.606 2.023 12.565 2.64 15.8.314 1.65.681 3.9.814 5s.516 3.298.851 4.885c.547 2.594.546 3.199-.014 6-.705 3.527-1.645 9.224-2.493 15.115-.317 2.2-.678 4.329-.804 4.731-.125.402-.565 2.922-.978 5.6-.736 4.772-1.552 9.766-3.199 19.569-.453 2.695-1.078 6.7-1.39 8.9-.311 2.2-.669 4.36-.795 4.8s-.575 2.96-.998 5.6c-.933 5.824-2.693 16.455-4.817 29.1-.453 2.695-1.078 6.7-1.39 8.9-.311 2.2-.671 4.36-.8 4.8-.211.721-.783 4.202-2.321 14.109-.624 4.022-.983 3.691 4.001 3.691 4.866 0 4.572-.546 3.333 6.2-.44 2.395-.8 4.5-.8 4.677 0 .178 14.31.323 31.8.323s31.799-.135 31.797-.3c-.005-.474-.749-5.283-1.192-7.7-.222-1.21-1.304-7.78-2.404-14.6-1.101-6.82-2.26-13.84-2.575-15.6-.316-1.76-.688-4.01-.826-5s-.511-3.24-.828-5c-.316-1.76-2.107-12.56-3.979-24s-3.661-22.24-3.977-24-1.045-6.26-1.622-10c-.576-3.74-1.296-8.15-1.599-9.8-2.154-11.732-2.154-12.231-.002-24 .301-1.65 1.014-5.97 1.584-9.6s1.301-8.13 1.625-10c.562-3.249.826-4.854 2.6-15.8.427-2.64 1.915-11.607 3.307-19.926 1.391-8.32 2.389-15.214 2.217-15.32s-2.214-.162-4.538-.125-4.299-.007-4.39-.097c-.2-.201.887-7.623 1.382-9.432l.356-1.3h-24.2-24.2z" fill="#4d47d9"/><path d="m189.4 27.58c-22.164 1.565-34.89 4.553-56.8 13.335-13.485 5.405-35.534 19.231-45.8 28.72-.77.712-3.07 2.828-5.111 4.703-6.476 5.948-15.768 16.429-21.865 24.662-5.185 7.003-15.802 25.869-18.908 33.6-3.244 8.075-5.072 13.288-8.178 23.33-.69 2.231-2.226 9.337-2.522 11.67-.154 1.21-.439 2.83-.634 3.6-1.21 4.792-2.532 24.486-2.223 33.146.254 7.154 1.603 21.974 2.226 24.454.193.77.477 2.39.631 3.6.291 2.297 1.817 9.375 2.515 11.67 2.501 8.223 4.735 14.715 6.925 20.13.445 1.1 1.019 2.529 1.277 3.175 7.648 19.23 24.374 43.156 40.709 58.233 2.259 2.085 4.57 4.221 5.133 4.744 3.658 3.4 13.611 10.976 18.818 14.324 6.029 3.877 24.255 13.724 25.402 13.724.137 0 1.004.337 1.927.748.923.412 2.938 1.23 4.478 1.819s3.43 1.326 4.2 1.636c1.332.538 10.966 3.655 14.8 4.788 5.747 1.699 11.851 2.728 27.6 4.652 5.58.682 26.42.682 32 0 15.741-1.923 21.829-2.949 27.6-4.651 8.552-2.521 19.46-6.364 23.86-8.407.694-.322 1.383-.585 1.532-.585.573 0 13.3-6.547 17.938-9.227 13.804-7.98 22.997-15.103 35.069-27.174 14.641-14.642 23.691-27.251 33.086-46.1 5.755-11.544 11.373-27.141 13.653-37.899 4.073-19.225 4.96-38.99 2.674-59.6-2.963-26.721-13.276-53.277-30.368-78.2-8.057-11.748-22.811-27.038-36.174-37.49-8.964-7.01-27.357-17.704-37.479-21.791-14.227-5.744-27.543-9.823-34.991-10.718-1.21-.146-2.83-.423-3.6-.617-5.846-1.473-29.727-2.687-39.4-2.004m38.193 65.72c-.009 1.101-1.009 7.684-1.398 9.2l-.282 1.1h4.644c5.408 0 5.038-.497 4.015 5.4-.343 1.98-.96 5.67-1.37 8.2s-1.107 6.76-1.55 9.4-1.182 7.05-1.643 9.8-1.105 6.8-1.432 9-.687 4.296-.799 4.657c-.113.362-.567 2.972-1.01 5.8-.91 5.807-1.989 12.478-3.162 19.543-1.995 12.019-1.994 10.145-.009 22 .442 2.64 1.149 7.05 1.571 9.8.421 2.75.943 5.81 1.159 6.8s.513 2.88.66 4.2.429 3.03.628 3.8c.198.77.633 3.2.965 5.4.584 3.872 1.367 8.688 3.005 18.5.431 2.585 1.138 6.95 1.571 9.7.432 2.75.961 5.81 1.175 6.8s.509 2.88.656 4.2.429 3.03.628 3.8c.198.77.633 3.2.965 5.4.584 3.872 1.443 9.291 2.789 17.6.357 2.2.907 5.35 1.222 7 .316 1.65.767 4.44 1.004 6.2.236 1.76.6 3.92.808 4.8.788 3.336 4.351 3-31.85 3h-32.246l.25-1.1c.346-1.518 1.415-8.543 1.43-9.4.012-.625-.458-.7-4.387-.7-5.081 0-4.8.333-3.814-4.517.323-1.586.868-4.683 1.211-6.883 1.905-12.214 2.721-17.229 4.003-24.6 1.104-6.346 1.859-10.989 2.407-14.808.301-2.094.646-4.074.766-4.4s.484-2.392.808-4.592c.762-5.161 2.678-16.891 4.019-24.6 1.118-6.428 1.861-11.008 2.434-14.997.315-2.198.656-4.268.756-4.6.101-.332.567-3.033 1.037-6.003.469-2.97 1.208-7.47 1.641-10 1.132-6.612 1.281-8.818.756-11.248-.256-1.184-.722-3.862-1.037-5.952-.314-2.09-.932-5.96-1.374-8.6-.441-2.64-1.152-7.05-1.578-9.8-.427-2.75-1.068-6.71-1.425-8.8-1.639-9.592-2.653-15.656-3.815-22.8-.412-2.53-1.125-6.85-1.586-9.6-1.149-6.857-1.992-12.461-2.001-13.3-.008-.659 1.418-.7 24.392-.7h24.4z" fill="#fbfbfb"/><path d="m189 27.2c-1.909.262-1.928.276-.4.302.88.015 2.5-.112 3.6-.284 2.699-.42-.15-.436-3.2-.018m9.1-.106c1.045.082 2.755.082 3.8 0s.19-.15-1.9-.15-2.945.068-1.9.15m11.205.393c.609.092 1.509.09 2-.005.492-.095-.005-.171-1.105-.168s-1.503.081-.895.173m-27.405.395c.495.096 1.305.096 1.8 0 .495-.095.09-.173-.9-.173s-1.395.078-.9.173m34 0c.495.096 1.305.096 1.8 0 .495-.095.09-.173-.9-.173s-1.395.078-.9.173m-39.3.318c-.22.075-1.271.255-2.337.399-1.065.143-1.868.329-1.784.413.083.084 2.035-.09 4.336-.385 2.88-.369 3.561-.541 2.185-.55-1.1-.008-2.18.048-2.4.123m42.233-.052c.092.081 1.517.248 3.167.371 2.224.165 2.586.133 1.4-.125-1.601-.348-4.881-.525-4.567-.246m-52.367 1.656c-3.04.55-4.652 1.228-1.851.778 3.496-.562 6.727-1.287 5.785-1.298-.55-.007-2.32.227-3.934.52m64.367-.055c.092.082 1.067.252 2.167.379 1.349.156 1.674.121 1-.108-.999-.34-3.482-.552-3.167-.271m-71.633 1.563c-.99.234-1.53.484-1.2.554.33.071 1.5-.124 2.6-.433 2.329-.654 1.246-.748-1.4-.121m80.8.288c1.368.438 2.419.438 1.4 0-.44-.189-1.16-.338-1.6-.332-.643.009-.604.075.2.332m4.6 1.139c1.237.529 3.31.938 2.6.512-.33-.197-1.23-.471-2-.607-.944-.167-1.14-.136-.6.095m-92.4.647c-1.545.707-.826.717 1 .014.77-.297 1.13-.545.8-.552-.33-.006-1.14.235-1.8.538m98.4 1.212c1.35.637 2.877.843 1.8.244-.33-.184-1.14-.441-1.8-.572l-1.2-.237zm-103.6.388c-1.545.707-.826.717 1 .014.77-.297 1.13-.545.8-.552-.33-.006-1.14.235-1.8.538m107.8.947c.33.203 1.05.491 1.6.638.695.186.817.154.4-.104-.33-.203-1.05-.491-1.6-.638-.695-.186-.817-.154-.4.104m-112.4.698-1 .602 1-.265c1.452-.384 2.403-.944 1.6-.942-.33.001-1.05.273-1.6.605m-4.4 1.6-1 .602 1-.265c1.452-.384 2.403-.944 1.6-.942-.33.001-1.05.273-1.6.605m122.4-.298c.33.203 1.05.491 1.6.638.695.186.817.154.4-.104-.33-.203-1.05-.491-1.6-.638-.695-.186-.817-.154-.4.104m-125.5 1.501c-.715.312-1.3.66-1.3.773 0 .208 2.806-.88 3.146-1.22s-.526-.13-1.846.447m-4.5 1.966c-.55.314-.82.572-.6.572s.85-.258 1.4-.572.82-.572.6-.572-.85.258-1.4.572m137.82-.245c.209.195.83.473 1.38.617l1 .261-1-.602c-1.114-.672-1.991-.847-1.38-.276m-143.92 3.074c-1.551.841-1.375 1.132.2.33 1.508-.766 1.775-.965 1.267-.943-.202.009-.862.285-1.467.613m149.733-.48c.412.368 2.767 1.451 2.767 1.272 0-.231-2.218-1.421-2.647-1.421-.157 0-.211.067-.12.149m-152.933 2.08c-1.551.841-1.375 1.132.2.33 1.508-.766 1.775-.965 1.267-.943-.202.009-.862.285-1.467.613m156.133-.48c.412.368 2.767 1.451 2.767 1.272 0-.231-2.218-1.421-2.647-1.421-.157 0-.211.067-.12.149m-166.633 6.304c-1.1.681-2.18 1.423-2.4 1.65-.443.455 2.314-1.113 3.834-2.182 1.597-1.123.705-.792-1.434.532m177.366-.571c.531.395 1.701 1.131 2.6 1.636.899.504 1.199.594.668.2-.531-.395-1.701-1.131-2.6-1.636-.899-.504-1.199-.594-.668-.2m-187.766 7.35c-1.54 1.101-3.07 2.298-3.4 2.66s.03.204.8-.353c.77-.556 2.345-1.687 3.5-2.513 1.78-1.272 2.451-1.88 2-1.811-.055.009-1.36.916-2.9 2.017m196.6-1.886c0 .11.54.584 1.2 1.054s1.2.764 1.2.654-.54-.584-1.2-1.054-1.2-.764-1.2-.654m2.8 2c0 .11.54.584 1.2 1.054s1.2.764 1.2.654-.54-.584-1.2-1.054-1.2-.764-1.2-.654m-207.2 5.888-1.8 1.631 1.9-1.481c1.666-1.298 2.159-1.787 1.8-1.783-.055.001-.91.735-1.9 1.633m213.2-1.516c0 .102.847.879 1.881 1.727 1.035.848 1.753 1.333 1.595 1.078-.336-.544-3.476-3.078-3.476-2.805m-217.2 4.742c-.77.675-1.038 1.045-.596.821.731-.37 2.543-2.103 2.158-2.065-.089.009-.792.569-1.562 1.244m229.6 6.14c1.86 1.87 3.472 3.4 3.582 3.4s-1.322-1.53-3.182-3.4-3.472-3.4-3.582-3.4 1.322 1.53 3.182 3.4m-236.809.5-3.391 3.5 3.5-3.391c3.251-3.15 3.682-3.609 3.391-3.609-.06 0-1.635 1.575-3.5 3.5m-7.2 7.2-3.391 3.5 3.5-3.391c3.251-3.15 3.682-3.609 3.391-3.609-.06 0-1.635 1.575-3.5 3.5m251.809.1c1.75 1.76 3.271 3.2 3.381 3.2s-1.231-1.44-2.981-3.2-3.271-3.2-3.381-3.2 1.231 1.44 2.981 3.2m-258.374 7.1c-.864 1.105-.933 1.29-.263.704.802-.7 1.86-2.204 1.551-2.204-.063 0-.642.675-1.288 1.5m-3.299 4c-2.225 2.731-2.647 3.3-2.448 3.3.098 0 1.115-1.17 2.261-2.6s2.005-2.6 1.909-2.6-.871.855-1.722 1.9m271.473.1c.921 1.1 1.764 2 1.874 2s-.553-.9-1.474-2-1.764-2-1.874-2 .553.9 1.474 2m-144.7-.1c6.765.061 17.835.061 24.6 0 6.765-.062 1.23-.112-12.3-.112s-19.065.05-12.3.112m-11.613 3.5c.004.44.145 1.34.313 2 .274 1.078.306 1.098.313.2.004-.55-.137-1.45-.313-2-.251-.784-.319-.827-.313-.2m-118.543.9c-1.151 1.389-1.638 2.1-1.44 2.1.11 0 .682-.63 1.269-1.4 1.09-1.429 1.222-1.968.171-.7m281.656 4.9c.47.66.944 1.2 1.054 1.2s-.184-.54-.654-1.2-.944-1.2-1.054-1.2.184.54.654 1.2m-150.291 73.2c0 .99.078 1.395.173.9.096-.495.096-1.305 0-1.8-.095-.495-.173-.09-.173.9m-164.016 4c0 .77.082 1.085.183.7.1-.385.1-1.015 0-1.4-.101-.385-.183-.07-.183.7m193.608 7.4c.004.88.086 1.193.182.695.096-.497.092-1.217-.008-1.6-.1-.382-.179.025-.174.905" fill="#9fa5eb"/><path d="m194.5 27.076c.385.1 1.015.1 1.4 0 .385-.101.07-.183-.7-.183s-1.085.082-.7.183m9.8.006c.495.096 1.305.096 1.8 0 .495-.095.09-.173-.9-.173s-1.395.078-.9.173m165.158 136.918c.317 1.725.544 2.051.536.767-.003-.532-.183-1.237-.4-1.567-.276-.422-.317-.185-.136.8m1.835 10.4c0 .77.082 1.085.183.7.1-.385.1-1.015 0-1.4-.101-.385-.183-.07-.183.7m-342.8.4c0 .77.082 1.085.183.7.1-.385.1-1.015 0-1.4-.101-.385-.183-.07-.183.7m164 .4c0 .77.082 1.085.183.7.1-.385.1-1.015 0-1.4-.101-.385-.183-.07-.183.7m180.483 24.8c0 6.27.056 8.835.123 5.7.068-3.135.068-8.265 0-11.4-.067-3.135-.123-.57-.123 5.7m-346.001 0c0 6.05.056 8.525.124 5.5s.068-7.975 0-11-.124-.55-.124 5.5m1.453 25.233c.016.752.184 1.727.375 2.167.223.515.264.087.115-1.2-.274-2.378-.529-2.881-.49-.967m342.865.367c0 .77.082 1.085.183.7.1-.385.1-1.015 0-1.4-.101-.385-.183-.07-.183.7m-341.606 7.4c.004.44.145 1.34.313 2 .274 1.078.306 1.098.313.2.004-.55-.137-1.45-.313-2-.251-.784-.319-.827-.313-.2m339.967 2.067c-.029.477-.158 1.197-.284 1.6-.218.694-.206.695.226.021.251-.391.379-1.111.285-1.6-.172-.887-.172-.887-.227-.021m-338.259 6.533c.159.77.444 1.565.633 1.766s.151-.339-.084-1.2c-.548-2.007-.926-2.397-.549-.566m336.683.45c-.23.908-.271 1.493-.09 1.3.373-.398.972-2.95.692-2.95-.1 0-.371.743-.602 1.65m-333.46 10.45c.15.495.437 1.076.638 1.291s.163-.19-.084-.9c-.507-1.453-.975-1.783-.554-.391m330.226.344c-.246.707-.378 1.356-.292 1.441.086.086.357-.423.604-1.129.246-.707.378-1.356.292-1.441-.086-.086-.357.423-.604 1.129m-6.379 16.573c-.67 1.471-.542 1.785.182.448.339-.625.541-1.211.449-1.302-.091-.092-.375.293-.631.854m-309.65 15.183c.002.22.371.85.821 1.4.543.664.679.731.404.2-.674-1.305-1.228-2.028-1.225-1.6m301.642.657c-.282.452-.425.909-.317 1.016.107.108.404-.195.66-.673.605-1.13.324-1.41-.343-.343m-300.042 2.143c.002.22.371.85.821 1.4.543.664.679.731.404.2-.674-1.305-1.228-2.028-1.225-1.6m122.445 6.667c-.033.587-.164 1.397-.29 1.8-.218.693-.205.694.225.023.251-.391.382-1.201.291-1.8l-.166-1.09zm-117.45 1.533c.614 1.123 3.859 5.6 4.06 5.6.11 0-.653-1.215-1.696-2.7-1.919-2.733-2.991-4.048-2.364-2.9m287.101 2.5c-.782 1.011-1.048 1.632-.575 1.34.474-.293 1.421-1.84 1.127-1.84-.091 0-.339.225-.552.5m-280.911 6.3c.697.88 1.357 1.6 1.467 1.6s-.37-.72-1.067-1.6-1.357-1.6-1.467-1.6.37.72 1.067 1.6m276.951-.7c-1.181 1.348-1.871 2.3-1.667 2.3.1 0 .761-.72 1.468-1.6 1.373-1.708 1.512-2.199.199-.7m-272.233 6.6c.876 1.045 2.01 2.26 2.52 2.7.509.44-.133-.415-1.427-1.9-2.678-3.073-3.506-3.679-1.093-.8m266.271.8c-1.294 1.485-1.936 2.34-1.427 1.9 1.021-.881 4.211-4.6 3.946-4.6-.091 0-1.225 1.215-2.519 2.7m-260.989 5.1c1.195 1.21 2.263 2.2 2.373 2.2s-.778-.99-1.973-2.2-2.263-2.2-2.373-2.2.778.99 1.973 2.2m256.41-.01c-1.19 1.205-2.084 2.259-1.987 2.344.098.084 1.141-.901 2.318-2.19 2.696-2.951 2.514-3.035-.331-.154m-251.61 5.135c0 .069.585.654 1.3 1.3l1.3 1.175-1.175-1.3c-1.095-1.212-1.425-1.484-1.425-1.175m245.775 1.175-1.175 1.3 1.3-1.175c1.212-1.095 1.484-1.425 1.175-1.425-.069 0-.654.585-1.3 1.3m-238.775 5.5c1.306 1.32 2.465 2.4 2.575 2.4s-.869-1.08-2.175-2.4-2.465-2.4-2.575-2.4.869 1.08 2.175 2.4m232.586.286-2.186 2.285 2.4-2.162c1.32-1.189 2.475-2.217 2.567-2.285.091-.068-.005-.124-.214-.124s-1.364 1.028-2.567 2.286m-228.1 3.717c.928.967 1.749 1.677 1.826 1.577.076-.099-.683-.89-1.687-1.758l-1.825-1.578zm222.914.868c-2.031 1.902-2.162 2.083-.6.827 1.866-1.502 3.73-3.32 3.362-3.281-.089.01-1.332 1.114-2.762 2.454m-6.633 5.358-1.567 1.429 1.7-1.296c1.553-1.184 1.932-1.562 1.567-1.562-.074 0-.839.643-1.7 1.429m-208.2.316c.533.656 2.033 1.648 2.033 1.344 0-.076-.585-.567-1.3-1.09-.804-.589-1.084-.686-.733-.254m203.333 3.095c-.935.662-1.7 1.293-1.7 1.401 0 .109.81-.36 1.8-1.041s1.8-1.32 1.8-1.419c0-.276-.076-.233-1.9 1.059m-199.3-.294c0 .11.54.584 1.2 1.054s1.2.764 1.2.654-.54-.584-1.2-1.054-1.2-.764-1.2-.654m5.8 4.061c.44.359 1.16.828 1.6 1.044l.8.393-.8-.651c-.44-.359-1.16-.828-1.6-1.044l-.8-.393zm5.4 3.357c.55.45 1.18.819 1.4.821.428.003-.295-.551-1.6-1.225-.531-.275-.464-.139.2.404m177 .036c-.66.437-.995.796-.744.797.437.003 2.555-1.559 2.144-1.581-.11-.006-.74.347-1.4.784m-174.2 1.564c.55.45 1.18.819 1.4.821.428.003-.295-.551-1.6-1.225-.531-.275-.464-.139.2.404m171.4.036c-.66.437-1.02.792-.8.788.401-.006 2.576-1.565 2.2-1.576-.11-.004-.74.351-1.4.788m-152.2 9.431c0 .27 2.078 1.025 2.276.826.091-.09-.384-.356-1.056-.59-.671-.234-1.22-.34-1.22-.236m4 1.702c.33.203 1.05.491 1.6.638.695.186.817.154.4-.104-.33-.203-1.05-.491-1.6-.638-.695-.186-.817-.154-.4.104m124.2.281c-1 .482-1.034.537-.2.334 1.133-.277 2.407-.927 1.8-.918-.22.003-.94.266-1.6.584m-119.8 1.319c.33.203 1.05.491 1.6.638.695.186.817.154.4-.104-.33-.203-1.05-.491-1.6-.638-.695-.186-.817-.154-.4.104m115.4.281c-1 .482-1.034.537-.2.334 1.133-.277 2.407-.927 1.8-.918-.22.003-.94.266-1.6.584m-110.4 1.6c.66.303 1.47.544 1.8.538.33-.007-.03-.255-.8-.552-1.826-.703-2.545-.693-1 .014m105.8-.014c-.77.297-1.13.545-.8.552.33.006 1.14-.235 1.8-.538 1.545-.707.826-.717-1-.014m-101.38 1.358c.209.197 1.01.465 1.78.596l1.4.239-1.4-.566c-1.674-.677-2.316-.774-1.78-.269m96.18.269-1.4.566 1.4-.239c.77-.131 1.571-.399 1.78-.596.536-.505-.106-.408-1.78.269m-90.6 1.373c.136.22.642.387 1.124.372.845-.027.847-.041.076-.372-1.101-.473-1.492-.473-1.2 0m85.2.215c-1.588.55-1.59.552-.2.327.77-.124 1.571-.387 1.78-.584.467-.44.407-.43-1.58.257m-78.6 1.327c.33.197 1.5.464 2.6.594 1.255.147 1.628.115 1-.088-1.667-.539-4.266-.904-3.6-.506m71 .274-2 .54 1.8-.229c.99-.126 2.16-.375 2.6-.553 1.247-.504-.158-.362-2.4.242m-61.6 1.353c.44.178 2.06.427 3.6.555 1.939.16 2.308.131 1.2-.094-2.573-.521-5.688-.821-4.8-.461m52 .074c-3.59.516-3.958.736-.8.478 1.54-.126 3.16-.373 3.6-.549.986-.396.327-.379-2.8.071m-36.758 1.634c1.999.355 21.784.35 24.158-.007.99-.148-4.391-.27-11.958-.27s-13.057.125-12.2.277" fill="#8b5fde"/><path d="m191.505 27.483c.497.096 1.217.092 1.6-.008.382-.1-.025-.179-.905-.174-.88.004-1.193.086-.695.182m124.478 44.617c.981 1.045 1.836 1.9 1.9 1.9.301 0-.017-.359-1.783-2.017l-1.9-1.783zm-232.998.8-1.985 2.1 2.1-1.985c1.951-1.844 2.283-2.215 1.985-2.215-.063 0-1.008.945-2.1 2.1m-10.199 10.2-2.186 2.3 2.3-2.186c2.137-2.032 2.483-2.414 2.186-2.414-.062 0-1.097 1.035-2.3 2.3m254.797.6c.981 1.045 1.836 1.9 1.9 1.9.301 0-.017-.359-1.783-2.017l-1.9-1.783zm44.118 97.7c.004.88.086 1.193.182.695.096-.497.092-1.217-.008-1.6-.1-.382-.179.025-.174.905m-343.6.4c.004.88.086 1.193.182.695.096-.497.092-1.217-.008-1.6-.1-.382-.179.025-.174.905m-.408 3.4c0 .77.082 1.085.183.7.1-.385.1-1.015 0-1.4-.101-.385-.183-.07-.183.7m-.384 6.8c0 .99.078 1.395.173.9.096-.495.096-1.305 0-1.8-.095-.495-.173-.09-.173.9m345.2 0c0 .99.078 1.395.173.9.096-.495.096-1.305 0-1.8-.095-.495-.173-.09-.173.9m-345.2 16c0 .99.078 1.395.173.9.096-.495.096-1.305 0-1.8-.095-.495-.173-.09-.173.9m345.205.2c.003 1.1.081 1.503.173.895.092-.609.09-1.509-.005-2-.095-.492-.171.005-.168 1.105m-344.813 6.4c.004.88.086 1.193.182.695.096-.497.092-1.217-.008-1.6-.1-.382-.179.025-.174.905m.4 3.6c.004.88.086 1.193.182.695.096-.497.092-1.217-.008-1.6-.1-.382-.179.025-.174.905m343.608.6c0 .99.078 1.395.173.9.096-.495.096-1.305 0-1.8-.095-.495-.173-.09-.173.9m-301.792 95.1c1.541 1.705 3.306 3.55 3.923 4.1s-.566-.845-2.629-3.1-3.828-4.1-3.923-4.1 1.088 1.395 2.629 3.1m257.868 2.2-1.985 2.1 2.1-1.985c1.951-1.844 2.283-2.215 1.985-2.215-.063 0-1.008.945-2.1 2.1m-244.185 11.643c.99 1.055 2.16 2.109 2.6 2.342s.71.343.6.246c-.11-.098-1.28-1.152-2.6-2.342l-2.4-2.164zm232.185.357-1.985 2.1 2.1-1.985c1.155-1.092 2.1-2.037 2.1-2.1 0-.298-.371.034-2.215 1.985m-176.585 33.833c.33.203 1.05.491 1.6.638.695.186.817.154.4-.104-.33-.203-1.05-.491-1.6-.638-.695-.186-.817-.154-.4.104m9.2 3.2c.33.203 1.05.491 1.6.638.695.186.817.154.4-.104-.33-.203-1.05-.491-1.6-.638-.695-.186-.817-.154-.4.104m5.633 1.811c.092.079.707.264 1.367.412.876.196 1.038.159.6-.138-.54-.365-2.368-.62-1.967-.274m89.967.274c-.438.297-.276.334.6.138 1.471-.329 1.79-.558.767-.55-.422.003-1.037.189-1.367.412m-74.6 3.182c1.692.431 3.144.431 1.8 0-.55-.176-1.45-.317-2-.313-.898.007-.878.039.2.313m59.4 0c-1.344.431.108.431 1.8 0 1.078-.274 1.098-.306.2-.313-.55-.004-1.45.137-2 .313m-48.5 1.482c.495.096 1.305.096 1.8 0 .495-.095.09-.173-.9-.173s-1.395.078-.9.173m37.6 0c.495.096 1.305.096 1.8 0 .495-.095.09-.173-.9-.173s-1.395.078-.9.173m-27 .805c.605.091 1.595.091 2.2 0 .605-.092.11-.167-1.1-.167s-1.705.075-1.1.167m16 0c.605.091 1.595.091 2.2 0 .605-.092.11-.167-1.1-.167s-1.705.075-1.1.167" fill="#c0a9ed"/></g></svg>