<svg height="400" viewBox="0 0 400 400" width="400" xmlns="http://www.w3.org/2000/svg"><g fill-rule="evenodd"><path d="m146.891 108.744c-.23.142-.544.934-.7 1.761-.155.827-.441 1.602-.636 1.723s-.355.836-.355 1.59c0 1.506-.594 4.294-1.449 6.795-.303.888-.551 2.08-.551 2.65s-.368 2.453-.818 4.186-.982 4.051-1.182 5.151c-.199 1.1-.646 3.26-.992 4.8-.347 1.54-.74 3.52-.873 4.4-.134.88-.376 1.78-.539 2-.162.22-.417 1.3-.567 2.4s-.422 2.54-.605 3.2c-.182.66-.547 2.28-.811 3.6-.263 1.32-.658 3.12-.878 4s-.559 2.5-.752 3.6-.637 3.17-.986 4.6-.727 3.14-.839 3.8c-.113.66-.63 3-1.149 5.2-.52 2.2-1.046 4.63-1.17 5.4s-.512 2.57-.861 4-.793 3.41-.986 4.4c-.192.99-.632 3.06-.977 4.6s-.729 3.43-.855 4.2-.336 1.67-.468 2-.464 1.77-.738 3.2c-.273 1.43-.701 3.41-.951 4.4s-.601 2.79-.781 4c-.181 1.21-.513 2.65-.74 3.2-.226.55-.722 2.759-1.101 4.91-.379 2.15-.845 4.006-1.035 4.124-.19.117-.346.83-.346 1.584 0 1.506-.594 4.294-1.449 6.795-.303.888-.551 2.1-.551 2.695s-.455 2.832-1.01 4.971c-1.373 5.282-1.843 4.921 6.407 4.921h7.023l.43-1.1c.237-.605.527-1.82.645-2.7.117-.88.375-1.806.573-2.058.198-.251.458-1.421.577-2.6.12-1.178.373-2.502.562-2.942s.433-1.43.543-2.2.493-2.66.851-4.2.811-3.7 1.007-4.8c.195-1.1.647-3.08 1.003-4.4s.813-3.39 1.016-4.6c.578-3.451 1.358-6.718 1.679-7.04.162-.161.294-1.085.294-2.053s.193-2.12.428-2.56c.418-.78 1.028-3.526 1.411-6.347.104-.77.444-2.3.754-3.4s.765-3.08 1.01-4.4.706-3.21 1.024-4.2c.317-.99.576-2.439.575-3.22s.16-1.591.357-1.8.455-1.1.572-1.98c.398-2.999 1.157-6.399 1.513-6.78.196-.209.356-.929.355-1.6-.001-1.319 1.06-6.319 1.617-7.62.188-.44.429-1.61.535-2.6.248-2.304 1.174-6.258 1.555-6.64.162-.161.294-.972.294-1.801s.195-2.014.434-2.633c.505-1.308 1.137-4.35 1.44-6.926.117-.99.364-1.989.551-2.219.186-.23.536-1.49.777-2.8.897-4.875 2.212-11.07 2.5-11.781.134-.33.334-1.23.446-2 .111-.77.506-2.66.878-4.2.371-1.54.697-3.7.724-4.8l.05-2-6.645-.057c-3.655-.032-6.834.058-7.064.201m106.209-.052c-.385.092-.7.348-.7.569s-1.125 2.228-2.5 4.459c-3.154 5.118-3.105 5.038-4.3 7.08-.55.94-1.18 2-1.4 2.356-3.873 6.265-4.305 6.988-5.208 8.726-.366.704-.919 1.492-1.229 1.749s-.563.628-.563.825-1.17 2.222-2.6 4.5-2.6 4.262-2.6 4.409c0 .148-.315.609-.7 1.025s-1.05 1.443-1.477 2.283c-.428.84-1.193 2.1-1.7 2.8-.508.701-.923 1.377-.923 1.503 0 .127-1.318 2.344-2.928 4.927-1.611 2.583-3.049 4.967-3.197 5.297-.147.33-1.275 2.22-2.505 4.2-1.231 1.98-2.645 4.32-3.143 5.2s-2.58 4.3-4.627 7.6c-4.268 6.882-4.824 7.805-6.017 10-.479.88-.986 1.69-1.127 1.8s-.602.83-1.026 1.6c-.423.77-.873 1.49-1 1.6-.204.177-.578.821-2.201 3.785-.236.431-.654 1.029-.929 1.328s-.5.801-.5 1.116c0 .314-.167.571-.371.571s-.689.72-1.077 1.6-.851 1.6-1.029 1.6-.323.208-.323.462-.422 1.019-.938 1.7-1.011 1.418-1.1 1.638c-.135.333-1.287 2.335-3.762 6.537-.22.374-.805 1.244-1.3 1.933s-.9 1.366-.9 1.503c0 .198-2.927 5.058-5.196 8.627-.21.33-.673 1.177-1.03 1.882-.356.704-.901 1.492-1.211 1.749s-.563.612-.563.79c0 .29-3.886 6.78-6.214 10.379-.498.77-1.027 1.809-1.176 2.308l-.269.908 8.317-.108 8.318-.108 2.131-3.4c1.173-1.87 2.245-3.67 2.383-4 .303-.727 3.382-5.719 3.7-6 .125-.11.446-.65.716-1.2.629-1.286 1.682-3.085 2.694-4.603 1.51-2.266 1.824-2.798 2.058-3.497.13-.385.394-.7.589-.7.194 0 .353-.182.353-.404 0-.223.9-1.841 2-3.596s2-3.295 2-3.422.405-.804.901-1.505c1.39-1.964 1.902-2.811 2.157-3.573.13-.385.394-.7.589-.7.194 0 .353-.192.353-.427 0-.234.405-.999.901-1.7 1.197-1.691 1.74-2.595 2.567-4.273.38-.77.803-1.49.941-1.6s.598-.83 1.021-1.6c.424-.77.878-1.49 1.009-1.6.132-.11.692-1.01 1.246-2 1.937-3.467 2.797-4.8 3.095-4.8.359 0 3.275 1.532 5.457 2.867.86.526 2.283 1.311 3.163 1.744.88.434 1.69.879 1.8.99.11.11 1.73.994 3.6 1.964 1.87.969 3.46 1.914 3.533 2.099.074.185.392.336.708.336s1.246.418 2.067.929 1.762 1.055 2.092 1.208 1.86.99 3.4 1.859c1.54.87 3.61 1.991 4.6 2.492s1.89 1.001 2 1.112c.11.11.74.483 1.4.829s1.56.821 2 1.056c.44.234 1.475.757 2.3 1.162.825.404 1.5.874 1.5 1.044s.349.309.776.309.888.18 1.025.401c.136.221 1.002.768 1.923 1.218.922.449 2.936 1.53 4.476 2.402 1.54.873 3.188 1.754 3.661 1.958.474.204.979.563 1.124.796.144.234.612.425 1.039.425s.777.135.779.3.407.493.9.73c2.553 1.223 6.113 3.207 6.23 3.47.074.165.468.3.877.3.408 0 .847.169.974.375.128.206.723.626 1.324.933 1.464.748 6.749 3.596 8.492 4.575 4.446 2.497 6.329 3.529 7.4 4.054.66.324 1.678.921 2.262 1.326 2.942 2.042 5.36-1.378 6.769-9.571.581-3.38.733-3.161-3.729-5.362-1.483-.731-2.698-1.465-2.7-1.63-.001-.165-.205-.3-.453-.3s-1.733-.726-3.3-1.613-3.119-1.765-3.449-1.95-1.32-.702-2.2-1.147c-1.452-.735-3.454-1.811-8-4.3-.88-.482-2.68-1.461-4-2.176s-3.48-1.918-4.8-2.673c-2.621-1.5-3.198-1.817-4.4-2.415-.44-.219-1.61-.847-2.6-1.396-4.27-2.368-6.436-3.542-10.2-5.527-2.2-1.161-4.18-2.239-4.4-2.396s-1.75-1.01-3.4-1.895-3.63-1.963-4.4-2.395c-2.746-1.542-5.853-3.23-9.4-5.108-1.98-1.048-3.78-2.041-4-2.207s-1.705-.971-3.3-1.79c-3.481-1.787-3.564-2.154-1.296-5.728.878-1.384 1.596-2.611 1.596-2.727s.45-.8 1-1.521c.55-.722 1-1.436 1-1.588 0-.151 1.35-2.447 3-5.1 1.65-2.654 3-4.988 3-5.186 0-.199.177-.362.392-.362.216 0 .506-.45.644-1s.367-1 .51-1c.142 0 .5-.544.794-1.209s.743-1.43.997-1.701c.607-.646 2.254-3.498 2.535-4.39.122-.385.372-.7.556-.7s.647-.675 1.03-1.5 1.067-2.04 1.52-2.7c1.13-1.645 1.776-2.69 2.104-3.4.152-.33 1.321-2.276 2.597-4.324 1.277-2.048 2.321-3.871 2.321-4.051s.253-.537.563-.794.857-1.045 1.216-1.749c.359-.705 1.051-1.929 1.537-2.719.486-.791 2.504-4.091 4.484-7.335 1.98-3.243 3.902-6.376 4.271-6.962s.684-1.246.7-1.466c.028-.391-14.945-.671-16.471-.308" fill="#f7f5f8"/><path d="m0 200v200h200 200v-200-200h-200-200zm297.171-106.967c.974.312 2.117.567 2.54.567.422 0 1.425.288 2.229.641.803.352 1.91.827 2.46 1.056 1.902.79 3.6 1.686 3.6 1.9 0 .118.904.643 2.009 1.168 1.104.524 3.309 2.181 4.9 3.681 1.59 1.5 3.026 2.734 3.191 2.741s.309.238.32.513c.01.275.732 1.22 1.603 2.1s1.798 2.185 2.061 2.9c.262.715.606 1.3.765 1.3.158 0 .406.538.55 1.195.144.658.429 1.299.632 1.424.203.126.369.578.369 1.005s.158.776.35.776c.193 0 .465.574.605 1.275.203 1.013.357 1.173.75.78 1.256-1.256 1.372 4.041 1.283 58.545-.054 33.262-.239 54.845-.482 56.2-.216 1.21-.419 1.975-.45 1.7-.083-.743-.847-.605-1.111.2-.126.385-.66 1.65-1.187 2.811s-.958 2.376-.958 2.7-.158.589-.351.589c-.194 0-.572.531-.841 1.18s-1.055 1.791-1.748 2.538-2.403 2.601-3.799 4.12c-2.634 2.865-3.436 3.491-6.461 5.04-.99.507-1.859 1.055-1.932 1.218-.117.262-1.161.781-3.868 1.923-.44.185-1.645.707-2.678 1.159s-2.413.822-3.067.822c-.653 0-1.258.209-1.343.465-.115.344-5.387.474-20.334.5l-20.178.035-.11 6.346c-.076 4.341.034 6.522.349 6.9.378.456 3.456.554 17.361.554 14.536 0 16.972.084 17.4.6.274.33.733.6 1.02.6s.906.488 1.375 1.085c.646.821.932.956 1.179.557.211-.342.416-.382.583-.112.141.228.084.521-.126.651-.232.143-.156.779.193 1.615 1.368 3.274-.539 9.804-2.863 9.804-.272 0-.554.135-.628.3-.765 1.722-.897 1.728-35.493 1.707-29.429-.018-32.959.047-34.424.633-1.277.511-1.973.567-3.2.255-2.729-.692-3.37.448-3.616 6.436-.209 5.077-1.435 8.342-3.538 9.422-.818.419-19.477.606-22.357.224-3.595-.478-5.036-3.165-5.303-9.892-.232-5.858-.235-5.863-3.602-5.892-1.299-.011-2.522-.262-2.985-.612-.68-.514-5.252-.591-34.16-.574l-33.376.019-1.531-1.013c-.842-.557-1.694-1.013-1.893-1.013-.357 0-1.405-1.39-2.295-3.043-.905-1.682-1.078-5.234-.317-6.522.559-.947.601-1.3.208-1.773-.306-.369-.343-.682-.098-.833.215-.133.512-.047.66.192.181.293.482.231.927-.192.363-.343 1.226-1.076 1.918-1.627l1.257-1.002h16.794c13.334 0 16.882-.108 17.227-.523.549-.662.69-12.611.155-13.146-.236-.236-7.97-.334-20.232-.257-15.605.099-19.892.019-20.042-.374-.106-.275-.693-.501-1.304-.502-1.038-.002-5.414-1.566-5.989-2.141-.141-.141-.651-.257-1.132-.257s-1.361-.45-1.954-1c-.594-.55-1.241-1-1.439-1-.555 0-4.079-2.409-5.215-3.566-.559-.569-1.954-1.896-3.1-2.95s-2.084-2.046-2.084-2.204-.315-.489-.7-.735c-.385-.247-1.15-1.325-1.7-2.397-.55-1.071-1.135-2.008-1.3-2.081-.165-.074-.3-.391-.3-.706 0-.314-.171-.884-.381-1.266-.427-.78-1.404-3.107-1.781-4.24-.195-.587-.366-.647-.807-.281-1.09.905-1.231-5.688-1.231-57.574 0-54.276.112-58.853 1.432-58.508.579.152.768-.007.768-.645 0-.466.18-.847.4-.847s.4-.287.4-.638.296-1.206.657-1.9c.362-.694.821-1.59 1.022-1.991 1.599-3.2 2.485-4.374 5.919-7.849 3.719-3.764 6.591-6.014 7.694-6.029.279-.004.934-.455 1.454-1.004.52-.548 1.42-1.111 2-1.25.58-.14 1.774-.576 2.654-.969 5.198-2.323-2.149-2.151 101-2.37 99.939-.212 96.463-.234 99.171.633m-153.571 16.194c-.55.161-9.1.318-19 .347-14.157.043-18.205.168-18.961.587-.528.293-1.324.437-1.767.321-.644-.168-.752-.067-.535.498.194.506.113.648-.283.496-.305-.117-1.047.043-1.65.356-.602.312-1.3.568-1.55.568-.25.001-.977.451-1.616 1-.639.55-1.314 1-1.5 1s-.338.247-.338.55c0 .302-.81 1.334-1.8 2.294-.99.959-1.8 1.889-1.8 2.066 0 .302-1.536 2.651-2.021 3.09-1.211 1.097-1.992 101.333-.807 103.548.235.44.428 1.441.428 2.226 0 .784.175 1.426.388 1.426.214 0 .842.959 1.396 2.13.557 1.176 1.458 2.371 2.012 2.668.552.295 1.004.749 1.004 1.007 0 .724 3.274 3.798 4.327 4.063.514.129 1.83.666 2.923 1.193 2.395 1.156 6.283 2.214 7.138 1.943.34-.108 1.849-.048 3.353.133 3.28.395 3.859.022 3.859-2.486 0-.93.162-1.862.359-2.071s.439-1.1.537-1.98c.21-1.894 1.053-5.314 1.551-6.295.194-.382.361-1.462.371-2.4.009-.938.277-2.425.594-3.305s.579-1.994.582-2.476.186-.988.406-1.124.4-.945.4-1.798c0-.852.195-2.057.434-2.676.477-1.236 1.05-3.977 1.511-7.227.163-1.156.513-2.317.776-2.58.264-.264.479-1.422.479-2.575s.18-2.208.4-2.344.4-.832.4-1.547.264-1.649.587-2.077c.352-.465.593-1.688.6-3.052.007-1.252.174-2.376.371-2.498.197-.121.444-.897.549-1.723.307-2.401 1.151-6.242 1.538-6.998.195-.382.363-1.372.373-2.2.009-.828.277-2.225.594-3.105s.579-2.084.582-2.676.186-1.188.406-1.324.4-1.052.4-2.036c0-.985.27-2.436.6-3.226.33-.789.6-1.853.6-2.363s.18-1.039.4-1.175.4-1.064.4-2.063.257-2.383.571-3.077c.314-.693.665-1.98.78-2.86.502-3.853.94-5.851 1.379-6.29.258-.258.47-1.503.47-2.766s.18-2.408.4-2.544.4-.845.4-1.575.27-1.551.6-1.825c.408-.338.6-1.245.6-2.825 0-1.28.18-2.439.4-2.575s.398-.642.395-1.124c-.007-1.174 1.194-6.698 1.645-7.571.198-.382.358-1.192.357-1.8-.004-1.274 1.135-6.371 1.653-7.4.193-.382.351-1.462.352-2.4.002-.938.272-2.221.6-2.851.329-.63.598-1.654.598-2.276s.18-1.242.4-1.378c1.132-.7-.059-1.424-1.6-.973m18.384 1.773c-.263.88-.727 2.397-1.031 3.371s-.553 2.513-.553 3.42-.171 1.82-.379 2.029c-.347.348-.954 3.052-1.476 6.58-.114.77-.463 1.967-.776 2.66-.313.694-.569 2.078-.569 3.077s-.161 1.915-.358 2.037c-.197.121-.456.897-.576 1.723-.647 4.448-1.12 6.717-1.472 7.069-.217.217-.394.849-.394 1.405 0 1.37-1.287 7.379-1.634 7.629-.153.11-.371 1.1-.484 2.2-.289 2.808-1.075 6.329-1.513 6.78-.203.209-.369 1.131-.369 2.05 0 .918-.27 2.435-.6 3.37s-.6 2.207-.6 2.827c0 .619-.18 1.237-.4 1.373s-.4.968-.4 1.85c0 .881-.196 1.969-.436 2.418-.24.448-.598 1.831-.795 3.073-.198 1.243-.555 3.069-.795 4.059-.239.99-.621 2.88-.85 4.2-.228 1.32-.562 2.76-.742 3.2-.329.804-.481 1.569-1.193 6-.212 1.32-.555 2.76-.762 3.2-.208.44-.466 1.43-.574 2.2-.384 2.742-1.12 5.806-1.484 6.18-.203.209-.369 1.265-.369 2.346 0 1.723-.611 4.28-1.643 6.874-.175.44-.403 1.7-.505 2.8-.229 2.446-1.01 6.154-1.494 7.095-.197.382-.364 1.372-.371 2.2s-.277 1.854-.6 2.281c-.325.43-.587 1.626-.587 2.677 0 1.045-.161 1.999-.358 2.121-.197.121-.455.897-.574 1.723-.119.827-.379 2.357-.578 3.4-.481 2.521-2.226 2.304 18.477 2.298l18.433-.004.764-1.596c.421-.877.872-1.595 1.003-1.595s.496-.585.811-1.3.809-1.538 1.097-1.829c.289-.29.525-.785.525-1.1 0-.314.159-.571.353-.571.195 0 .459-.315.589-.7.245-.731 1.093-2.156 1.487-2.5.126-.11.353-.47.505-.8.151-.33.625-1.14 1.053-1.8.427-.66 1.091-1.83 1.474-2.6.384-.77.805-1.49.936-1.6.413-.346 3.603-5.565 3.603-5.894 0-.173.45-.799 1-1.393.55-.593 1-1.446 1-1.896 0-.449.14-.817.311-.817.17 0 1.111-1.35 2.089-3s1.919-3 2.089-3c.171 0 .311-.351.311-.78s.235-.924.522-1.1c.286-.176.835-.995 1.218-1.82.384-.825.869-1.5 1.079-1.5.209 0 .381-.298.381-.662s.41-1.219.911-1.9c.5-.681 1.261-1.913 1.69-2.738.43-.825.92-1.5 1.09-1.5s.309-.282.309-.627c0-.344.45-1.216 1-1.937.55-.722 1-1.52 1-1.774s.16-.462.357-.462c.196 0 .459-.409.584-.908s.595-1.302 1.044-1.783c.448-.482.815-1.05.815-1.264 0-.213.225-.626.501-.916.275-.291.856-1.204 1.291-2.029.434-.825.929-1.5 1.099-1.5s.309-.36.309-.8.152-.8.337-.8.68-.675 1.1-1.5.853-1.59.963-1.7c.404-.404 1.23-1.82 1.458-2.5.13-.385.373-.7.542-.7s.421-.315.56-.7.475-1.064.746-1.508c.272-.445 1.032-1.705 1.689-2.8.657-1.096 1.419-2.352 1.694-2.792.274-.44.612-1.115.751-1.5s.374-.7.522-.7.798-1.011 1.445-2.248c.647-1.236 1.405-2.335 1.684-2.442.28-.108.509-.474.509-.815s.41-1.176.911-1.857c.5-.681 1.265-1.925 1.7-2.765.434-.84 1.104-1.867 1.489-2.283s.7-1.012.7-1.324c0-.313.27-.792.6-1.066s.6-.642.6-.817c0-.176.9-1.771 2-3.544 1.1-1.774 2-3.365 2-3.536s.45-.796 1-1.39c.55-.593 1-1.278 1-1.522 0-.245.45-1.034 1-1.755.55-.722 1-1.458 1-1.636s.45-.914 1-1.636c.55-.721 1-1.503 1-1.737 0-.235.141-.427.312-.427.172 0 .523-.495.78-1.1s.92-1.82 1.472-2.7 1.295-2.171 1.651-2.869.903-1.367 1.216-1.488c.313-.12.569-.522.569-.893s.45-1.264 1-1.986c.55-.721 1-1.503 1-1.737 0-.235.159-.427.353-.427.195 0 .463-.315.597-.7.133-.385.794-1.6 1.467-2.7.674-1.1 1.327-2.315 1.451-2.7s.343-.7.488-.7c.144 0 .616-.675 1.049-1.5s.907-1.59 1.053-1.7-19.773-.2-44.265-.2h-44.531zm108.248-1c-.228.655-1.096 2.081-1.461 2.4-.126.11-.35.47-.498.8-.147.33-.494.949-.77 1.377-1.83 2.827-3.103 5.044-3.103 5.404 0 .23-.148.419-.329.419s-.728.765-1.215 1.7-1.056 1.97-1.265 2.3c-2.299 3.645-5.191 8.506-5.191 8.728 0 .154-.45.765-1 1.359-.55.593-1 1.334-1 1.647 0 .312-.253.778-.563 1.035s-.857 1.045-1.217 1.749c-.36.705-1.034 1.912-1.499 2.682s-1.045 1.76-1.289 2.2c-.245.44-1.117 1.838-1.938 3.108-.822 1.269-1.494 2.422-1.494 2.562s-.424.811-.942 1.492c-.519.681-1.061 1.611-1.205 2.067-.144.457-.576 1.177-.96 1.6-.385.424-.918 1.221-1.187 1.771-.268.55-.945 1.72-1.503 2.6-.559.88-1.124 1.915-1.256 2.3s-.399.7-.594.7c-.194 0-.353.27-.353.6s-.168.6-.373.6-.501.403-.657.895c-.252.794-2.033 3.781-2.566 4.305-.112.11-.547.875-.967 1.7s-.915 1.5-1.1 1.5-.337.282-.337.627c0 .344-.476 1.25-1.058 2.013-1.092 1.432-.688 2.505.958 2.547.275.007.502.148.504.313s.812.655 1.8 1.09c.988.434 1.796.915 1.796 1.068s.54.397 1.2.542 1.201.384 1.203.532c.004.33 1.97 1.268 2.657 1.268.275 0 .644.242.82.537s1.085.87 2.02 1.277 1.7.885 1.7 1.063.272.323.605.323c.767 0 2.296.845 2.715 1.5.176.275.671.5 1.1.5s.78.18.78.4.228.4.507.4 1.156.441 1.949.979c.792.539 1.896 1.094 2.453 1.234s1.348.554 1.76.92c.411.367 1.914 1.266 3.339 1.998 1.426.731 3.492 1.844 4.592 2.473 1.1.628 2.742 1.494 3.648 1.924.907.43 1.773.982 1.924 1.227s.61.445 1.018.445c.409 0 .803.135.877.3.127.286.601.566 4.733 2.796.99.534 1.971 1.136 2.18 1.337.209.202.611.367.893.367s1.689.72 3.127 1.6 2.881 1.6 3.207 1.6.593.18.593.4.248.4.551.4.775.27 1.049.6.836.6 1.249.6.752.135.754.3c.003.402 2.316 1.7 3.029 1.7.313 0 .57.135.572.3s.812.655 1.8 1.09c.988.434 1.798.884 1.8 1 .002.115.812.565 1.8 1 .988.434 1.796.909 1.796 1.056s.45.38 1 .518 1 .428 1 .644c0 .215.242.392.539.392.687 0 2.973 1.133 3.277 1.625.127.206.581.375 1.008.375s.776.18.776.4.18.4.4.4c.55 0 .502-89.055-.05-91.8-.221-1.1-.502-2.72-.625-3.6-.122-.88-.351-1.69-.508-1.8-.158-.11-.795-1.077-1.418-2.148-.622-1.071-1.506-2.349-1.965-2.84s-1.55-1.658-2.426-2.594c-1.65-1.763-4.301-3.26-5.953-3.36-.617-.038-.881-.246-.748-.593.135-.351-.054-.491-.551-.408-.416.07-1.296-.088-1.956-.35-1.982-.788-23.698-.884-23.968-.107m-49.067 81.043c-.554.666-1.324 1.919-1.82 2.957-.158.33-.399.69-.537.8-.137.11-.57.83-.962 1.6-.391.77-1.678 2.93-2.859 4.8s-2.533 4.165-3.003 5.1-1 1.7-1.176 1.7c-.177 0-.424.409-.549.908s-.55 1.275-.944 1.723c-.393.449-1.053 1.435-1.466 2.193-1.771 3.244-2.786 4.989-3.01 5.176-.131.11-.585.83-1.009 1.6-.423.77-.883 1.49-1.021 1.6s-.565.875-.949 1.7c-.383.825-.869 1.5-1.079 1.5-.209 0-.381.282-.381.627 0 .344-.45 1.216-1 1.937-.55.722-1 1.442-1 1.6 0 .159-.415.862-.923 1.563-.507.7-1.268 1.948-1.691 2.773-.422.825-.907 1.5-1.077 1.5s-.309.24-.309.534c0 .293-.72 1.561-1.6 2.817-.88 1.257-1.6 2.547-1.6 2.867s-.159.582-.353.582c-.195 0-.449.364-.565.81l-.212.809 50.865-.034 50.865-.035 2.6-.875c2.065-.695 2.626-1.06 2.728-1.775.127-.897 1.391-1.278 1.839-.554.405.656 2.289-.052 3.715-1.398.787-.741 1.565-1.348 1.731-1.348 1.533 0 .132-1.923-1.86-2.553-.466-.147-1.169-.623-1.562-1.057-.393-.435-1.005-.79-1.36-.79s-1.272-.411-2.038-.913-2.113-1.267-2.993-1.7-1.66-.922-1.733-1.087c-.074-.165-.376-.3-.672-.3s-.776-.232-1.066-.515c-.538-.524-2.456-1.497-4.435-2.249-.602-.229-1.094-.601-1.094-.826 0-.226-.338-.41-.751-.41s-.975-.27-1.249-.6-.746-.6-1.049-.6-.551-.18-.551-.4-.298-.4-.662-.4-1.252-.45-1.974-1c-.721-.55-1.582-1-1.914-1-.331 0-.711-.175-.843-.389-.133-.214-.908-.695-1.724-1.069-.816-.373-1.726-.865-2.023-1.093-.298-.228-.834-.457-1.193-.51-.359-.052-.716-.285-.793-.517s-.374-.422-.658-.422c-.285 0-.742-.27-1.016-.6s-.821-.6-1.216-.6c-.394 0-.777-.135-.851-.3-.158-.356-2.578-1.709-5.233-2.927-1.045-.479-1.9-1.029-1.9-1.222s-.317-.351-.704-.351-1.189-.45-1.783-1c-.593-.55-1.36-1-1.703-1-.344 0-1.339-.45-2.21-1s-1.746-1-1.943-1c-.198 0-.583-.27-.857-.6s-.836-.6-1.249-.6-.751-.18-.751-.4-.248-.4-.551-.4-.775-.27-1.049-.6-.836-.6-1.249-.6-.753-.135-.756-.3c-.002-.165-.767-.657-1.7-1.094-.932-.437-1.785-.892-1.895-1.011s-.965-.554-1.9-.967c-.935-.412-1.7-.902-1.7-1.089 0-.186-.298-.339-.662-.339s-1.252-.45-1.974-1c-.721-.55-1.571-1-1.888-1-.318 0-.802-.27-1.076-.6s-.746-.6-1.049-.6-.551-.18-.551-.4-.366-.4-.813-.4c-.446 0-.916-.27-1.042-.6-.127-.33-.661-.6-1.188-.6-.526 0-.957-.18-.957-.4s-.255-.4-.567-.4c-.311 0-.626-.135-.7-.3-.545-1.228-3.611-1.97-4.368-1.057m80.871 45.726c-.31.196-.805.264-1.1.151-.846-.324-.63-.521.564-.514.801.005.947.103.536.363m-148.193 23.768c-.401 1.494-.264 2.985.329 3.578.496.496.494.722-.014 1.7-1.277 2.462.955 7.647 3.056 7.097.435-.113.786-.006.786.241 0 .598 21.772.624 23.48.029 1.855-.647 2.83-3.266 3.069-8.245.281-5.854 1.728-5.37-15.856-5.312l-14.619.048zm62.139-.315c-2.077 2.503.239 12.038 3.135 12.906 2.059.617 22.717.664 23.095.053.168-.272.423-.284.724-.035 1.917 1.588 4.966-9.876 3.412-12.831-.529-1.007-29.534-1.096-30.366-.093" fill="#1c0c54"/><path d="m105.466 94.023c-1.504.175-3.034.437-3.4.583s-1.886.59-3.377.987c-5.866 1.561-16.243 9.592-18.729 14.497-.477.94-1.002 1.8-1.166 1.91-.306.205-3.095 6.944-4.056 9.8-.44 1.309-.538 11.217-.538 54.4v52.8l.934 2.6c1.384 3.855 2.173 5.621 4.621 10.344 1.034 1.993 8.759 9.462 11.38 11.002 1.175.69 2.615 1.554 3.2 1.92.586.366 2.055.961 3.265 1.322s2.74.818 3.4 1.016c3.759 1.128 8.9 1.19 99 1.19s95.241-.062 99-1.19c.66-.198 2.19-.655 3.4-1.016s2.678-.956 3.261-1.322c.584-.366 2.204-1.331 3.6-2.143 4.591-2.672 10.482-9.137 12.87-14.123 4.447-9.289 4.345-7.669 4.176-66-.127-44.237-.193-48.188-.837-50.4-1.032-3.548-3.498-9.422-4.55-10.838-.506-.681-.92-1.447-.92-1.704 0-2.415-12.683-12.221-17.796-13.76-1.322-.397-2.974-.903-3.67-1.124-.697-.221-2.767-.574-4.6-.785-4.051-.465-184.448-.433-188.468.034m162.874 14.558c.913.091 1.66-.003 1.66-.208 0-.507 22.095-.466 24.4.046 1.853.411 2.532.686 6.543 2.64 2.144 1.044 6.041 4.758 7.223 6.883.201.362.471.748.6.858.555.473 2.022 3.988 2.588 6.2.599 2.341 1.088 94.434.511 96.2-.479 1.466-.606 3.189-.252 3.408.491.304.508 2.47.021 2.771-.201.124-.438.01-.526-.255-.088-.264-.404.41-.702 1.498s-1.111 2.879-1.806 3.98c-.696 1.102-1.197 2.206-1.114 2.455.507 1.522-7.715 7.24-12.07 8.394-2.121.562-106.107.873-107.543.322-.366-.141-.94.037-1.309.406-.693.693-1.629.622-1.47-.111.113-.518-13.833-.855-14.004-.338-.134.402-38.773.358-39.075-.044-.408-.543-14.816-.338-14.815.211 0 .788-10.39.205-13.284-.745-5.087-1.67-8.566-4.286-12.22-9.189-1.134-1.523-2.668-5.027-3.135-7.163-.498-2.278-.399-99.911.103-101.903 1.926-7.638 8.705-14.284 16.782-16.455 2.061-.553 40.609-.622 41.174-.073.233.226 1 .15 1.98-.196.88-.31 1.87-.443 2.2-.294s2.537.294 4.905.321c2.652.031 4.482.227 4.766.511.348.348.569.314.9-.138.474-.65 90.929-.911 91.409-.264.268.36 3.063.381 3.419.025.14-.14 1.638-.162 3.328-.048 2.21.149 3.466.041 4.473-.385 1.194-.506 1.494-.511 2.04-.039.352.305 1.387.628 2.3.719m-80.56 157.662c-1.321 1.347-2.18 3.643-2.18 5.827 0 2.985.451 2.895-14.052 2.807-7.121-.043-14.06-.078-15.419-.078-2.886.001-3.505-.439-3.875-2.754-.38-2.374-2.916-4.028-5.336-3.48-1.823.413-2.261 1.069-2.671 4.003-.317 2.274.087 2.219-16.474 2.226-12.25.005-15.617.122-17.217.597-6.121 1.818-6.833 9.663-1.156 12.741l1.6.868 36.96.057c30.69.046 37.009.148 37.253.6.162.298.372 3.063.467 6.143.2 6.447.518 7.402 3.053 9.183l1.733 1.217 8.667.128c14.004.206 14.937-.476 15.487-11.328.145-2.86.403-5.349.574-5.532.17-.182 16.846-.362 37.058-.4 35.877-.066 36.786-.087 38.348-.868 5.276-2.638 5.435-9.735.274-12.277-1.848-.91-2.088-.924-17.474-1.023-18.5-.119-17.269.048-17.634-2.402-.823-5.52-8.166-4.88-8.166.713 0 1.539-.645 1.603-16.514 1.643-16.934.042-16.286.122-16.286-2.006 0-2.077-1.011-4.852-2.354-6.461l-1.125-1.347-11.161-.02-11.16-.02z" fill="#795be5"/><path d="m86.975 102.1-1.175 1.3 1.3-1.175c1.212-1.095 1.484-1.425 1.175-1.425-.069 0-.654.585-1.3 1.3m177.325 5.645c-1.578.587-1.356 1.055.5 1.055 1.619 0 2.013-.388 1.1-1.083-.319-.243-.899-.233-1.6.028m-115.089.24c-.504.319-.49.41.1.636.872.335 2.02-.085 1.691-.618-.309-.5-1.018-.507-1.791-.018m12.212.504c-.343.489-.623 1.491-.623 2.226 0 .736-.192 1.696-.426 2.133-.234.438-.35 1.011-.256 1.274.093.263.389-.332.657-1.322 1.131-4.172 1.372-4.772 1.983-4.935.559-.15.554-.178-.035-.219-.373-.025-.958.354-1.3.843m-55.623-.089-.8.344.8-.012c.44-.006 1.25-.156 1.8-.332l1-.32-1-.012c-.55-.006-1.36.143-1.8.332m40.14.9c.194 1.247.212 1.259.468.3.279-1.048.154-1.6-.362-1.6-.169 0-.217.585-.106 1.3m11.06-.9c.136.22.597.4 1.024.4s.776-.18.776-.4-.461-.4-1.024-.4c-.58 0-.916.173-.776.4m95 .551c0 .523-.27 1.175-.6 1.449s-.6.684-.6.911c0 .228-.45 1.003-1 1.725-.55.721-1 1.409-1 1.53 0 .12-.63 1.203-1.4 2.407-1.512 2.364-1.745 3.011-.8 2.227.33-.274.6-.643.6-.821s1.149-2.181 2.553-4.451c2.677-4.331 3.398-5.928 2.674-5.928-.235 0-.427.428-.427.951m17.392.549c-.435.825-1.264 2.22-1.843 3.1-1.32 2.008-7.296 11.838-7.501 12.339-.478 1.171.85-.448 1.6-1.95.492-.985 1.223-2.144 1.624-2.574.4-.43.728-.876.728-.991 0-.116.72-1.386 1.6-2.824s1.6-2.757 1.6-2.932c0-.174.335-.677.745-1.116.97-1.042 2.928-4.552 2.538-4.552-.166 0-.657.675-1.091 1.5m23.008-1.1c.55.176 1.45.317 2 .313.898-.007.878-.039-.2-.313-1.692-.431-3.144-.431-1.8 0m-147.082 3.431c-.24.643-.651 2.519-.913 4.169-.263 1.65-.66 3.45-.884 4-.388.954-.877 3.533-1.327 7-.194 1.501-.171 1.476.382-.4.324-1.1.597-2.534.606-3.187.01-.652.266-1.912.569-2.8.844-2.471 1.449-5.283 1.449-6.739 0-.723.2-1.514.445-1.759s.369-.672.277-.949-.364.022-.604.665m-49.044 1.069c-.723.715-.946 1.013-.495.662.452-.35 1.266-.935 1.81-1.3.544-.364.766-.662.494-.662s-1.086.585-1.809 1.3m206.526-.775c0 .069.585.654 1.3 1.3l1.3 1.175-1.175-1.3c-1.095-1.212-1.425-1.484-1.425-1.175m20.014 2.729c-.008.14.249.86.57 1.6.322.74.585 1.076.586.746.002-.576-1.127-2.866-1.156-2.346m-246.761 2.399c-.473 1.14-.795 2.139-.714 2.219.081.081.534-.786 1.008-1.925.473-1.14.795-2.139.714-2.219-.081-.081-.534.786-1.008 1.925m83.413-.453c-.683 3.145-.706 4.319-.044 2.263.343-1.066.562-2.326.486-2.8-.105-.656-.211-.527-.442.537m85.814 3.68c-.264.264-.48.714-.48 1s-.158.52-.351.52c-.194 0-.582.555-.863 1.234s-.708 1.451-.949 1.717c-.24.266-.646.835-.901 1.266-.256.431-3.226 5.348-6.6 10.928-3.375 5.58-6.406 10.62-6.736 11.202-.33.581-.96 1.596-1.4 2.256-1.232 1.848-1.78 2.742-2.082 3.397-.152.33-1.321 2.276-2.597 4.324-2.432 3.902-2.71 4.497-1.721 3.676.33-.274.6-.657.6-.852s1.35-2.511 3-5.148 3-4.897 3-5.024c0-.126.415-.802.923-1.503.507-.7 1.272-1.96 1.7-2.8.427-.84 1.092-1.867 1.477-2.283s.7-.877.7-1.025c0-.147 1.17-2.131 2.6-4.409s2.6-4.303 2.6-4.5.253-.568.563-.825.863-1.045 1.229-1.749c.923-1.776.913-1.759 5.208-8.728 1.68-2.726 2.051-3.645 1.08-2.674m-87.013 1.387c-.147.146-.251.821-.231 1.5l.036 1.233.387-1.344c.386-1.343.31-1.892-.192-1.389m-.809 4.133c-.358 1.692-.711 4.359-.504 3.8.666-1.791 1.102-3.797.965-4.434-.114-.533-.255-.34-.461.634m153.748-.167c.003.422.189 1.037.412 1.367.297.438.334.276.138-.6-.329-1.471-.558-1.79-.55-.767m-51.88.267c-.771 1.199-1.264 2.309-.934 2.105.196-.121.625-.757.952-1.413.596-1.195.585-1.63-.018-.692m-185.532 49.9c0 26.51.047 37.355.106 24.1.058-13.255.058-34.945 0-48.2-.059-13.255-.106-2.41-.106 24.1m67.611-46.5c-.295.737-.929 4.136-1.211 6.5l-.168 1.4.413-1.4c.227-.77.572-2.3.768-3.4.195-1.1.474-2.405.621-2.9.312-1.06-.016-1.215-.423-.2m115.875-.22c-.264.264-.48.613-.48.776s-1.08 2.027-2.4 4.144-2.399 3.972-2.398 4.124c.003.359 1.965-2.032 1.984-2.417.008-.161.704-1.421 1.547-2.8 2.487-4.065 2.908-4.988 1.747-3.827m-100.992 2.053c-.158.403-.277 1.123-.263 1.6.024.823.046.817.415-.108.214-.536.333-1.256.263-1.6-.104-.514-.178-.495-.415.108m-.656 3.743c-.018.482-.212.988-.432 1.124s-.386.912-.368 1.724c.017.812.085 1.296.151 1.076s.344-1.144.617-2.054c.274-.909.4-1.899.28-2.2-.128-.322-.23-.186-.248.33m-16.254 3.902c-.151.803-.174 1.559-.052 1.682.122.122.346-.435.496-1.238.151-.803.174-1.559.052-1.682-.122-.122-.346.435-.496 1.238m111.822.422c-.283.341-.424.709-.314.819s.431-.078.714-.419.424-.709.314-.819-.431.078-.714.419m-96.912 1.133c-.158.403-.277 1.123-.263 1.6.024.823.046.817.415-.108.214-.536.333-1.256.263-1.6-.104-.514-.178-.495-.415.108m95.465 1.367c-1.38 2.054-2.291 4.05-1.406 3.08.549-.602 2.55-4.18 2.337-4.18-.106 0-.525.495-.931 1.1m-111.288 1.404c-.295 1.009-.45 2.164-.347 2.566.114.439.208.244.236-.49.025-.671.241-1.415.48-1.654.238-.238.373-.844.3-1.346-.101-.688-.265-.462-.669.924m14.816 1.784c-.265.883-.456 2.214-.427 2.958.042 1.028.092 1.113.207.354.084-.55.351-1.654.594-2.454.243-.799.367-1.68.274-1.958-.092-.277-.384.218-.648 1.1m94.119.818c-.22.162-.593.654-.829 1.094-1.344 2.504-2.021 3.639-2.434 4.084-.254.274-.703 1.042-.997 1.707s-.652 1.209-.794 1.209c-.143 0-.372.45-.51 1s-.428 1-.644 1c-.215 0-.392.163-.392.362 0 .198-1.35 2.532-3 5.186-1.65 2.653-3 4.938-3 5.076 0 .139-.405.818-.9 1.509-.495.69-1.125 1.708-1.401 2.261l-.5 1.006.832-.984c.458-.541 1.571-2.251 2.473-3.8.903-1.549 3.054-5.114 4.781-7.923s3.449-5.633 3.827-6.276 1.439-2.44 2.357-3.993 1.638-2.821 1.6-2.818-.249.138-.469.3m-110.022 2.272c-.151.803-.174 1.559-.052 1.682.122.122.346-.435.496-1.238.151-.803.174-1.559.052-1.682-.122-.122-.346.435-.496 1.238m14.914 1.664c-.161.16-.287.666-.28 1.125.011.769.044.778.428.118.448-.769.333-1.725-.148-1.243m-15.802 2.175c-.269.864-.469 2.248-.444 3.077.026.828.118 1.146.205.706s.365-1.746.618-2.902c.551-2.52.309-3.084-.379-.881m14.81 1.94c-.275.897-.5 2.317-.5 3.157 0 .839-.2 1.726-.445 1.971s-.356.686-.248.98c.278.752 1.093-1.426 1.093-2.917 0-.66.191-1.558.425-1.994.233-.436.368-1.251.3-1.811-.109-.884-.19-.804-.625.614m-15.9 3.643c-.15.473-.183.95-.073 1.06s.323-.187.473-.66.183-.95.073-1.06-.323.187-.473.66m-.721 3c-.381 2.251-.712 5.278-.525 4.8.467-1.196 1.112-4.949.965-5.62-.108-.497-.268-.2-.44.82m14.585 2.837c-.295 1.341-.454 2.871-.355 3.4.144.759.194.682.237-.363.029-.73.245-1.683.478-2.119.233-.435.368-1.369.3-2.073-.105-1.082-.208-.901-.66 1.155m68.92 1.863c-.842 1.375-1.632 2.59-1.757 2.7s-.748 1.19-1.385 2.4-1.402 2.484-1.7 2.831c-.298.348-.542.843-.542 1.1 0 .258-.159.469-.353.469-.195 0-.459.315-.589.7-.129.385-.417.97-.641 1.3-1.633 2.414-7.217 11.654-7.217 11.943 0 .197-.253.569-.563.826s-.855 1.045-1.211 1.749c-.357.705-.82 1.552-1.03 1.882-2.221 3.494-5.196 8.426-5.196 8.615 0 .131-.405.811-.901 1.512-.496.7-1.117 1.633-1.382 2.073-.935 1.555-3.058 5.21-3.485 6-.238.44-.988 1.61-1.667 2.6s-1.507 2.34-1.841 3-2.161 3.72-4.06 6.8-3.746 6.185-4.104 6.9-.799 1.3-.979 1.3-.445.372-.59.827c-.144.455-1.596 2.977-3.227 5.604-1.63 2.628-2.964 4.942-2.964 5.144 0 .201-.274.451-.608.555-.477.148-.465.176.053.129.364-.032 1.132-.915 1.708-1.962s2.217-3.812 3.647-6.146c1.43-2.333 2.87-4.717 3.2-5.298s.96-1.596 1.4-2.256c1.233-1.851 1.78-2.743 2.081-3.397.152-.33 1.321-2.26 2.598-4.289 1.277-2.028 2.321-3.801 2.321-3.938s.405-.814.9-1.503 1.08-1.559 1.3-1.933c2.475-4.202 3.627-6.204 3.762-6.537.089-.22.584-.957 1.1-1.638s.938-1.446.938-1.7.145-.462.323-.462.641-.72 1.029-1.6.873-1.6 1.077-1.6.371-.257.371-.571c0-.315.225-.813.5-1.108.446-.477 1.106-1.579 2.471-4.121.236-.44.533-.89.659-1 .127-.11.577-.83 1-1.6.424-.77.885-1.49 1.026-1.6s.646-.92 1.121-1.8 1.034-1.87 1.241-2.2c2.893-4.611 9.182-14.912 9.182-15.04 0-.093.871-1.562 1.936-3.264 2.172-3.473 2.967-4.896 2.735-4.896-.087 0-.846 1.125-1.687 2.5m-84.714 1.261c-.431 1.125-1.472 6.348-1.443 7.239.038 1.138 1.134-2.967 1.155-4.326.01-.62.21-1.485.444-1.922.234-.438.357-1.002.273-1.254-.084-.253-.276-.135-.429.263m14.797 1.706c-.147.146-.256.641-.242 1.1.024.766.057.756.409-.125.392-.979.31-1.453-.167-.975m-.775 3.433c-.161.825-.386 2.175-.502 3l-.21 1.5.634-1.725c.348-.949.574-2.299.502-3l-.132-1.275zm83.157 1.653c-1.617 2.759-1.466 3.156 1.851 4.859 1.595.819 3.08 1.624 3.3 1.79s2.02 1.159 4 2.207c3.547 1.878 6.654 3.566 9.4 5.108.77.432 2.75 1.51 4.4 2.395s3.18 1.738 3.4 1.895 2.2 1.235 4.4 2.396c3.764 1.985 5.93 3.159 10.2 5.527.99.549 2.16 1.177 2.6 1.396 1.202.598 1.779.915 4.4 2.415 1.32.755 3.48 1.958 4.8 2.673s3.12 1.694 4 2.176c4.546 2.489 6.548 3.565 8 4.3.88.445 1.87.962 2.2 1.147s1.882 1.063 3.449 1.95 3.052 1.613 3.3 1.613.451.168.451.373.37.49.821.634c.452.143 1.922.883 3.268 1.643 3.083 1.743 3.533 1.594 3.437-1.137l-.074-2.113-.148 2.126c-.081 1.169-.274 2.069-.428 2-1.197-.538-6.659-3.394-8.276-4.328-1.1-.635-2.72-1.537-3.6-2.005-2.244-1.192-4.298-2.315-8-4.369-1.76-.977-4.37-2.383-5.8-3.125-1.43-.741-3.5-1.865-4.6-2.497-1.1-.631-2.72-1.522-3.6-1.979s-2.5-1.339-3.6-1.96c-4.276-2.415-11.452-6.329-14.8-8.073-.88-.459-2.5-1.349-3.6-1.978-1.1-.63-2.81-1.574-3.8-2.1-.99-.525-2.88-1.563-4.2-2.306-2.44-1.373-7.5-4.102-10.4-5.609-7.907-4.11-8.02-4.23-6.395-6.805.579-.917.972-1.749.872-1.848-.099-.099-.652.625-1.228 1.609m-99.234 2.199c-.314.989-.952 4.471-1.219 6.648-.176 1.436.276-.252 1.432-5.354.408-1.797.25-2.753-.213-1.294m14.852 1.515c-.147.146-.251.821-.231 1.5l.036 1.233.387-1.344c.386-1.343.31-1.892-.192-1.389m-.99 5.071c-.262.726-.463 1.756-.445 2.29.017.535.085.792.151.572s.351-1.166.633-2.102c.613-2.033.341-2.641-.339-.76m-15.856 2.228c-.124.201-.341 1.467-.482 2.812-.14 1.346-.409 2.542-.597 2.658s-.324.786-.301 1.488l.041 1.276.387-1.4c.213-.77.543-2.21.734-3.2s.47-2.295.619-2.9c.265-1.074.051-1.465-.401-.734m14.868 2.034c-.153.55-.264 1.45-.247 2 .026.861.084.814.416-.34.212-.736.323-1.636.248-2-.098-.466-.22-.367-.417.34m75.771 4.427c-1.332 2.142-1.503 2.57-.871 2.18.214-.133.693-.88 1.063-1.661.371-.781.93-1.518 1.243-1.638.5-.192 3.973 1.242 4.505 1.86.392.455 2.081 1.284 2.257 1.108.259-.259-5.976-3.876-6.682-3.876-.14 0-.822.912-1.515 2.027m-76.798.194c-.296.892-.456 2.062-.355 2.6.161.854.191.823.239-.241.029-.671.249-1.415.488-1.654.238-.238.373-.859.3-1.38-.112-.793-.221-.684-.672.675m-15.884 3.157c-.151.803-.174 1.559-.052 1.682.122.122.346-.435.496-1.238.151-.803.174-1.559.052-1.682-.122-.122-.346.435-.496 1.238m101.422-1.219c0 .123.72.592 1.6 1.041s1.6.672 1.6.496-.585-.571-1.3-.877c-.715-.307-1.435-.631-1.6-.721-.165-.091-.3-.063-.3.061m-11.4 2.393c-.22.26-.746 1.097-1.17 1.86-.423.763-.873 1.478-1 1.588-.435.378-1.285 2.078-1.121 2.242.09.09 1.006-1.214 2.035-2.898 1.729-2.83 2.227-3.937 1.256-2.792m15.4.048c.274.33.749.6 1.057.6.493 0 1.708.638 4.358 2.289.432.269 1.415.798 2.185 1.177.77.378 2.071 1.103 2.892 1.611 1.727 1.068 2.213 1.173 1.508.323-.274-.33-.659-.6-.857-.6-.197 0-1.072-.45-1.943-1s-1.843-1-2.159-1-.634-.149-.708-.33c-.125-.31-6.196-3.67-6.631-3.67-.11 0 .024.27.298.6m-90.512.333c-.158.403-.277 1.123-.263 1.6.024.823.046.817.415-.108.214-.536.333-1.256.263-1.6-.104-.514-.178-.495-.415.108m-15.577 1.667c-.295 1.31-.912 4.392-1.32 6.6-.184.995-.142 1.234.145.826.221-.316.526-1.666.678-3 .151-1.334.448-2.64.659-2.902.212-.262.322-.982.246-1.6l-.138-1.124zm14.566 2.738c-.262.726-.452 2.026-.423 2.89.035.997.112 1.206.21.572.085-.55.355-1.77.601-2.711.539-2.073.275-2.584-.388-.751m72.049 1.962c-.771 1.199-1.264 2.309-.934 2.105.196-.121.625-.757.952-1.413.596-1.195.585-1.63-.018-.692m32.494.259c.209.197 1.91 1.162 3.78 2.144s4.096 2.18 4.947 2.661 1.639.783 1.752.671c.112-.113-.314-.433-.947-.712-.634-.279-1.242-.601-1.352-.715-.11-.115-1.01-.615-2-1.111-.99-.497-2.754-1.442-3.92-2.1-2.119-1.196-2.976-1.514-2.26-.838m-105.528 2.683c-.161.16-.287.666-.28 1.125.011.769.044.778.428.118.448-.769.333-1.725-.148-1.243m70.988.238c-.264.264-.48.714-.48 1s-.18.52-.4.52-.4.191-.4.424c0 .687.759.016 1.413-1.249.656-1.268.621-1.449-.133-.695m-86.78 2.039c-.275 1.041-.5 2.442-.5 3.113s-.172 1.542-.382 1.935c-.504.941-1.627 6.359-1.582 7.633.019.55.294-.35.61-2 .317-1.65.842-3.81 1.167-4.8s.59-2.397.589-3.126c-.001-.73.189-1.684.423-2.121s.369-1.184.3-1.66c-.084-.585-.287-.252-.625 1.026m14.811 2.281c-.269 1.21-.559 2.74-.643 3.4-.085.66-.283 1.56-.439 2-.185.52-.07.45.329-.2.338-.55.62-1.597.628-2.326.008-.73.205-1.684.439-2.12.233-.436.368-1.28.3-1.874-.095-.818-.244-.546-.614 1.12m69.962-1.113c-.26.26-.473.645-.473.855s-.45.972-1 1.694c-.55.721-1 1.415-1 1.542s-.9 1.667-2 3.422c-2.097 3.346-2.394 4.025-1.4 3.2.33-.274.6-.642.6-.819 0-.176 1.361-2.513 3.024-5.194 2.777-4.475 3.469-5.92 2.249-4.7m48.727.467c0 .085.585.453 1.3.818s1.84 1.002 2.5 1.417c1.471.923 2.065 1.012 1.4.211-.274-.33-.836-.6-1.249-.6s-.752-.135-.754-.3c-.001-.165-.556-.615-1.232-1-1.166-.664-1.965-.886-1.965-.546m6 3.206c0 .184 2.742 1.84 3.046 1.84.509 0-.384-.81-1.515-1.375-1.325-.66-1.531-.723-1.531-.465m5.614 3.166c.613.55 2.786 1.568 2.786 1.305 0-.2-2.769-1.831-3.109-1.831-.144 0 .001.237.323.526m-132.2 2.574c-.159.825-.44 2.31-.624 3.3s-.63 3.06-.991 4.6-.726 3.52-.813 4.4l-.156 1.6.402-1.4c.221-.77.661-2.66.977-4.2.317-1.54.765-3.61.996-4.6.573-2.451.943-5.2.699-5.2-.109 0-.33.675-.49 1.5m135.786-.5c.274.33.678.6.898.6.223 0 .18-.265-.098-.6-.274-.33-.678-.6-.898-.6-.223 0-.18.265.098.6m2.926 1.627c.831.565 1.721.957 1.978.872.257-.086-.111-.412-.818-.725s-1.286-.705-1.286-.872c0-.166-.312-.302-.693-.302-.444 0-.151.368.819 1.027m-74.268 1.673c-.255.762-.767 1.609-2.157 3.573-.496.701-.901 1.385-.901 1.522 0 .136-.45.91-1 1.719s-.997 1.655-.993 1.879.871-.943 1.928-2.593c3.043-4.753 4.171-6.8 3.75-6.8-.216 0-.497.315-.627.7m77.133-.314c.264.426 2.678 1.678 2.869 1.487.072-.071-.595-.517-1.482-.99-.886-.473-1.51-.697-1.387-.497m-157.706 1.787c-.267.586-.485 1.504-.485 2.04 0 1.065-.617 3.98-1.309 6.187-.444 1.417-.837 3.525-1.268 6.8l-.236 1.8.589-2c.324-1.1.597-2.534.606-3.187.01-.652.266-1.912.569-2.8.844-2.471 1.449-5.283 1.449-6.739 0-.723.2-1.514.445-1.759s.373-.661.285-.925c-.088-.265-.378-.002-.645.583m162.348.793c.46.457 5.302 3.032 5.441 2.894.185-.186-2.557-1.86-3.048-1.86-.18 0-.552-.27-.826-.6s-.776-.6-1.116-.6c-.339 0-.542.075-.451.166m27.41 2.405c-.282 1.122.078 2.325.599 2.003.465-.287.465-2.46.001-2.748-.197-.121-.467.214-.6.745m-21.223.98c.209.193 1.46.943 2.78 1.666s3.21 1.759 4.2 2.302c.99.544 2.019 1.161 2.287 1.372.267.212.686.318.929.237.244-.081-.245-.517-1.086-.967-1.389-.744-4.139-2.265-7.642-4.226-1.395-.781-2.096-.965-1.468-.384m-94.62 5.345c-.55.929-1.466 2.504-2.035 3.498-.569.995-1.97 3.318-3.113 5.161s-2.027 3.403-1.965 3.466c.063.063.654.223 1.314.356 1.055.212 1.089.193.283-.161l-.916-.402 1.273-2.307c.7-1.269 1.581-2.757 1.959-3.307s1.279-2.08 2.003-3.4 1.425-2.49 1.557-2.6c.483-.402 1.238-2 .943-1.997-.166.002-.753.764-1.303 1.693m-60.9.535c-.165.166-.289.857-.275 1.536.025 1.206.034 1.212.415.258.429-1.073.335-2.273-.14-1.794m166.909.38c.269.324.635.589.813.589.937 0 4.301 2.534 4.091 3.082-.197.514-.11.523.629.061 1.174-.733 1.079-1.543-.18-1.543-.571 0-1.516-.332-2.1-.737-1.786-1.239-3.836-2.154-3.253-1.452m-167.563 4.065c-.025.482-.226.988-.446 1.124s-.379.822-.354 1.524c.029.787.114.97.221.476.096-.44.363-1.181.593-1.647.23-.467.332-1.187.226-1.6-.166-.647-.2-.629-.24.123m-38.846 1.049c0 .069.585.654 1.3 1.3l1.3 1.175-1.175-1.3c-1.095-1.212-1.425-1.484-1.425-1.175m208.494 1.487c-.719.653-1.157 1.188-.975 1.188s.849-.54 1.481-1.2c1.47-1.535 1.186-1.528-.506.012m-186.063 1.45c-.234.846-.428 1.933-.429 2.415-.002.741-.266.901-1.702 1.03l-1.7.153 1.9.07c1.839.068 1.9.033 1.9-1.07 0-.627.201-1.717.446-2.421.246-.704.349-1.378.229-1.497-.119-.119-.409.475-.644 1.32m15.008 1.457c-.184.835-.223 1.63-.087 1.766.477.477.7-.217.561-1.745l-.14-1.54zm-27.039 1.481c1.368.438 2.419.438 1.4 0-.44-.189-1.16-.338-1.6-.332-.643.009-.604.075.2.332m79.817.372c-.126.205-.063.476.14.602.473.292 1.643-.147 1.643-.617 0-.473-1.489-.461-1.783.015m131.558 2.528-1.175 1.3 1.3-1.175c.715-.646 1.3-1.231 1.3-1.3 0-.309-.33-.037-1.425 1.175m-232.775.7c.859.88 1.652 1.6 1.762 1.6s-.503-.72-1.362-1.6-1.652-1.6-1.762-1.6.503.72 1.362 1.6m3.4 3c.746.77 1.447 1.4 1.557 1.4s-.411-.63-1.157-1.4-1.447-1.4-1.557-1.4.411.63 1.157 1.4m45.531 8.5c13.932.058 36.612.058 50.4 0s2.389-.106-25.331-.106-39.001.048-25.069.106m78.969-.013c.605.091 1.595.091 2.2 0 .605-.092.11-.167-1.1-.167s-1.705.075-1.1.167m23.17.013c10.488.059 27.768.059 38.4 0 10.631-.059 2.05-.108-19.07-.108s-29.819.049-19.33.108m-38.37 6.398c1.925.073 5.075.073 7 0s.35-.133-3.5-.133-5.425.06-3.5.133m-9.7.619c-1.071.54-1.549 2.524-1.513 6.283l.018 1.8.302-2.2c.369-2.692.642-3.436 1.873-5.1 1.035-1.401.886-1.574-.68-.783m25.779.819c.56.735 1.292 2.04 1.627 2.9l.608 1.564-.196-2.2c-.199-2.232-1.143-3.6-2.483-3.6-.413 0-.287.378.444 1.336m-67.55 1.293c-.346.345-.617 1.11-.602 1.7.025 1.005.052 1.02.43.242 1.333-2.748 6.676-1.088 7.511 2.332l.414 1.697-.184-1.907c-.234-2.421-1.109-4.123-2.282-4.437-1.774-.475-4.642-.273-5.287.373m104.321-.235c-.876.354-1.764 2.284-1.732 3.766.015.715.09.675.5-.269.989-2.275 5.546-3.206 6.812-1.391.628.899.628.899.649-.386.032-1.935-3.371-2.874-6.229-1.72m-129.05 7.105c4.235.065 11.165.065 15.4 0 4.235-.064.77-.117-7.7-.117s-11.935.053-7.7.117m43.6-.001c2.255.072 5.945.072 8.2 0 2.255-.071.41-.129-4.1-.129s-6.355.058-4.1.129m64.421.001c2.267.071 5.867.071 8-.001 2.134-.072.279-.13-4.121-.13s-6.145.059-3.879.131m35.979 0c4.235.065 11.165.065 15.4 0 4.235-.064.77-.117-7.7-.117s-11.935.053-7.7.117m-85.8.388c.605.091 1.595.091 2.2 0 .605-.092.11-.167-1.1-.167s-1.705.075-1.1.167m42.605-.004c.497.096 1.217.092 1.6-.008.382-.1-.025-.179-.905-.174-.88.004-1.193.086-.695.182m67.295-.056c1.783.7 2.955.968 2.578.591-.221-.221-1.027-.498-1.79-.614-.764-.117-1.118-.106-.788.023m-183.162 6.573c-.014.99.132 2.049.325 2.354.216.341.278-.196.161-1.4-.264-2.709-.456-3.087-.486-.954m1.574 4.68c-.015.6 2.467 2.526 3.226 2.502.309-.009-.104-.369-.918-.799-.813-.43-1.663-1.097-1.887-1.482-.225-.386-.414-.485-.421-.221m183.588 1.92c-.58.332-.748.572-.4.573.33.001.949-.263 1.376-.586.988-.747.339-.739-.976.013m-108.6.803c.914.318 3.329.406 3.148.113-.107-.174-.95-.302-1.872-.284-.922.017-1.496.094-1.276.171m34.7.084c.605.091 1.595.091 2.2 0 .605-.092.11-.167-1.1-.167s-1.705.075-1.1.167m-31.206 5.513c0 2.64.124 5.34.275 6 .15.66.208-1.23.128-4.2-.187-6.975-.404-7.944-.403-1.8m29.23 3.6c.002 1.32.077 1.812.166 1.093s.087-1.799-.004-2.4-.164-.013-.162 1.307m-23.462 8.3c.102.165 4.124.3 8.938.3s8.836-.135 8.938-.3-3.92-.3-8.938-.3-9.04.135-8.938.3" fill="#8c80b0"/><path d="m101.8 93.985c-5.599 1.423-13.17 4.987-13.733 6.465-.074.193-.287.35-.475.35-1.452 0-10.792 11.379-10.792 13.148 0 .166-.45 1.235-1 2.375s-1 2.256-1 2.48c0 .225-.162.72-.359 1.102-1.323 2.56-1.439 7.099-1.439 56.095 0 48.83.101 52.872 1.406 56.2 1.756 4.475 2.685 6.618 3.383 7.8.455.77 1.093 1.928 1.418 2.573 1.405 2.789 10.713 11.427 12.313 11.427.232 0 .659.232.949.515 1.006.981 6.216 3.011 10.146 3.954 1.319.317 8.617.552 21.783.703l19.8.228-.124 6.2c-.067 3.41-.217 6.695-.331 7.3l-.209 1.1-16.068.002c-9.475.002-16.642.166-17.468.401-6.427 1.832-7.244 11.386-1.236 14.458l1.836.939 37 .2 37 .2.2 5.8c.222 6.432.566 7.539 2.876 9.248 2.511 1.857 3.109 1.952 12.294 1.952 9.505 0 10.7-.215 12.964-2.337 1.899-1.779 2.057-2.38 2.266-8.663l.2-6 37-.2 37-.2 1.958-1c5.548-2.833 5.372-11.226-.293-13.969-1.654-.8-2.328-.831-18.155-.831h-16.438l-.231-3.3c-.126-1.815-.278-5.1-.336-7.3l-.105-4 19.8-.224c13.267-.15 20.453-.382 21.779-.703 3.039-.735 6.537-1.939 8.221-2.829 9.689-5.121 15.69-11.648 18.981-20.644.402-1.1.88-2.192 1.062-2.426 1.393-1.79 2.182-99.314.879-108.574-1.786-12.691-13.498-26.297-25.186-29.257-8.254-2.091.631-1.925-101.536-1.899l-93.6.023zm191.6-.18c1.76.134 4.01.491 5 .792s2.61.781 3.6 1.066c5.515 1.588 13.004 7.172 17.081 12.737 2.253 3.075 4.919 7.792 4.919 8.703 0 .42.129.892.286 1.05.508.508 1.304 3.96 1.717 7.447.433 3.654.605 94.466.188 99.4-.269 3.193-1.323 8.214-1.842 8.78-.192.209-.349.705-.349 1.103 0 .782-1.885 4.584-2.7 5.446-.275.29-.5.785-.5 1.1 0 .314-.18.571-.4.571s-.4.283-.4.628c0 2.774-15.306 14.172-19.031 14.172-.408 0-1.468.251-2.356.558-4.086 1.412-6.339 1.445-98.802 1.441-90.424-.004-92.627-.033-97.611-1.277-.88-.22-2.187-.492-2.904-.605s-1.402-.366-1.523-.561c-.121-.196-.539-.356-.928-.356-4.932 0-19.148-14.23-20.697-20.717-.142-.596-.39-1.263-.551-1.483-1.706-2.329-1.797-5.262-1.797-57.8 0-57.253-.176-53.904 3.2-61 2.989-6.285 7.904-11.922 13.677-15.685 2.919-1.902 4.918-2.774 10.523-4.59 3.857-1.25 9.813-1.325 99.2-1.245 49.39.044 91.24.19 93 .325m-186.8 14.691c-2.14.413-2.421.512-5.8 2.026-5.918 2.653-10.498 8.499-12.128 15.478-.55 2.357-.865 96.405-.329 98.4.207.77.583 2.292.837 3.383 2.212 9.511 11.596 16.217 22.692 16.217 5.146 0 4.618-.251-1.679-.798-2.856-.248-5.733-.694-6.393-.992-.66-.297-2.28-1.03-3.6-1.628-4.491-2.035-9.211-8.041-10.672-13.582-.921-3.49-.761-100.163.169-102.706 2.336-6.386 5.811-10.39 11.587-13.352l3.716-1.906 19.904-.15c11.958-.091 19.813-.297 19.676-.518-.304-.492-35.382-.373-37.98.128m56.8-.096c-.66.168 18.96.324 43.6.347 29.054.026 44.589-.096 44.2-.347-.718-.464-85.977-.464-87.8 0m107.4-.046c0 .194 5.445.439 12.1.543l12.1.189 2.2 1.078c1.21.592 2.83 1.383 3.6 1.757 3.503 1.7 8.371 8.166 9.544 12.679.804 3.09.84 5.204.864 50.133.016 28.78.165 45.207.409 45.057.515-.319.52-91.088.005-92.762-.208-.675-.684-2.293-1.058-3.594-2.179-7.583-9.015-13.408-17.588-14.987-2.873-.53-22.176-.61-22.176-.093m33.482 129.214c-.828.832-2.895 2.194-4.594 3.025-1.698.831-3.448 1.712-3.888 1.959-.574.321-15.61.504-53.267.648-28.857.11-52.602.335-52.766.5-.584.584 102.189.33 104.65-.259 4.08-.976 9.764-4.225 11.16-6.38.831-1.284.264-1.062-1.295.507m-171.082 6.036c0 .477 36.652.559 36.946.083.107-.172-8.163-.35-18.376-.396-12.048-.054-18.57.056-18.57.313m51.647 22.796c-.1 4.555-.309 7.103-.6 7.294-.543.357-28.034.409-29.797.056l-1.25-.25-.003-3.85c-.003-4.148-.6-8.73-1.236-9.497-.702-.846.326-.896 16.839-.824l16.2.071zm63.342-6.818c.13.211-.035 1.033-.368 1.828-.37.888-.707 3.508-.872 6.787-.249 4.975-.325 5.356-1.108 5.566-1.842.495-29.267.253-29.917-.263-.51-.405-.675-1.807-.87-7.4l-.242-6.9h16.571c10.106 0 16.662.149 16.806.382m-34.689 6.128 1.3.711v3.766c0 2.26.172 3.872.431 4.032.237.147 7.36.292 15.829.324 17.628.065 16.385.346 16.509-3.731.104-3.411.197-3.487 4.225-3.446 1.947.019 3.463-.137 3.54-.366.073-.22.243 1.285.377 3.344.133 2.058.306 3.806.382 3.883.077.077 7.396.163 16.263.191 18.841.06 18.872.065 21.371 3.775 1.72 2.553 1.312 6.651-.877 8.807-2.174 2.142.691 1.985-40.04 2.2l-37.81.2-.2 5.8c-.266 7.712-.78 8.803-5.161 10.937-2.367 1.152-17.492.969-19.561-.237-4.265-2.487-4.622-3.269-4.878-10.7l-.2-5.8-37.6-.2-37.6-.2-1.298-.926c-4.489-3.202-4.21-9.553.549-12.511l1.549-.963 16.66-.127 16.661-.127.234-.873c.129-.48.251-2.223.271-3.873s.113-2.82.205-2.6c.098.232 1.761.377 3.969.346 2.576-.037 3.816.092 3.851.4.028.25.112 1.698.185 3.219.073 1.52.307 2.938.519 3.15.651.651 31.59.605 31.841-.048.112-.293.206-1.823.209-3.4.012-5.903-.09-5.865 15.595-5.751 10.065.074 11.552.167 12.7.794" fill="#402a8f"/><path d="m145.515 110.21c-.123.435-.346 1.15-.495 1.59s.022.294.38-.324.581-1.334.495-1.59c-.085-.256-.256-.11-.38.324m-1.266 4.805c-.137.358-.234.951-.215 1.318s.193.136.387-.513c.377-1.262.244-1.887-.172-.805m15.844.585c0 .77.082 1.085.183.7.1-.385.1-1.015 0-1.4-.101-.385-.183-.07-.183.7m101.97 6.583c-.46.779-.764 1.417-.677 1.417.313 0 1.897-2.45 1.707-2.64-.107-.107-.57.444-1.03 1.223m-2.079 3.44c-.479.673-.805 1.29-.723 1.371.082.082.553-.468 1.047-1.223 1.115-1.7.863-1.815-.324-.148m-118.693 3.277c-.681 1.884-.587 2.394.135.73.327-.753.54-1.531.475-1.728-.066-.197-.341.252-.61.998m117.211-.8c-.566.715-1.362 2.3-1.156 2.3.096 0 .547-.63 1.001-1.4.826-1.399.902-1.843.155-.9m-5.718 9.523c-.479.673-.805 1.29-.723 1.371.082.082.553-.468 1.047-1.223 1.115-1.7.863-1.815-.324-.148m-19.37 1.812c-.373.569-.609 1.103-.525 1.187.084.085.469-.381.855-1.034.862-1.46.604-1.579-.33-.153m-94.521.965c0 .77.082 1.085.183.7.1-.385.1-1.015 0-1.4-.101-.385-.183-.07-.183.7m-1.443 6.05c-.333 1.667-.01 1.99.35.35.152-.691.193-1.341.091-1.442-.102-.102-.3.389-.441 1.092m108.803 2.05-.72 1.3.825-1c.731-.887 1.056-1.6.728-1.6-.062 0-.437.585-.833 1.3m-110.742 7.1c-.14.77-.363 1.94-.497 2.6-.152.748-.003.549.396-.527.351-.95.575-2.12.497-2.6-.106-.653-.206-.519-.396.527m-1.282 5.829c-.148.586-.191 1.143-.097 1.237.095.094.292-.308.439-.895.148-.586.191-1.143.097-1.237-.095-.094-.292.308-.439.895m-.938 4.671c-.681 1.884-.587 2.394.135.73.327-.753.54-1.531.475-1.728-.066-.197-.341.252-.61.998m-1.042 4.115c-.137.358-.234.951-.215 1.318s.193.136.387-.513c.377-1.262.244-1.887-.172-.805m81.39 2.009c-.462.783-.659 1.312-.437 1.175.434-.268 1.732-2.599 1.448-2.599-.094 0-.549.641-1.011 1.424m-83.41 7.605c-.148.586-.191 1.143-.097 1.237.095.094.292-.308.439-.895.148-.586.191-1.143.097-1.237-.095-.094-.292.308-.439.895m90.393 10.871-.669 1.1.823-.944c.638-.731 1.07-.886 1.923-.687.817.189.946.15.501-.151-1.022-.691-1.88-.464-2.578.682m-1.838 2.923c-.479.673-.805 1.29-.723 1.371.082.082.553-.468 1.047-1.223 1.115-1.7.863-1.815-.324-.148m10.216-.023c.66.437 1.38.795 1.6.796.22 0-.189-.358-.91-.797-1.698-1.036-2.254-1.035-.69.001m5.4 2.821c1.042.709 2.8 1.607 2.8 1.429 0-.222-2.761-1.852-3.123-1.844-.152.003-.007.19.323.415m-20.308 5.008c-.495.754-.82 1.371-.723 1.371.278 0 1.935-2.429 1.77-2.594-.082-.082-.553.468-1.047 1.223m61.709-.227c.268.434 2.599 1.732 2.599 1.448 0-.094-.641-.549-1.424-1.011s-1.312-.659-1.175-.437m-19.401 7.219c1.042.709 2.8 1.607 2.8 1.429 0-.222-2.761-1.852-3.123-1.844-.152.003-.007.19.323.415m34.4.958c0 .11.54.48 1.2.821s1.2.531 1.2.421-.54-.48-1.2-.821-1.2-.531-1.2-.421m-167.146 1.288c-.029.477-.158 1.197-.284 1.6-.218.694-.206.695.226.021.251-.391.379-1.111.285-1.6-.172-.887-.172-.887-.227-.021m143.179 3.49c.503.473 3.189 1.802 2.989 1.478-.131-.211-.802-.666-1.491-1.01-1.2-.598-1.852-.802-1.498-.468m3.6 1.971c.636.487 3.167 1.808 3.167 1.653 0-.268-2.518-1.778-2.967-1.78-.201 0-.291.056-.2.127m-84.849 2.295c-.479.673-.805 1.29-.723 1.371.082.082.553-.468 1.047-1.223 1.115-1.7.863-1.815-.324-.148m-64.069 2.187c-.123.435-.346 1.15-.495 1.59s.022.294.38-.324.581-1.334.495-1.59c-.085-.256-.256-.11-.38.324m160.485 1.811c1.042.709 2.8 1.607 2.8 1.429 0-.222-2.761-1.852-3.123-1.844-.152.003-.007.19.323.415m-102.361 5.803c-.462.783-.659 1.312-.437 1.175.434-.268 1.732-2.599 1.448-2.599-.094 0-.549.641-1.011 1.424" fill="#686085"/><path d="m198 92.4c-103.381.219-95.853.039-101.096 2.427-.932.425-1.894.773-2.138.773-.652 0-2.713 1.284-2.918 1.819-.097.253 1.067-.16 2.587-.918 1.52-.759 4.879-1.898 7.465-2.533l4.7-1.154 93.4.003c101.926.004 93.084-.164 101.336 1.926 11.688 2.96 23.4 16.566 25.186 29.257 1.303 9.26.514 106.784-.879 108.574-.182.234-.66 1.326-1.062 2.426-3.291 8.996-9.292 15.523-18.981 20.644-1.684.89-5.182 2.094-8.221 2.829-1.326.321-8.512.553-21.779.703l-19.8.224.02 1.5c.011.825.093 3.435.183 5.8l.162 4.3.218-5.6.217-5.6 20.178-.035c14.947-.026 20.219-.156 20.334-.5.085-.256.69-.465 1.343-.465.654 0 2.034-.37 3.067-.822s2.238-.974 2.678-1.159c2.707-1.142 3.751-1.661 3.868-1.923.073-.163.942-.711 1.932-1.218 3.025-1.549 3.827-2.175 6.461-5.04 1.396-1.519 3.106-3.373 3.799-4.12s1.479-1.889 1.748-2.538.647-1.18.841-1.18c.193 0 .351-.265.351-.589s.431-1.539.958-2.7 1.061-2.426 1.187-2.811c.264-.805 1.028-.943 1.111-.2.031.275.234-.49.45-1.7.243-1.355.428-22.938.482-56.2.089-54.504-.027-59.801-1.283-58.545-.393.393-.547.233-.75-.78-.14-.701-.412-1.275-.605-1.275-.192 0-.35-.349-.35-.776s-.166-.879-.369-1.005c-.203-.125-.488-.766-.632-1.424-.144-.657-.392-1.195-.55-1.195-.159 0-.503-.585-.765-1.3-.263-.715-1.19-2.02-2.061-2.9s-1.593-1.825-1.603-2.1c-.011-.275-.155-.506-.32-.513s-1.601-1.241-3.191-2.741c-1.591-1.5-3.796-3.157-4.9-3.681-1.105-.525-2.009-1.05-2.009-1.168 0-.214-1.698-1.11-3.6-1.9-.55-.229-1.657-.704-2.46-1.056-.804-.353-1.807-.641-2.229-.641-.423 0-1.566-.255-2.54-.567-2.708-.867.768-.845-99.171-.633m-109.588 6.863c-1.905 1.319-9.612 9.019-9.612 9.604 0 .192-.461 1.079-1.024 1.97-.563.892-.956 1.822-.874 2.068.081.245.852-.713 1.713-2.129 2.204-3.629 7.937-9.976 9.011-9.976.206 0 .374-.147.374-.326 0-.18.72-.731 1.6-1.226s1.6-.978 1.6-1.074c0-.483-1.187-.019-2.788 1.089m18.299 9.831c-3.058.241-8.666 3.265-11.558 6.23-2.155 2.21-5.246 7.103-4.459 7.059.327-.018 2.106-2.651 2.106-3.117 0-.153.81-1.063 1.8-2.022.99-.96 1.8-1.992 1.8-2.294 0-.303.152-.55.338-.55s.861-.45 1.5-1c.639-.549 1.366-.999 1.616-1 .25 0 .948-.256 1.55-.568.603-.313 1.345-.473 1.65-.356.396.152.477.01.283-.496-.217-.565-.109-.666.535-.498.443.116 1.239-.028 1.767-.321.756-.419 4.804-.544 18.961-.587 9.9-.029 18.45-.198 19-.374.968-.31-33.074-.408-36.889-.106m58.889.133c4.397.393 81.168.374 83.8-.021 1.1-.164-18.07-.295-42.6-.291-24.53.005-43.07.145-41.2.312m105.8-.051c.66.181 5.88.357 11.6.391 7.815.046 10.639.194 11.361.594.528.293 1.324.437 1.767.321.58-.151.746-.052.59.354-.146.381.094.583.737.622 1.652.1 4.303 1.597 5.953 3.36.876.936 1.967 2.103 2.426 2.594s1.343 1.769 1.965 2.84c.623 1.071 1.26 2.038 1.418 2.148.157.11.386.92.508 1.8.123.88.404 2.5.625 3.6.254 1.264.411 18.434.426 46.676.013 24.572.159 44.76.324 44.862.165.103.255-7.942.201-17.876-.055-9.934-.151-31.022-.214-46.862-.124-31.173.021-29.148-2.437-34.138-1.405-2.853-5.653-7.475-7.85-8.541-.77-.374-2.39-1.165-3.6-1.758l-2.2-1.078-12.4-.119c-6.955-.067-11.873.026-11.2.21m-195.368 5.163c-.237.445-.432 1.09-.432 1.435 0 .344-.18.626-.4.626s-.4.381-.4.847c0 .636-.19.797-.763.647-1.267-.332-1.304 1.093-1.385 54.306l-.078 50.8.216-47.8c.217-47.825.365-52.807 1.651-55.295.197-.382.359-.872.359-1.089s.474-1.395 1.053-2.619c.983-2.075 1.134-3.641.179-1.858m13.568 10.309c-.842 2.74-.91 99.175-.072 102.352 1.461 5.541 6.181 11.547 10.672 13.582 1.32.598 2.94 1.33 3.6 1.627 1.003.452 9.197 1.42 11.669 1.379 2.462-.041-1.138-.793-4.611-.963-3.746-.183-8.094-1.34-9.858-2.624-.22-.16-.852-.398-1.405-.53-1.098-.261-4.395-3.311-4.395-4.066 0-.258-.452-.712-1.004-1.007-.554-.297-1.455-1.492-2.012-2.668-.554-1.171-1.182-2.13-1.396-2.13-.213 0-.388-.642-.388-1.426 0-.785-.193-1.787-.428-2.226-.612-1.144-.561-95.8.054-99.329.58-3.331.337-4.454-.426-1.971m-16.924 101.638c.459 7.367.579 8.166 1.155 7.688.441-.366.612-.306.807.281.377 1.133 1.354 3.46 1.781 4.24.21.382.381.952.381 1.266 0 .315.135.632.3.706.165.073.75 1.01 1.3 2.081.55 1.072 1.315 2.15 1.7 2.397.385.246.7.577.7.735s.938 1.15 2.084 2.204 2.541 2.381 3.1 2.95c1.136 1.157 4.66 3.566 5.215 3.566.198 0 .845.45 1.439 1 .593.55 1.473 1 1.954 1s.991.116 1.132.257c.575.575 4.951 2.139 5.989 2.141.611.001 1.198.227 1.304.502.15.393 4.437.473 20.042.374 12.262-.077 19.996.021 20.232.257.535.535.394 12.484-.155 13.146-.345.415-3.893.523-17.227.523h-16.794l-1.257 1.002c-.692.551-1.555 1.284-1.918 1.627-.445.423-.746.485-.927.192-.148-.239-.445-.325-.66-.192-.245.151-.208.464.098.833.393.473.351.826-.208 1.773-.761 1.288-.588 4.84.317 6.522.89 1.653 1.938 3.043 2.295 3.043.199 0 1.051.456 1.893 1.013l1.531 1.013 33.376-.019c28.908-.017 33.48.06 34.16.574.463.35 1.686.601 2.985.612 3.367.029 3.37.034 3.602 5.892.267 6.727 1.708 9.414 5.303 9.892 2.88.382 21.539.195 22.357-.224 2.103-1.08 3.329-4.345 3.538-9.422.246-5.988.887-7.128 3.616-6.436 1.227.312 1.923.256 3.2-.255 1.465-.586 4.995-.651 34.424-.633 34.596.021 34.728.015 35.493-1.707.074-.165.356-.3.628-.3 2.324 0 4.231-6.53 2.863-9.804-.349-.836-.425-1.472-.193-1.615.21-.13.267-.423.126-.651-.167-.27-.372-.23-.583.112-.247.399-.533.264-1.179-.557-.469-.597-1.088-1.085-1.375-1.085s-.746-.27-1.02-.6c-.428-.516-2.86-.6-17.369-.6-12.589 0-16.993-.122-17.351-.48-.373-.373-.48-.329-.48.2 0 .629 1.236.68 16.474.68 15.864 0 16.537.031 18.191.831 5.665 2.743 5.841 11.136.293 13.969l-1.958 1-37 .2-37 .2-.2 6c-.209 6.283-.367 6.884-2.266 8.663-2.264 2.122-3.459 2.337-12.964 2.337-9.185 0-9.783-.095-12.294-1.952-2.31-1.709-2.654-2.816-2.876-9.248l-.2-5.8-37-.2-37-.2-1.836-.939c-6.008-3.072-5.191-12.626 1.236-14.458.826-.235 7.993-.399 17.468-.401l16.068-.002.209-1.1c.114-.605.264-3.89.331-7.3l.124-6.2-19.8-.228c-13.166-.151-20.464-.386-21.783-.703-3.93-.943-9.14-2.973-10.146-3.954-.29-.283-.717-.515-.949-.515-1.6 0-10.908-8.638-12.313-11.427-.325-.645-.963-1.803-1.418-2.573-.698-1.182-1.627-3.325-3.383-7.8-.172-.44-.513-2.319-.757-4.176-.516-3.928-1.186-5.123-.975-1.738m232.269 9.914c-.127.33-.366.6-.532.6s-.944.607-1.731 1.348c-1.426 1.346-3.31 2.054-3.715 1.398-.448-.724-1.712-.343-1.839.554-.102.715-.663 1.08-2.728 1.775l-2.6.875-50.553.035c-27.804.019-50.787.165-51.072.325-.286.159 10.493.245 23.953.19s37.162-.145 52.672-.2c19.907-.071 28.435-.232 29-.548.44-.247 2.175-1.12 3.855-1.942 2.827-1.382 5.945-3.824 5.945-4.656 0-.562-.403-.411-.655.246m-4.545.357c0 .389 1.127.535 1.636.212.411-.26.265-.358-.536-.363-.605-.003-1.1.065-1.1.151m-167.132 6.444c.328.329 36.732.426 36.732.099 0-.165-8.31-.3-18.467-.3-10.156 0-18.376.091-18.265.201m18.815 16.467c-.35.142-.389.363-.122.685.636.767 1.233 5.349 1.236 9.497l.003 3.85 1.25.25c1.763.353 29.254.301 29.797-.056.291-.191.5-2.739.6-7.294l.153-7-16.2-.071c-8.91-.039-16.433.024-16.717.139m62.971 6.632c.195 5.593.36 6.995.87 7.4.65.516 28.075.758 29.917.263.783-.21.859-.591 1.108-5.566.165-3.279.502-5.899.872-6.787.948-2.266 1.366-2.21-16.438-2.21h-16.571zm-31.026-5.875c1.985 1.797-.037 12.082-2.548 12.957-1.708.595-23.48.569-23.48-.029 0-.247-.351-.354-.786-.241-2.101.55-4.333-4.635-3.056-7.097.508-.978.51-1.204.014-1.7-.593-.593-.73-2.084-.329-3.578l.231-.864 14.619-.048c12.959-.042 14.7.026 15.335.6m62.32.09c1.554 2.955-1.495 14.419-3.412 12.831-.301-.249-.556-.237-.724.035-.378.611-21.036.564-23.095-.053-2.896-.868-5.212-10.403-3.135-12.906.832-1.003 29.837-.914 30.366.093" fill="#291372"/><path d="m145.03 108.748c.888.863 1.093.838.737-.091-.139-.361-.535-.657-.88-.657-.518 0-.494.129.143.748m16.976-.048c.004.45.111.536.3.24.162-.252.744-.543 1.294-.645.847-.158.801-.194-.3-.241-.994-.041-1.299.111-1.294.646m89.034-.394c.242.162.543.564.668.894.153.401.239.301.26-.3.022-.605-.198-.898-.668-.894-.432.004-.531.119-.26.3m75.469 110.894c0 .99.078 1.395.173.9.096-.495.096-1.305 0-1.8-.095-.495-.173-.09-.173.9m-175.309 48.22c0 .509 1.277 2.637 1.468 2.446.414-.415-.345-2.666-.9-2.666-.312 0-.568.099-.568.22m34.093.98c0 .77.082 1.085.183.7.1-.385.1-1.015 0-1.4-.101-.385-.183-.07-.183.7m62.78-.713c-.26.26-.466.932-.457 1.493.014.947.058.923.606-.341.643-1.482.591-1.892-.149-1.152m-70.173 7.002c.715.089 1.885.089 2.6 0 .715-.088.13-.161-1.3-.161s-2.015.073-1.3.161m42.6-.002c.605.091 1.595.091 2.2 0 .605-.092.11-.167-1.1-.167s-1.705.075-1.1.167" fill="#544288"/><path d="m161.633 110.7c-.292.884-.433 1.853-.313 2.154.123.309.231.144.248-.38.018-.51.224-1.285.458-1.722.234-.438.361-.991.282-1.228-.079-.238-.383.291-.675 1.176m88.34.966c-.271.514-.686 1.059-.921 1.212-.236.153-.319.389-.184.523.135.135.644-.316 1.132-1.001s.792-1.341.676-1.457-.433.209-.703.723m-105.983 2.56c-.214.564-.366 1.689-.337 2.5.053 1.46.057 1.456.339-.326.157-.99.422-2.115.589-2.5.168-.385.191-.7.052-.7s-.428.462-.643 1.026m122.06 1.98c-1.183 2.004-1.064 2.295.186.456.569-.838.951-1.608.849-1.71s-.568.462-1.035 1.254m-106.399 3.145c-.302 1.036-.437 1.996-.3 2.133s.249-.105.249-.537c0-.433.195-.982.434-1.221.238-.238.373-.844.3-1.346-.1-.682-.273-.436-.683.971m83.949 2.649c-.488.685-.778 1.356-.644 1.49s.244.067.244-.148.378-.797.84-1.293.752-.99.644-1.098c-.108-.109-.596.364-1.084 1.049m-101.541 1.603c-.297 1.211-.456 2.651-.354 3.2.154.826.195.77.241-.329.029-.73.245-1.684.479-2.12.233-.436.368-1.28.3-1.874-.097-.84-.245-.591-.666 1.123m16.57.226c-.148.586-.178 1.155-.068 1.265s.32-.279.468-.865c.147-.587.177-1.156.067-1.266s-.32.279-.467.866m82.628 1.828c-.282.452-.425.909-.317 1.016.107.108.404-.195.66-.673.605-1.13.324-1.41-.343-.343m17.783 2.183c-1.035 1.678-1.812 3.122-1.725 3.208.087.087 1-1.22 2.029-2.904s1.805-3.128 1.725-3.208c-.081-.081-.994 1.226-2.029 2.904m-101.34.23c-.684 1.896-.624 2.378.117.955.337-.646.561-1.437.498-1.758s-.34.04-.615.803m82.426-.37c-.771 1.199-1.264 2.309-.934 2.105.196-.121.625-.757.952-1.413.596-1.195.585-1.63-.018-.692m-99.677 3.5c-.033.33-.16 1.05-.282 1.6-.192.864-.16.903.232.288.249-.391.376-1.111.282-1.6-.095-.488-.199-.618-.232-.288m116.053.9c-.716.904-1.393 2.404-.967 2.14.392-.242 1.739-2.64 1.483-2.64-.066 0-.298.225-.516.5m-99.84.847c-.165.631-.206 1.242-.091 1.357.322.323.716-.966.544-1.781-.112-.533-.231-.422-.453.424m78.922 2.276c-.479.673-.805 1.29-.723 1.371.082.082.553-.468 1.047-1.223 1.115-1.7.863-1.815-.324-.148m-79.915 2.08c-.292.994-.454 2.322-.36 2.952.143.959.181.898.231-.381.033-.84.251-1.884.485-2.321s.369-1.079.3-1.426-.364.183-.656 1.176m-16.602-.236c-.147.146-.256.641-.242 1.1.024.766.057.756.409-.125.392-.979.31-1.453-.167-.975m92.394 4.773c-.407.558-.664 1.09-.572 1.182.092.093.565-.37 1.051-1.027s.744-1.189.572-1.182c-.172.006-.645.469-1.051 1.027m-93.388.647c-.26.26-.452.932-.427 1.493.038.83.083.871.243.22.109-.44.383-1.029.611-1.31.545-.67.183-1.013-.427-.403m111.653.813c-.771 1.199-1.264 2.309-.934 2.105.196-.121.625-.757.952-1.413.596-1.195.585-1.63-.018-.692m-96.035 3.277c-.27 1.009-.476 2.237-.458 2.729.019.492.292-.175.608-1.482.684-2.826.556-3.886-.15-1.247m-16.599-.735c-.161.16-.281.756-.267 1.325l.026 1.033.386-.966c.416-1.04.33-1.867-.145-1.392m90.575 2.425c-.508.775-.844 1.49-.745 1.588.098.099.568-.481 1.045-1.288 1.123-1.904.898-2.129-.3-.3m17.625 2.362c-.495.754-.82 1.371-.723 1.371.278 0 1.935-2.429 1.77-2.594-.082-.082-.553.468-1.047 1.223m-109.284.957c-.252.469-.383 1.34-.293 1.934.16 1.045.167 1.04.225-.14.033-.671.273-1.433.533-1.693.261-.261.365-.582.233-.715-.133-.132-.447.144-.698.614m107.284 2.243c-.495.754-.757 1.371-.582 1.371.36 0 1.846-2.378 1.624-2.599-.079-.079-.548.473-1.042 1.228m-19.653 1.195c-.462.783-.659 1.312-.437 1.175.434-.268 1.732-2.599 1.448-2.599-.094 0-.549.641-1.011 1.424m-71.795.176c-.338 1.679-.688 4.539-.415 3.4.105-.44.389-1.454.63-2.254.241-.799.355-1.699.253-2-.102-.3-.313.084-.468.854m-16.756.533c-.478 1.216-.364 2.24.151 1.354.228-.391.352-1.021.276-1.4-.127-.627-.164-.623-.427.046m106.569.724c-.282.452-.425.909-.317 1.016.107.108.404-.195.66-.673.605-1.13.324-1.41-.343-.343m-20.073 1.966c-.479.673-.805 1.29-.723 1.371.082.082.553-.468 1.047-1.223 1.115-1.7.863-1.815-.324-.148m-87.594 2.203c-.214.564-.366 1.689-.337 2.5.053 1.46.057 1.456.339-.326.157-.99.422-2.115.589-2.5.168-.385.191-.7.052-.7s-.428.462-.643 1.026m85.424 1.209c-.373.569-.587 1.126-.475 1.237.111.111.49-.354.842-1.035.778-1.504.563-1.622-.367-.202m-69.492 1.965c-.142.88-.365 2.14-.495 2.8-.181.914-.09.818.383-.4.342-.88.565-2.14.496-2.8-.116-1.109-.145-1.079-.384.4m86.173 2.023c-.492.751-.895 1.5-.895 1.664s.466-.387 1.036-1.225c.569-.838.972-1.587.895-1.664-.077-.078-.543.474-1.036 1.225m-19.953 1.45c-1.04 1.622-1.355 2.435-.745 1.929.332-.275.603-.733.603-1.018 0-.284.225-.598.5-.696s.383-.305.24-.46-.412-.044-.598.245m-84.119 2.127c-.269.88-.413 2.23-.32 3 .159 1.319.173 1.3.233-.326.035-.95.256-2.085.49-2.522.234-.438.35-1.011.256-1.274-.093-.263-.39.242-.659 1.122m16.823-.333c-.025.257-.162.797-.305 1.2-.201.569-.147.63.238.275.273-.251.41-.791.305-1.2-.105-.408-.212-.532-.238-.275m84.446 1.162c-.495.754-.757 1.371-.582 1.371.36 0 1.846-2.378 1.624-2.599-.079-.079-.548.473-1.042 1.228m-19.659 1.204c-.476.807-.791 1.543-.699 1.634.092.092.556-.493 1.033-1.3.476-.807.791-1.543.699-1.634-.092-.092-.556.493-1.033 1.3m-65.721 2.167c-.136.55-.362 1.45-.502 2-.158.622-.013.479.382-.379.35-.759.576-1.659.502-2-.084-.39-.226-.249-.382.379m62.161 3.687c-.26.26-.473.707-.473.993s-.18.52-.4.52-.4.202-.4.449c0 .31.185.295.6-.049.33-.274.6-.731.6-1.016 0-.284.225-.598.5-.696s.398-.29.273-.427c-.124-.136-.439-.035-.7.226m-80.028 1.444c-.271.952-.416 2.122-.323 2.6.134.69.18.637.224-.257.029-.62.245-1.484.479-1.921s.355-1.1.269-1.474c-.091-.396-.361.041-.649 1.052m16.555.469c-.152.691-.186 1.347-.076 1.457s.324-.366.476-1.057.186-1.347.076-1.457-.324.366-.476 1.057m92.6 1.791c0 .105.72.538 1.6.963.88.426 1.6.604 1.6.397s-.315-.474-.7-.593-1.013-.383-1.395-.587c-.771-.412-1.105-.467-1.105-.18m-93.567 2.509c-.292.884-.433 1.853-.313 2.154.123.309.231.144.248-.38.018-.51.224-1.285.458-1.722.234-.438.361-.991.282-1.228-.079-.238-.383.291-.675 1.176m101.167 1.427c0 .107.62.56 1.377 1.006.899.531 1.306.628 1.172.279-.112-.293-.507-.641-.877-.773-.369-.132-.897-.344-1.172-.473-.275-.128-.5-.145-.5-.039m-118.764 3.575c-.311 1.266-.446 2.421-.3 2.567.145.145.264-.18.264-.722 0-.543.194-1.181.431-1.418s.372-.948.3-1.58c-.107-.936-.236-.722-.695 1.153m75.728-.702c-.138.55-.372 1-.521 1-.298 0-1.643 2.146-1.643 2.622 0 .314 1.845-2.239 2.703-3.741.291-.509.336-.881.108-.881-.218 0-.509.45-.647 1m-58.918.067c-.025.257-.162.797-.305 1.2-.201.569-.147.63.238.275.273-.251.41-.791.305-1.2-.105-.408-.212-.532-.238-.275m107.378.32c.427.323.956.588 1.176.588s.051-.265-.376-.588c-.428-.323-.957-.587-1.177-.587s-.051.264.377.587m-31.416 2.713c-1.036 1.594-1.686 2.928-1.187 2.434.26-.257.679-.883.933-1.392.254-.51.908-1.152 1.454-1.428.873-.442.895-.503.188-.508-.442-.003-1.067.399-1.388.894m2.968.093c.428.334 1.013.607 1.3.607.288 0 .524.18.524.4s.219.4.486.4c.726 0-.455-.96-1.886-1.533-1.104-.442-1.138-.432-.424.126m-80.107 1.51c-.292.994-.454 2.322-.36 2.952.143.959.181.898.231-.381.033-.84.251-1.884.485-2.321s.369-1.079.3-1.426-.364.183-.656 1.176m-16.602-.236c-.147.146-.256.641-.242 1.1.024.766.057.756.409-.125.392-.979.31-1.453-.167-.975m133.133.07c.56.589 4.299 2.547 4.028 2.109-.122-.197-1.168-.847-2.325-1.444-1.156-.598-1.923-.897-1.703-.665m-60.564 2.099c-.498.675-.833 1.301-.743 1.391s.572-.389 1.071-1.063c.498-.675.833-1.301.743-1.391s-.572.389-1.071 1.063m65.564.711c0 .158.626.57 1.391.917s1.301.485 1.192.308c-.293-.473-2.583-1.559-2.583-1.225m-47.917 1.675c-.473.886-.697 1.51-.497 1.387.426-.264 1.678-2.678 1.487-2.869-.071-.072-.517.595-.99 1.482m15.117-1.022c.274.33.791.579 1.149.554.549-.04.542-.075-.049-.23-.385-.1-.7-.349-.7-.553s-.202-.371-.449-.371c-.31 0-.295.185.049.6m3 1.59c.66.553 1.455 1.007 1.767 1.008.683.002.653-.023-1.367-1.134l-1.6-.88zm-92.554-.323c-.025.257-.162.797-.305 1.2-.201.569-.147.63.238.275.273-.251.41-.791.305-1.2-.105-.408-.212-.532-.238-.275m54.673.936c-.877 1.54-.617 1.539.481-.003.47-.66.707-1.199.527-1.197-.18.001-.634.541-1.008 1.2m70.914-1.075c.636.487 3.167 1.808 3.167 1.653 0-.268-2.518-1.778-2.967-1.78-.201 0-.291.056-.2.127m-142.425 1.058c-.252.469-.383 1.34-.293 1.934.16 1.045.167 1.04.225-.14.033-.671.273-1.433.533-1.693.261-.261.365-.582.233-.715-.133-.132-.447.144-.698.614m111.992.76c0 .343 2.817 1.77 3.045 1.543.08-.08-.573-.529-1.45-.997-.877-.469-1.595-.714-1.595-.546m36.224 1.441c.427.323.956.588 1.176.588s.051-.265-.376-.588c-.428-.323-.957-.587-1.177-.587s-.051.264.377.587m-132.38 1.013c-.338 1.679-.688 4.539-.415 3.4.105-.44.389-1.454.63-2.254.241-.799.355-1.699.253-2-.102-.3-.313.084-.468.854m53.756 0c-.488.685-.792 1.341-.676 1.457s.433-.209.703-.723c.271-.514.686-1.059.921-1.212.236-.153.319-.389.184-.523-.135-.135-.644.316-1.132 1.001m-70.508.242c-.161.16-.287.666-.28 1.125.011.769.044.778.428.118.448-.769.333-1.725-.148-1.243m88.147 1.982c-.462.783-.659 1.312-.437 1.175.434-.268 1.732-2.599 1.448-2.599-.094 0-.549.641-1.011 1.424m66.729-.124c.292.385.774.7 1.073.7s1.552.645 2.784 1.434c1.233.788 2.322 1.352 2.421 1.254.236-.237-4.56-3.088-5.195-3.088-.27 0-.743-.225-1.052-.5-.477-.425-.481-.396-.031.2m-86.528 1.54c-.524 1.051-.529 1.166-.029.751.324-.269.589-.722.589-1.007 0-.284.225-.608.5-.719.35-.142.359-.211.029-.233-.259-.018-.749.526-1.089 1.208m17.852 1.789c-.495.754-.757 1.371-.582 1.371.36 0 1.846-2.378 1.624-2.599-.079-.079-.548.473-1.042 1.228m-87.278.145c-.228.425-.391 1.37-.364 2.1.049 1.285.058 1.276.314-.274.145-.88.403-1.825.574-2.1.17-.275.215-.5.1-.5-.116 0-.396.348-.624.774m128.386-.216c0 .292 2.893 1.878 3.208 1.758.169-.064-.484-.522-1.451-1.018-.966-.497-1.757-.829-1.757-.74m-42.822 2.94c-.904 1.803-.891 1.981.042.585.484-.724.797-1.4.695-1.501-.102-.102-.434.31-.737.916m-69.907 1.867c-.291 1.27-.455 2.384-.365 2.474.311.311 1.17-2.882 1.032-3.833-.093-.644-.309-.204-.667 1.359m118.39-1.547c.363.371.879.602 1.145.513.267-.089-.031-.392-.661-.675-1.072-.48-1.103-.47-.484.162m-69.096 2.364c-.842 1.44-1.674 2.618-1.848 2.618s-.314.315-.31.7.914-.715 2.023-2.444c1.108-1.729 1.937-3.222 1.841-3.318s-.863 1.004-1.706 2.444m71.035-1.423c0 .313 2.815 1.759 3.022 1.553.067-.068-.585-.511-1.45-.984-.864-.474-1.572-.73-1.572-.569m-137 .841c-.15.473-.183.95-.073 1.06s.323-.187.473-.66.183-.95.073-1.06-.323.187-.473.66m84.657.857c-.282.452-.425.909-.317 1.016.107.108.404-.195.66-.673.605-1.13.324-1.41-.343-.343m88.567-.27c.427.323.956.588 1.176.588s.051-.265-.376-.588c-.428-.323-.957-.587-1.177-.587s-.051.264.377.587m-32.433.599c.264.426 2.678 1.678 2.869 1.487.072-.071-.595-.517-1.482-.99-.886-.473-1.51-.697-1.387-.497m36.033 1.401c.427.323.956.588 1.176.588s.051-.265-.376-.588c-.428-.323-.957-.587-1.177-.587s-.051.264.377.587m-177.378.48c-.025.257-.162.797-.305 1.2-.201.569-.147.63.238.275.273-.251.41-.791.305-1.2-.105-.408-.212-.532-.238-.275m179.338.508c.355.573 2.616 1.613 2.616 1.202 0-.199-.45-.475-1-.613s-1-.411-1-.607c0-.197-.191-.357-.424-.357s-.319.169-.192.375m-96.492 1.454c-.495.754-.763 1.37-.596 1.368.323-.002 1.811-2.424 1.612-2.623-.065-.064-.522.5-1.016 1.255m-83.599 1.371c0 .77.082 1.085.183.7.1-.385.1-1.015 0-1.4-.101-.385-.183-.07-.183.7m183.507-1.009c0 .105.721.539 1.602.964.881.426 1.507.621 1.392.435-.355-.575-2.994-1.808-2.994-1.399m-167.299 2.409c-.157.88-.385 2.14-.508 2.8-.15.811-.015.64.416-.527.352-.949.58-2.209.508-2.8-.11-.907-.174-.826-.416.527m65.899-.439c-.745.893-1.409 2.239-1.103 2.236.166-.001.624-.565 1.015-1.254.739-1.297.785-1.819.088-.982m75.6 2.404c.66.567 1.47 1.018 1.8 1.001.533-.026.533-.054 0-.255-.33-.124-1.14-.574-1.8-1.001l-1.2-.776zm-77.832 1.336c-.312.604-.747 1.231-.967 1.393-.254.186-.228.296.07.3.448.006 1.88-2.376 1.598-2.658-.074-.074-.389.36-.701.965m-19.595.965c-.271.514-.686 1.059-.921 1.212-.236.153-.319.389-.184.523.135.135.644-.316 1.132-1.001s.792-1.341.676-1.457-.433.209-.703.723m-61.927 1.063c-.271.951-.421 2.301-.333 3 .149 1.195.163 1.179.223-.255.035-.84.255-1.884.489-2.321s.355-1.1.269-1.474c-.091-.397-.361.04-.648 1.05m165.56-.034c-.006.472 2.753 1.879 3.068 1.564.084-.083-.439-.39-1.161-.682-.722-.293-1.445-.722-1.607-.954-.195-.281-.296-.256-.3.072m-85.935.94c-.29.464-.45.92-.356 1.014.278.277 1.173-.985 1.022-1.439-.077-.23-.377-.039-.666.425m-1.694 2.665c-.884 1.764-.902 1.824-.454 1.548.564-.349 1.702-2.648 1.311-2.648-.168 0-.554.495-.857 1.1m-62.048.7c-.131.44-.371 1.16-.533 1.6-.252.686-.198.67.383-.107.372-.5.612-1.22.533-1.6-.125-.601-.176-.587-.383.107m42.151 1.08c-.264.264-.48.699-.48.967 0 .267-.225.577-.5.688-.35.142-.359.211-.029.233.259.018.74-.508 1.069-1.168.66-1.323.651-1.431-.06-.72m120.096 1.698c.428.342 1.058.608 1.4.59.539-.027.542-.061.024-.254-.33-.122-.96-.388-1.4-.59-.787-.362-.788-.358-.024.254m-102.434.295c-.803 1.252-1.274 2.327-1.018 2.324.358-.003 1.755-2.451 1.529-2.678-.095-.095-.325.065-.511.354m-77.69 1.968c-.288 1.013-.442 2.273-.342 2.8.142.751.193.672.236-.367.029-.73.245-1.684.479-2.121s.364-1.1.288-1.474c-.076-.373-.374.15-.661 1.162m182.717-1.101c.313.389 1.272 1.048 2.131 1.463 1.116.539 1.426.589 1.082.176-.264-.318-.655-.579-.869-.579s-.957-.398-1.651-.884c-.934-.655-1.114-.701-.693-.176m-124.689.34c-.264.264-.48.714-.48 1s-.18.52-.4.52-.4.191-.4.424c0 .693.707.045 1.344-1.232.656-1.315.646-1.422-.064-.712m-41.234.587c-.025.257-.162.797-.305 1.2-.201.569-.147.63.238.275.273-.251.41-.791.305-1.2-.105-.408-.212-.532-.238-.275m58.4 2.537c-.494.878-.81 1.596-.704 1.596.307 0 1.968-2.823 1.775-3.017-.096-.096-.578.544-1.071 1.421m-19.913 1.425c-.252.534-.307.971-.122.971.347 0 .97-1.553.721-1.801-.077-.077-.347.296-.599.83m-39.71.915c-.266.644-.408 1.684-.314 2.313.164 1.096.174 1.089.231-.183.033-.73.255-1.69.492-2.135.238-.444.352-.888.254-.986s-.396.348-.663.991m-16.531-.502c-.161.16-.287.666-.28 1.125.011.769.044.778.428.118.448-.769.333-1.725-.148-1.243m72.59 4.339c-.348.762-.336.938.051.789.274-.105.525-.546.558-.98.078-1.042-.069-.996-.609.191" fill="#3f3661"/></g></svg>