<svg clip-rule="evenodd" fill-rule="evenodd" image-rendering="optimizeQuality" shape-rendering="geometricPrecision" text-rendering="geometricPrecision" viewBox="7955 10797 6313 6313" xmlns="http://www.w3.org/2000/svg" xmlns:xlink="http://www.w3.org/1999/xlink"><clipPath id="a" clip-rule="nonzero"><path d="m11369 15292h-3v-261h3z"/></clipPath><clipPath id="b" clip-rule="nonzero"><path d="m11365 15292h-494v-261h494z"/></clipPath><clipPath id="c" clip-rule="nonzero"><path d="m12045 15292h-146v-261h146z"/></clipPath><clipPath id="d" clip-rule="nonzero"><path d="m10338 15292h-146v-261h146z"/></clipPath><clipPath id="e" clip-rule="nonzero"><path d="m11369 15292h-3v-261h3z"/></clipPath><path d="m14070 13946c0 1636-1326 2962-2961 2962-1636 0-2962-1326-2962-2962s1326-2962 2962-2962c1635 0 2961 1326 2961 2962z" fill="#fefefe" fill-rule="nonzero"/><path d="m14268 13954c0 1743-1413 3156-3156 3156-1744 0-3157-1413-3157-3156 0-1744 1413-3157 3157-3157 1743 0 3156 1413 3156 3157z" fill="#fefefe"/><path d="m13992 13954c0 1590-1290 2880-2880 2880-1591 0-2880-1290-2880-2880 0-1591 1289-2880 2880-2880 1590 0 2880 1289 2880 2880z" fill="none" stroke="#222324" stroke-width="42.42"/><g fill-rule="nonzero"><path d="m11899 15415v-123h-533v247h1199c68 0 123-56 123-124s-55-123-123-123h-520v123z" fill="#725ca3"/><path d="m12280 12547h-289l-1356 2237h289l549-906 1410 770c49-61 79-140 79-225v-13l-1361-743z" fill="#2b2a29"/><path d="m12935 14677-52-29c-67 83-168 136-282 136h-1677l-141 231-211-128 63-103h-638l-10 45h-253l10-45h-108c-199 0-361-162-361-361v-1515c0-199 162-361 361-361h594l32-150 242 53-21 97h1508l83-136 211 128-5 8h321c199 0 361 162 361 361v1502l92 50zm-334-2377h-2965c-336 0-608 273-608 608v1515c0 336 272 608 608 608h556v-123h146v123h533v-123h494v123h534v-123h146v123h556c335 0 608-272 608-608v-1515c0-335-273-608-608-608z" fill="#725ca3"/><path d="m12962 14423c0 85-30 164-79 225l52 29 119-217-92-50z" fill="#725ca3"/><path d="m10338 15292v123h-146v-123h-520c-68 0-124 55-124 123s56 124 124 124h1199v-247z" fill="#725ca3"/><path d="m10192 15415h146v-123h-146z" fill="#725ca3"/><path d="m11899 15415h146v-123h-146z" fill="#725ca3"/><path d="m10871 15695c0 71 58 129 129 129h236c72 0 129-58 129-129v-156h-494z" fill="#725ca3"/><path d="m10871 15539h494v-247h-494z" fill="#725ca3"/><path d="m9744 14784h253l486-2237h-253z" fill="#2b2a29"/><path d="m10192 15031h146v-123h-146z" fill="#725ca3"/><path d="m11899 15031h146v-123h-146z" fill="#725ca3"/><path d="m12285 12539-211-128-83 136h289z" fill="#725ca3"/><path d="m10572 14887 211 128 141-231h-289z" fill="#725ca3"/><path d="m10871 15031h494v-123h-494z" fill="#725ca3"/><path d="m10504 12450-242-53-32 150h253z" fill="#725ca3"/><path d="m9734 14829h253l10-45h-253z" fill="#725ca3"/></g><g clip-path="url(#a)"><image height="318.923" width="55.4055" x="11339" xlink:href="2000-NEW TWITTER LANDBOARD-00940d9a-e5d3-4871-a13c-2d047b4171f2_Images\2000-NEW TWITTER LANDBOARD-00940d9a-e5d3-4871-a13c-2d047b4171f2_ImgID1.png" y="15004"/></g><path d="m10871 15292h494v-261h-494z" fill="#725ca3" fill-rule="nonzero"/><g clip-path="url(#b)"><image height="319" width="555" x="10839" xlink:href="2000-NEW TWITTER LANDBOARD-00940d9a-e5d3-4871-a13c-2d047b4171f2_Images\2000-NEW TWITTER LANDBOARD-00940d9a-e5d3-4871-a13c-2d047b4171f2_ImgID2.png" y="15004"/></g><path d="m11899 15292h146v-261h-146z" fill="#725ca3" fill-rule="nonzero"/><g clip-path="url(#c)"><image height="319" width="197" x="11872" xlink:href="2000-NEW TWITTER LANDBOARD-00940d9a-e5d3-4871-a13c-2d047b4171f2_Images\2000-NEW TWITTER LANDBOARD-00940d9a-e5d3-4871-a13c-2d047b4171f2_ImgID3.png" y="15004"/></g><path d="m10192 15292h146v-261h-146z" fill="#725ca3" fill-rule="nonzero"/><g clip-path="url(#d)"><image height="319" width="191" x="10170" xlink:href="2000-NEW TWITTER LANDBOARD-00940d9a-e5d3-4871-a13c-2d047b4171f2_Images\2000-NEW TWITTER LANDBOARD-00940d9a-e5d3-4871-a13c-2d047b4171f2_ImgID4.png" y="15004"/></g><path d="m14070 13946c0 1636-1326 2962-2961 2962-1636 0-2962-1326-2962-2962s1326-2962 2962-2962c1635 0 2961 1326 2961 2962z" fill="#fefefe" fill-rule="nonzero"/><path d="m14268 13954c0 1743-1413 3156-3156 3156-1744 0-3157-1413-3157-3156 0-1744 1413-3157 3157-3157 1743 0 3156 1413 3156 3157z" fill="#fefefe"/><path d="m13992 13954c0 1590-1290 2880-2880 2880-1591 0-2880-1290-2880-2880 0-1591 1289-2880 2880-2880 1590 0 2880 1289 2880 2880z" fill="none" stroke="#222324" stroke-width="42.42"/><path d="m11899 15415v-123h-533v247h1199c68 0 123-56 123-124s-55-123-123-123h-520v123z" fill="#725ca3" fill-rule="nonzero"/><path d="m12280 12547h-289l-1356 2237h289l549-906 1410 770c49-61 79-140 79-225v-13l-1361-743z" fill="#2b2a29" fill-rule="nonzero"/><path d="m12935 14677-52-29c-67 83-168 136-282 136h-1677l-141 231-211-128 63-103h-638l-10 45h-253l10-45h-108c-199 0-361-162-361-361v-1515c0-199 162-361 361-361h594l32-150 242 53-21 97h1508l83-136 211 128-5 8h321c199 0 361 162 361 361v1502l92 50zm-334-2377h-2965c-336 0-608 273-608 608v1515c0 336 272 608 608 608h556v-123h146v123h533v-123h494v123h534v-123h146v123h556c335 0 608-272 608-608v-1515c0-335-273-608-608-608z" fill="#725ca3" fill-rule="nonzero"/><path d="m12962 14423c0 85-30 164-79 225l52 29 119-217-92-50z" fill="#725ca3" fill-rule="nonzero"/><path d="m10338 15292v123h-146v-123h-520c-68 0-124 55-124 123s56 124 124 124h1199v-247z" fill="#725ca3" fill-rule="nonzero"/><path d="m10192 15415h146v-123h-146z" fill="#725ca3" fill-rule="nonzero"/><path d="m11899 15415h146v-123h-146z" fill="#725ca3" fill-rule="nonzero"/><path d="m10871 15695c0 71 58 129 129 129h236c72 0 129-58 129-129v-156h-494z" fill="#725ca3" fill-rule="nonzero"/><path d="m10871 15539h494v-247h-494z" fill="#725ca3" fill-rule="nonzero"/><path d="m9744 14784h253l486-2237h-253z" fill="#2b2a29" fill-rule="nonzero"/><path d="m10192 15031h146v-123h-146z" fill="#725ca3" fill-rule="nonzero"/><path d="m11899 15031h146v-123h-146z" fill="#725ca3" fill-rule="nonzero"/><path d="m12285 12539-211-128-83 136h289z" fill="#725ca3" fill-rule="nonzero"/><path d="m10572 14887 211 128 141-231h-289z" fill="#725ca3" fill-rule="nonzero"/><path d="m10871 15031h494v-123h-494z" fill="#725ca3" fill-rule="nonzero"/><path d="m10504 12450-242-53-32 150h253z" fill="#725ca3" fill-rule="nonzero"/><path d="m9734 14829h253l10-45h-253z" fill="#725ca3" fill-rule="nonzero"/><g clip-path="url(#e)"><image height="318.923" width="55.4055" x="11339" xlink:href="2000-NEW TWITTER LANDBOARD-00940d9a-e5d3-4871-a13c-2d047b4171f2_Images\2000-NEW TWITTER LANDBOARD-00940d9a-e5d3-4871-a13c-2d047b4171f2_ImgID5.png" y="15004"/></g><path d="m10871 15292h494v-261h-494z" fill="#725ca3" fill-rule="nonzero"/><path d="m11899 15292h146v-261h-146z" fill="#725ca3" fill-rule="nonzero"/><path d="m10192 15292h146v-261h-146z" fill="#725ca3" fill-rule="nonzero"/></svg>