<svg fill="none" height="171" viewBox="0 0 174 171" width="174" xmlns="http://www.w3.org/2000/svg" xmlns:xlink="http://www.w3.org/1999/xlink"><linearGradient id="a" gradientUnits="userSpaceOnUse" x1="12.4845" x2="160.809" y1="40.2584" y2="125.894"><stop offset="0" stop-color="#bcbeff"/><stop offset=".151" stop-color="#a3a7f5"/><stop offset=".3866" stop-color="#8289e8"/><stop offset=".6124" stop-color="#6a73df"/><stop offset=".8221" stop-color="#5c66d9"/><stop offset="1" stop-color="#5761d7"/></linearGradient><path d="m122.502 8.92047c-22.5-.4-41.8997 7.10003-57.6997 23.00003-12.8 12.8-20.1 28.4-22 46.5-3.9 37.7995 20 67.2995 44.4 77.3995-16-14.7-25.4-32.7-26.5-54.6-1.1-21.8995 6-40.9995 21-56.9995 23.1997-24.6 57.3997-28.9 82.4997-18.5-5.5 0-11 0-17.2 0 3.2 4 6 7.4 8.5 11s4.6 7.5 6.7 11.5c-18.7-8.2-36.9-8-54.2 2.9-12.5997 7.9-20.7997 19.4-23.9997 34-3.3 14.7-.9 28.6995 7.4 41.3995 5.7 8.7 13.1997 15.5 23.0997 19.9-21.3997-26.9-22.9997-53.4995 1.4-78.5995 15.2-15.7 38.5-17.6 55.1-10.9-.1.1-.1.3-.2.3-4.5.5-4.4.4-3.3 4.9 1 3.9 1.7 7.9 2.6 11.9.1.7.1 1.4.1 2.4-12.6-6.2-24.8-6.4-36.5 1.1-8 5.1-13.1 12.5-15.3 21.8-4.3 18.8995 8.5 35.5995 20 38.8995-7.5-7.9-11.2-17-10.3-27.5.6-7.5 3.4-14.1995 8.4-19.8995 9.2-10.6 25.1-14.8 37.4-9.7-2.9 0-3.2 1.4-3.2 3.5 0 20.4995-6.4 38.8995-19.3 54.7995-12.9 15.8-29.5 26-49.4 29.7-29.3997 5.4-55.4997-2.2-76.8997-23.2-16.39999-15.9-24.999992-36-25.09999185-59.0995-.20000015-30.5 12.59999185-54.7 37.39999185-72.1 16.8-11.70003 35.8-16.20003 56.3-14.300034 9.1997.800004 17.8997 3.300004 26.2997 6.900004.7.3 1.5.7 2.2 1.1.1 0 .2.1.3.5z" fill="url(#a)"/></svg>