<svg fill="none" height="192" viewBox="0 0 192 192" width="192" xmlns="http://www.w3.org/2000/svg" xmlns:xlink="http://www.w3.org/1999/xlink"><linearGradient id="a" gradientUnits="userSpaceOnUse" x1="33.3333" x2="200" y1="178.667" y2="70.6667"><stop offset="0" stop-color="#1acbfc"/><stop offset="1" stop-color="#ff009b"/></linearGradient><radialGradient id="b" cx="0" cy="0" gradientTransform="matrix(124.44455696 -68.44452403 68.44452403 124.44455696 38.7555 139.556)" gradientUnits="userSpaceOnUse" r="1"><stop offset="0" stop-color="#1d15ec"/><stop offset="1" stop-color="#9002ae"/></radialGradient><circle cx="96" cy="96" fill="url(#a)" r="96"/><circle cx="95.9998" cy="96" fill="url(#b)" r="76.8"/><path clip-rule="evenodd" d="m82.9295 139.011h-18.975l-.0235-33.751h-23.931v-12.617h23.9222l-.0073-10.4083h-23.9149v-12.6171h23.9061l-.0132-18.951h39.1201c8.749 0 16.018 2.8339 21.748 8.4402 3.187 3.1187 5.478 6.6188 6.884 10.5108h18.755v12.6171h-17.174c-.204 2.5975-.726 5.0355-1.565 7.3676-.39 1.084-.804 2.0994-1.24 3.0407h19.977v12.617h-32.229l-.555.299 18.914 33.452h-20.207l-17.004-30.927h-16.3875zm28.0925-51.1953c2.28-2.2179 3.389-4.9286 3.389-8.1322 0-3.45-1.109-6.2839-3.389-8.5633-2.279-2.2179-5.175-3.3884-8.625-3.3884h-19.5291v23.3491h19.5291c3.45 0 6.346-1.0474 8.625-3.2652z" fill="#fff" fill-rule="evenodd"/></svg>