<svg fill="none" height="55" viewBox="0 0 56 55" width="56" xmlns="http://www.w3.org/2000/svg"><g clip-rule="evenodd" fill-rule="evenodd"><path d="m20.5 19.5c-1.9789 2.6456-4.3122 4.9789-7 7-3.60269 1.3005-6.93599 2.9672-9.99999 5-.95837-.4528-1.7917-1.1195-2.5-2-.832149-9.6839-.665479-19.3505.5-29 6.6877 6.02101 13.02099 12.3543 18.99999 19z" fill="#3f4142" opacity=".983"/><path d="m49.5 4.5c-2.3623 2.69204-4.6956 5.3587-7 8-4.9729 4.3062-9.6396 8.9729-14 14-2.6667-2-5-4.3333-7-7 3.4566.2579 6.7899.7579 10 1.5 5.5906-6.0968 11.5906-11.5968 18-16.5z" fill="#010102" opacity=".01"/><path d="m42.5 12.5c3.5518 2.2518 7.2184 4.4185 11 6.5 1.3846 2.5848.7179 4.5848-2 6-2.9741.9931-5.9741 1.8264-9 2.5-1.3333 0-2.6667 0-4 0-3.3333 0-6.6667 0-10 0 0-.3333 0-.6667 0-1 4.3604-5.0271 9.0271-9.6938 14-14z" fill="#393c3e"/><path d="m20.5 19.5h1c2 2.6667 4.3333 5 7 7v1c-5.3662 4.3656-10.0329 9.3656-14 15-4-3.3333-7.6667-7-11-11 3.064-2.0328 6.3973-3.6995 10-5 2.6878-2.0211 5.0211-4.3544 7-7z" fill="#292d31"/><path d="m28.5 27.5h10c-2.1979.6653-4.5312 1.3319-7 2l1.5 3c.4995 5.9908.6662 11.9908.5 18-1.4991 3.0317-3.8324 4.5317-7 4.5-4.2036-4.0356-8.2036-8.2022-12-12.5 3.9671-5.6344 8.6338-10.6344 14-15z" fill="#37393c" opacity=".998"/><path d="m55.5.5v27c-2.6009 4.2706-5.9342 7.9372-10 11-.5977-3.7225-1.5977-7.3891-3-11 3.0259-.6736 6.0259-1.5069 9-2.5 2.7179-1.4152 3.3846-3.4152 2-6-3.7816-2.0815-7.4482-4.2482-11-6.5 2.3044-2.6413 4.6377-5.30796 7-8 1.2079-2.54419 3.2079-3.87752 6-4z" fill="#23272c" opacity=".976"/><path d="m38.5 27.5h4c1.4023 3.6109 2.4023 7.2775 3 11-3.6667 4.3333-7.6667 8.3333-12 12 .1662-6.0092-.0005-12.0092-.5-18-.5-1-1-2-1.5-3 2.4688-.6681 4.8021-1.3347 7-2z" fill="#2a2e32" opacity=".994"/></g></svg>