<svg fill="#fff" viewBox="167.63 295.103 1549.423 490.475" xmlns="http://www.w3.org/2000/svg"><path d="m1586.467 296.036-126.553 187.271-127.287-187.271h-128.748v487.929h155.815v-175.57l100.22 146.308 99.486-146.308v175.57h155.815v-487.929zm-855.108 487.929h190.344l38.262-83.33 38.263 83.33h186.604l-224.867-487.929zm17.377-225.818 86.453-262.111h-165.324l-56.327 210.809-56.328-210.809h-106.803l-56.328 210.809-56.328-210.809h-165.324l105.13 318.735zm-436.114 162.937 20.74 62.881h340.892l36.52-110.728z"/><circle cx="340.952" cy="660" r="40.635"/><circle cx="514.238" cy="639.683" r="40.635"/><circle cx="682.54" cy="619.365" r="40.635"/></svg>