<svg height="479.297" viewBox="0 0 479.297 479.297" width="479.297" xmlns="http://www.w3.org/2000/svg"><ellipse cx="239.657" cy="239.66" fill="#ffcd00" rx="224.304" ry="224.306"/><g fill="#231f20"><path d="m337.6 683.594 29.491-89.4a8.243 8.243 0 0 0 -7.832-10.825h-51.39a1.1 1.1 0 0 0 -1.07.819l-20.389 76.324a1.108 1.108 0 0 1 -2.14 0l-18.692-69.956a9.693 9.693 0 0 0 -9.369-7.19h-26.409a9.439 9.439 0 0 0 -9.122 7l-18.745 70.142a1.106 1.106 0 0 1 -2.136 0l-20.4-76.328a1.1 1.1 0 0 0 -1.07-.819h-48.074a10.642 10.642 0 0 0 -10.109 13.974l35.578 107.865a1.108 1.108 0 0 0 1.184.75l179.779-21.606a1.1 1.1 0 0 0 .915-.75z" transform="translate(-3.345 -424.876)"/><path d="m134.1 650.285 4.258 12.909h131.222l10.12-30.694a7.991 7.991 0 0 0 -8.541-10.436l-128.977 15.5a9.736 9.736 0 0 0 -8.082 12.721z" transform="translate(35.785 -316.878)"/><circle cx="177.064" cy="298.594" r="15.642"/><circle cx="243.77" cy="290.773" r="15.642"/><circle cx="15.642" cy="15.642" r="15.642" transform="matrix(.162 -.987 .987 .162 290.591 295.86)"/></g><path d="m389.114 566.021a189.976 189.976 0 0 1 44.229 121.923c0 106.589-88.068 192.994-196.706 192.994a198.2 198.2 0 0 1 -124.268-43.394 197.773 197.773 0 0 0 152.477 71.072c108.638 0 196.706-86.405 196.706-192.995 0-60.345-28.232-114.213-72.438-149.6z" fill="#ffb900" transform="translate(-3.538 -454.989)"/><path d="m151.645 556.239a212.875 212.875 0 0 0 -31.945 20.893 8.638 8.638 0 0 0 -.706 12.875 10.846 10.846 0 0 0 14.313.861 194.127 194.127 0 0 1 26.664-17.306 10.059 10.059 0 0 0 4.447-13.035 9.241 9.241 0 0 0 -12.773-4.288z" fill="#231f20" transform="translate(-24.047 -525.625)"/><path d="m130.863 603.136a16.506 16.506 0 0 1 -11.7-4.823 14.4 14.4 0 0 1 1.207-21.462 219.368 219.368 0 0 1 32.811-21.458 15 15 0 0 1 20.718 6.981 15.871 15.871 0 0 1 -6.963 20.5 188.973 188.973 0 0 0 -25.868 16.787 16.679 16.679 0 0 1 -10.205 3.475zm27.727-37.582a207.878 207.878 0 0 0 -31.085 20.331 2.777 2.777 0 0 0 -1.055 2.042 2.891 2.891 0 0 0 .854 2.242 5.107 5.107 0 0 0 6.724.377 199.746 199.746 0 0 1 27.458-17.819 4.327 4.327 0 0 0 1.935-5.575 3.412 3.412 0 0 0 -2.026-1.832 3.511 3.511 0 0 0 -2.805.234z" fill="#231f20" transform="translate(-28.287 -529.859)"/><path d="m525.142 653.888c-45.29-67.1-117.448-105.007-195.436-105.007a235.214 235.214 0 0 0 -59.566 7.619 9.272 9.272 0 0 0 -6.124 12.809l.54 1.179a10.724 10.724 0 0 0 12.409 5.936 213.582 213.582 0 0 1 207.708 60.361c45.613 48.34 66.126 114.438 54.938 182.362a205.5 205.5 0 0 1 -35.816 86.413c-49.3 68.684-130.459 101.6-213.96 86.519a203.87 203.87 0 0 1 -80.2-33.3c-59.359-41.325-92.825-106.09-92.825-176a211.292 211.292 0 0 1 46.49-132.828 9.94 9.94 0 0 0 -.7-13.251 10.958 10.958 0 0 0 -16.324.926 232.081 232.081 0 0 0 -50.461 143.181 234.482 234.482 0 0 0 73 171.748c52.526 49.848 124.274 72.62 198.2 61.256a225.859 225.859 0 0 0 95.47-38.269c76.954-54.046 113.94-144.107 97.13-236.767a222.888 222.888 0 0 0 -34.473-84.887z" fill="#231f20" transform="translate(-90.051 -543.12)"/><path d="m334.15 1026.66a239.658 239.658 0 0 1 -188.14-388.37 17.215 17.215 0 0 1 25.653-1.463 16.194 16.194 0 0 1 1.155 21.6 203.494 203.494 0 0 0 -45.009 128.6c0 68.538 32.773 130.663 89.919 170.449a198.4 198.4 0 0 0 77.555 32.2c39.687 7.165 79.821 3.2 116.061-11.462 36.207-14.655 67.742-39.669 91.2-72.341a199.73 199.73 0 0 0 34.637-83.573c10.716-65.067-8.67-129.443-53.182-176.623a206.821 206.821 0 0 0 -201.126-58.443 16.978 16.978 0 0 1 -19.642-9.407l-.539-1.182a15.532 15.532 0 0 1 10.235-21.464 241.16 241.16 0 0 1 173.713 20.205 246.425 246.425 0 0 1 87.513 79.514 227.2 227.2 0 0 1 35.367 87.091c8.442 46.535 3.691 93.591-13.744 136.073-17.431 42.467-47.076 79.271-85.74 106.423a232.659 232.659 0 0 1 -97.914 39.253 249.9 249.9 0 0 1 -37.972 2.92zm-174.666-382.307c-.1 0-.182.005-.265.009a4.587 4.587 0 0 0 -3.368 1.743 224.333 224.333 0 0 0 -48.986 139 227.045 227.045 0 0 0 227.317 228.985 237.083 237.083 0 0 0 36.029-2.766 220.076 220.076 0 0 0 92.6-37.115c36.7-25.774 64.822-60.667 81.337-100.909 16.519-40.259 21.018-84.889 13-129.058a214.568 214.568 0 0 0 -33.419-82.3 233.738 233.738 0 0 0 -83.014-75.464 228.609 228.609 0 0 0 -164.615-19.142 2.964 2.964 0 0 0 -1.963 1.62 2.88 2.88 0 0 0 -.017 2.469l.534 1.175a4.426 4.426 0 0 0 5.12 2.445 219.37 219.37 0 0 1 213.358 62c47.23 50.059 67.8 118.323 56.442 187.292a212.393 212.393 0 0 1 -36.824 88.863c-24.841 34.608-58.277 61.119-96.692 76.664-38.444 15.558-80.98 19.772-123.008 12.179a211.031 211.031 0 0 1 -82.5-34.253c-30.18-21.01-53.894-47.706-70.492-79.346a219.084 219.084 0 0 1 -24.816-101.418 215.925 215.925 0 0 1 47.768-136.454 3.637 3.637 0 0 0 -.236-4.85 4.592 4.592 0 0 0 -3.29-1.369z" fill="#231f20" transform="translate(-94.29 -547.362)"/></svg>