<svg viewBox="0 0 100 100" xmlns="http://www.w3.org/2000/svg"><path d="m79.6 19.424c-.4-.4383-.6-.8766-.6-1.4245 0-.54787.2-.98617.6-1.4245.8-.76702 2-.76702 2.8 0 .4.4383.6.8766.6 1.4245 0 .54787-.2.98617-.6 1.4245-.4.32872-.9.54787-1.4.54787-.5.10957-1-.10957-1.4-.54787"/><path d="m74.556 24.448c-.33333-.44138-.55556-.88276-.55556-1.4345s.22222-.9931.55556-1.4345c.77778-.77241 2.1111-.77241 2.8889 0 .33333.44138.55556.88276.55556 1.4345s-.22222.9931-.55556 1.4345c-.44444.33103-.88889.55172-1.4444.55172s-1-.22069-1.4444-.55172"/><path d="m69.556 30.448c-.33333-.33103-.55556-.88276-.55556-1.4345s.22222-.9931.55556-1.4345c.77778-.77241 2.1111-.77241 2.8889 0 .33333.33103.55556.88276.55556 1.4345s-.22222.9931-.55556 1.4345c-.44444.44138-.88889.55172-1.4444.55172s-1.1111-.22069-1.4444-.55172"/><path d="m64.6 35.448c-.4-.33103-.6-.88276-.6-1.4345s.2-.9931.6-1.4345c.8-.77241 2-.77241 2.8 0 .4.33103.6.88276.6 1.4345s-.2 1.1034-.6 1.4345c-.4.44138-.9.55172-1.4.55172s-1-.11034-1.4-.55172"/><path d="m59.556 40.424c-.44444-.32872-.55556-.8766-.55556-1.4245 0-.54787.22222-.98617.55556-1.4245.77778-.76702 2.1111-.76702 2.8889 0 .44444.32872.55556.8766.55556 1.4245 0 .54787-.22222 1.0957-.55556 1.4245-.33333.4383-.88889.54787-1.4444.54787-.55556.10957-1.1111-.10957-1.4444-.54787"/><path d="m53 44.014c0-.55172.22222-.9931.55556-1.4345.77778-.77241 2.1111-.77241 2.8889 0 .44444.44138.55556.88276.55556 1.4345s-.22222.9931-.55556 1.4345c-.33333.33103-.88889.55172-1.4444.55172s-1-.22069-1.4444-.55172c-.33333-.33103-.55556-.88276-.55556-1.4345z"/><path d="m43.556 56.424c-.33333-.32872-.55556-.8766-.55556-1.4245 0-.54787.22222-.98617.55556-1.4245.77778-.76702 2.1111-.76702 2.8889 0 .44444.4383.55556.8766.55556 1.4245 0 .54787-.22222.98617-.55556 1.4245-.33333.4383-.88889.54787-1.4444.54787-.55556.10957-1-.10957-1.4444-.54787"/><path d="m38.6 61.424c-.4-.32872-.6-.8766-.6-1.4245 0-.54787.2-.98617.6-1.4245.8-.76702 2-.76702 2.8 0 .4.4383.6.8766.6 1.4245 0 .54787-.2.98617-.6 1.4245-.4.4383-.9.54787-1.4.54787-.5.10957-1-.10957-1.4-.54787"/><path d="m33.556 66.448c-.33333-.33103-.55556-.88276-.55556-1.4345s.22222-1.1034.55556-1.4345c.77778-.77241 2.1111-.77241 2.8889 0 .33333.33103.55556.88276.55556 1.4345s-.22222.9931-.55556 1.4345c-.44444.44138-.88889.55172-1.4444.55172s-1-.22069-1.4444-.55172"/><path d="m27.556 71.448c-.44444-.33103-.55556-.88276-.55556-1.4345s.22222-.9931.55556-1.4345c.77778-.77241 2.1111-.77241 2.8889 0 .33333.44138.55556.88276.55556 1.4345s-.22222 1.1034-.55556 1.4345c-.44444.44138-.88889.55172-1.4444.55172s-1.1111-.11034-1.4444-.55172"/><path d="m22.615 76.448c-.41026-.33103-.61538-.88276-.61538-1.4345s.20513-.9931.61538-1.4345c.82051-.77241 2.0513-.77241 2.7692 0 .41026.44138.61538.88276.61538 1.4345s-.20513 1.1034-.61538 1.4345c-.41026.33103-.92308.55172-1.4359.55172s-1.0256-.11034-1.3333-.55172"/><path d="m17.556 82.424c-.44444-.4383-.55556-.8766-.55556-1.4245 0-.54787.22222-.98617.55556-1.4245.77778-.76702 2.1111-.76702 2.8889 0 .44444.4383.55556.8766.55556 1.4245 0 .54787-.22222.98617-.55556 1.4245-.33333.32872-.88889.54787-1.4444.54787-.44444.10957-1-.10957-1.4444-.54787"/><path d="m20.444 19.424c.33333-.4383.55556-.8766.55556-1.4245 0-.54787-.22222-.98617-.55556-1.4245-.77778-.76702-2.1111-.76702-2.8889 0-.44444.4383-.55556.8766-.55556 1.4245 0 .54787.22222.98617.55556 1.4245.33333.32872.88889.54787 1.4444.54787.55556.10957 1.1111-.10957 1.4444-.54787"/><path d="m25.4 24.448c.4-.44138.6-.88276.6-1.4345s-.2-.9931-.6-1.4345c-.8-.77241-2-.77241-2.8 0-.4.44138-.6.88276-.6 1.4345s.2.9931.6 1.4345c.4.33103.9.55172 1.4.55172s1-.22069 1.4-.55172"/><path d="m30.444 30.448c.33333-.33103.55556-.88276.55556-1.4345s-.22222-.9931-.55556-1.4345c-.77778-.77241-2.1111-.77241-2.8889 0-.33333.33103-.55556.88276-.55556 1.4345s.22222.9931.55556 1.4345c.44444.44138.88889.55172 1.4444.55172.44444 0 1-.22069 1.4444-.55172"/><path d="m36.444 35.448c.33333-.33103.55556-.88276.55556-1.4345s-.22222-.9931-.55556-1.4345c-.77778-.77241-2.1111-.77241-2.8889 0-.33333.33103-.55556.88276-.55556 1.4345s.22222 1.1034.55556 1.4345c.44444.44138.88889.55172 1.4444.55172.44444 0 1-.11034 1.4444-.55172"/><path d="m41.385 40.424c.41026-.32872.61538-.8766.61538-1.4245 0-.54787-.20513-.98617-.61538-1.4245-.71795-.76702-2.0513-.76702-2.7692 0-.41026.32872-.61538.8766-.61538 1.4245 0 .54787.20513 1.0957.61538 1.4245.41026.4383.92308.54787 1.4359.54787.51282.10957 1.0256-.10957 1.3333-.54787"/><path d="m47 44.014c0-.55172-.22222-.9931-.55556-1.4345-.77778-.77241-2.1111-.77241-2.8889 0-.44444.44138-.55556.88276-.55556 1.4345s.22222.9931.55556 1.4345c.33333.33103.88889.55172 1.4444.55172s1-.22069 1.4444-.55172c.44444-.33103.55556-.88276.55556-1.4345z"/><path d="m51.444 51.448c.44444-.44138.55556-.88276.55556-1.4345s-.22222-.9931-.55556-1.4345c-.77778-.77241-2.1111-.77241-2.8889 0-.44444.44138-.55556.88276-.55556 1.4345s.22222.9931.55556 1.4345c.33333.33103.88889.55172 1.4444.55172s1.1111-.22069 1.4444-.55172"/><path d="m56.385 56.424c.41026-.32872.61538-.8766.61538-1.4245 0-.54787-.20513-.98617-.61538-1.4245-.82051-.76702-2.0513-.76702-2.7692 0-.41026.4383-.61538.8766-.61538 1.4245 0 .54787.20513.98617.61538 1.4245.41026.4383.92308.54787 1.4359.54787.41026.10957.92308-.10957 1.3333-.54787"/><path d="m62.444 61.424c.33333-.32872.55556-.8766.55556-1.4245 0-.54787-.22222-.98617-.55556-1.4245-.77778-.76702-2.1111-.76702-2.8889 0-.33333.4383-.55556.8766-.55556 1.4245 0 .54787.22222.98617.55556 1.4245.44444.4383.88889.54787 1.4444.54787.44444.10957 1-.10957 1.4444-.54787"/><path d="m67.444 66.448c.33333-.33103.55556-.88276.55556-1.4345s-.22222-1.1034-.55556-1.4345c-.77778-.77241-2.1111-.77241-2.8889 0-.33333.33103-.55556.88276-.55556 1.4345s.22222.9931.55556 1.4345c.44444.44138.88889.55172 1.4444.55172s1-.22069 1.4444-.55172"/><path d="m72.444 71.448c.44444-.33103.55556-.88276.55556-1.4345s-.22222-.9931-.55556-1.4345c-.77778-.77241-2.1111-.77241-2.8889 0-.33333.44138-.55556.88276-.55556 1.4345s.22222 1.1034.55556 1.4345c.44444.44138.88889.55172 1.4444.55172s1.1111-.11034 1.4444-.55172"/><path d="m77.444 76.448c.44444-.33103.55556-.88276.55556-1.4345s-.22222-.9931-.55556-1.4345c-.77778-.77241-2.1111-.77241-2.8889 0-.44444.44138-.55556.88276-.55556 1.4345s.22222 1.1034.55556 1.4345c.33333.33103.88889.55172 1.4444.55172s1.1111-.11034 1.4444-.55172"/><path d="m82.385 82.424c.41026-.4383.61538-.8766.61538-1.4245 0-.54787-.20513-.98617-.61538-1.4245-.82051-.76702-2.0513-.76702-2.7692 0-.41026.4383-.61538.8766-.61538 1.4245 0 .54787.20513.98617.61538 1.4245.41026.32872.92308.54787 1.4359.54787.41026.10957.92308-.10957 1.3333-.54787"/><path d="m33.036 21c5.2647-3.4327 11.036-5.0481 17.414-5.149 6.2771 0 12.048 1.7163 17.414 5.149l11.137-11.106c-8.7069-6.5625-18.123-9.8942-28.551-9.8942s-19.945 3.3317-28.449 9.8942l11.036 11.106z"/><path d="m21 66.742c-3.5854-5.3754-5.3268-11.157-5.3268-17.343 0-6.2883 1.7415-12.069 5.3268-17.343l-11.166-11.055c-6.5561 8.5196-9.8341 17.952-9.8341 28.5 0 10.345 3.278 19.879 9.9366 28.5l11.063-11.258z"/><path d="m67.964 78c-5.2647 3.5333-11.036 5.3504-17.313 5.4513-6.3783 0-12.25-1.7162-17.515-5.3504l-11.137 11.004c8.6057 6.6628 18.123 9.9941 28.652 9.8932 10.428-.10095 19.844-3.4323 28.348-9.8932l-11.036-11.105z"/><path d="m79 32.258c3.5333 5.3754 5.3504 11.258 5.2494 17.648-.10095 6.1868-1.8171 11.867-5.2494 17.039l11.105 11.055c6.5618-8.5196 9.8932-17.952 9.8932-28.297.10095-10.548-3.2304-20.082-9.8932-28.703z"/><path d="m90 81c4.3636 0 8 3.5325 8 8 0 4.3636-3.5325 8-8 8-4.3636 0-8-3.5325-8-8s3.5325-8 8-8"/><path d="m10 81c4.4211 0 8 3.5325 8 8 0 4.3636-3.5789 8-8 8s-8-3.5325-8-8 3.5789-8 8-8"/><path d="m90 1c4.4211 0 8 3.5325 8 8s-3.5789 8-8 8-8-3.5325-8-8 3.5789-8 8-8"/><path d="m10 1c4.3636 0 8 3.5789 8 8s-3.5325 8-8 8c-4.3636 0-8-3.5789-8-8s3.5325-8 8-8"/></svg>