<svg fill="none" height="1001" viewBox="0 0 1001 1001" width="1001" xmlns="http://www.w3.org/2000/svg"><circle cx="500.105" cy="500.849" fill="#11f" r="500"/><g clip-rule="evenodd" fill="#fff" fill-rule="evenodd"><path d="m312.135 237.418v78.206c0 4.418 3.582 8 8 8h197.162l-309.188 309.188h143.885l309.188-309.188-.073-.204c10.273-9.944 16.659-23.878 16.659-39.305 0-28.742-22.17-52.306-50.342-54.526l-.061-.171h-4.295-302.935c-4.418 0-8 3.582-8 8z"/><path d="m695.259 764.281v-78.205c0-4.419-3.582-8-8-8h-197.162l309.188-309.189h-143.884l-309.189 309.189.074.203c-10.273 9.944-16.659 23.879-16.659 39.305 0 28.742 22.169 52.307 50.342 54.526l.061.171h4.294 302.935c4.418 0 8-3.581 8-8z"/></g></svg>