<svg height="320pt" preserveAspectRatio="xMidYMid meet" viewBox="0 0 320 320" width="320pt" xmlns="http://www.w3.org/2000/svg"><path d="m1563 3192-1563-2v-1595-1595h1595 1595v1595c0 877-3 1595-7 1596-5 0-19 1-33 2s-728 1-1587-1zm469-732c44-13 93-52 113-91 18-33 20-121 4-152-6-12-239-250-518-529l-506-508h-230-230l490 490 490 490h-303c-190 0-311 4-323 10-17 10-19 22-19 140 0 122 1 130 22 144 20 14 84 16 498 16 296 0 489-4 512-10zm28-935-495-495h317c303 0 318-1 328-19 5-11 10-71 10-135 0-91-3-118-16-130-14-14-74-16-513-16-495 0-497 0-541 23-77 38-114 120-90 200 10 36 86 116 523 555l512 512h230 230z" transform="matrix(.1 0 0 -.1 0 320)"/></svg>