<svg fill="none" height="50" viewBox="0 0 44 50" width="44" xmlns="http://www.w3.org/2000/svg" xmlns:xlink="http://www.w3.org/1999/xlink"><filter id="a" color-interpolation-filters="sRGB" filterUnits="userSpaceOnUse" height="22.394" width="22.394" x=".169983" y="27.472"><feFlood flood-opacity="0" result="BackgroundImageFix"/><feColorMatrix in="SourceAlpha" result="hardAlpha" type="matrix" values="0 0 0 0 0 0 0 0 0 0 0 0 0 0 0 0 0 0 127 0"/><feOffset dy="3"/><feGaussianBlur stdDeviation="3"/><feColorMatrix type="matrix" values="0 0 0 0 1 0 0 0 0 1 0 0 0 0 1 0 0 0 0.161 0"/><feBlend in2="BackgroundImageFix" mode="normal" result="effect1_dropShadow_2_3"/><feBlend in="SourceGraphic" in2="effect1_dropShadow_2_3" mode="normal" result="shape"/></filter><linearGradient id="b" gradientUnits="userSpaceOnUse" x1="22.844" x2="22.844" y1="-.001007" y2="41.681"><stop offset="0" stop-color="#bff2ff"/><stop offset=".415" stop-color="#55cdff"/><stop offset="1" stop-color="#ff5ad9"/></linearGradient><linearGradient id="c" gradientUnits="userSpaceOnUse" x1="22.844" x2="22.844" y1="0" y2="41.682"><stop offset="0" stop-color="#26afe6"/><stop offset="1" stop-color="#fe3dce"/></linearGradient><radialGradient id="d" cx="0" cy="0" gradientTransform="matrix(5.197 0 0 5.256 37.702 7.87499)" gradientUnits="userSpaceOnUse" r="1"><stop offset="0" stop-color="#2e2e2e"/><stop offset="1"/></radialGradient><path clip-rule="evenodd" d="m22.843 39.706c3.7314.0002 7.379-1.1061 10.4817-3.179 3.1026-2.0729 5.5208-5.0193 6.9489-8.4666s1.8018-7.2406 1.074-10.9004c-.7278-3.6597-2.5246-7.0214-5.163-9.65992-2.6384-2.63856-6-4.43547-9.6597-5.1635-3.6596-.72803-7.453-.35448-10.9004 1.07341-3.4474 1.4279-6.39388 3.846-8.46695 6.94851-2.07306 3.1025-3.17956 6.7501-3.17956 10.4815 0 5.0034 1.98753 9.8019 5.52537 13.3399 3.53784 3.5381 8.33624 5.5258 13.33964 5.5261zm0 1.975c4.122.0002 8.1515-1.2219 11.5789-3.5119 3.4274-2.2899 6.0988-5.5447 7.6764-9.3529 1.5775-3.8082 1.9904-7.9986 1.1864-12.0415-.8041-4.0428-2.7889-7.75639-5.7035-10.67116-2.9147-2.91476-6.6282-4.89978-10.671-5.704011-4.0428-.804235-8.2332-.3915719-12.0415 1.185801-3.8082 1.57738-7.06322 4.24862-9.3533 7.67593-2.29008 3.42734-3.51241 7.45674-3.51241 11.57874 0 5.5272 2.19561 10.828 6.10383 14.7365 3.90828 3.9084 9.20898 6.1042 14.73618 6.1045z" fill="url(#b)" fill-rule="evenodd"/><path clip-rule="evenodd" d="m22.844 39.213c3.6336 0 7.1857-1.0775 10.2069-3.0962 3.0213-2.0188 5.3761-4.8881 6.7666-8.2451 1.3905-3.3571 1.7544-7.0511 1.0455-10.6149s-2.4587-6.8374-5.028-9.40676c-2.5694-2.56937-5.843-4.31913-9.4068-5.02802s-7.2578-.34506-10.6149 1.04547c-3.357 1.39054-6.22633 3.74532-8.24507 6.76661-2.01874 3.0212-3.09624 6.5733-3.09624 10.2069 0 4.8726 1.93562 9.5456 5.38104 12.991 3.44537 3.4454 8.11837 5.381 12.99097 5.381zm0 2.469c4.122 0 8.1513-1.2223 11.5786-3.5123 3.4273-2.2901 6.0986-5.545 7.676-9.3532s1.9901-7.9986 1.1859-12.0414c-.8041-4.0427-2.789-7.75624-5.7037-10.6709-2.9147-2.91467-6.6282-4.89958-10.6709-5.703737-4.0428-.804154-8.2332-.39143325-12.0414 1.185977-3.8082 1.5774-7.06313 4.24865-9.35317 7.67593-2.29004 3.42733-3.51234 7.45663-3.51234 11.57863.00027 5.5272 2.19613 10.8279 6.10454 14.7362 3.90837 3.9082 9.20927 6.1038 14.73647 6.1038z" fill="url(#c)" fill-rule="evenodd"/><path d="m37.702 13.131c2.8702 0 5.197-2.3532 5.197-5.25601s-2.3268-5.256-5.197-5.256-5.197 2.35319-5.197 5.256 2.3268 5.25601 5.197 5.25601z" fill="url(#d)"/><g filter="url(#a)"><path d="m11.367 40.866c2.8702 0 5.197-2.3268 5.197-5.197s-2.3268-5.197-5.197-5.197c-2.87024 0-5.19702 2.3268-5.19702 5.197s2.32678 5.197 5.19702 5.197z" fill="#fff"/></g></svg>